v -6.328370 49.888718 0
v -6.327019 49.895081 0
v -6.351743 49.899157 0
v -6.352600 49.896261 0
v -6.343479 49.884826 0
v -6.276043 49.922853 0
v -6.278566 49.929257 0
v -6.299240 49.937509 0
v -6.313683 49.927314 0
v -6.310853 49.921379 0
v -6.321642 49.920856 0
v -6.331405 49.912644 0
v -6.323804 49.905090 0
v -6.310370 49.911838 0
v -6.303991 49.905783 0
v -6.296056 49.911279 0
v -6.283479 49.911785 0
v -6.334928 49.963538 0
v -6.347546 49.967746 0
v -6.364740 49.952552 0
v -6.361822 49.945832 0
v -6.351103 49.945627 0
v -6.346806 49.958734 0
v -6.339200 49.955131 0
v -6.332687 49.939943 0
v -6.322673 49.945071 0
v -6.320018 49.952843 0
v -6.290185 49.967623 0
v -6.294367 49.973840 0
v -6.304832 49.964882 0
v -6.281475 49.956826 0
v -6.262940 49.962268 0
v -6.265995 49.967168 0
v -6.276857 49.964290 0
v -4.224073 50.466039 0
v -4.226396 50.470858 0
v -4.236931 50.465608 0
v -4.236960 50.458872 0
v -4.229759 50.456449 0
v -2.443266 50.520298 0
v -2.429299 50.535861 0
v -2.418261 50.542842 0
v -2.416122 50.550218 0
v -2.430327 50.567909 0
v -2.456056 50.571579 0
v -2.459152 50.568689 0
v -2.448587 50.558682 0
v -2.456037 50.542001 0
v -2.456080 50.525779 0
v -2.460045 50.517157 0
v -2.458251 50.513507 0
v -1.957540 50.695142 0
v -1.974970 50.697538 0
v -1.988516 50.692258 0
v -1.984117 50.686988 0
v -1.960061 50.686140 0
v -1.299718 50.765906 0
v -1.320537 50.765170 0
v -1.343584 50.751416 0
v -1.353903 50.739034 0
v -1.395670 50.729264 0
v -1.393497 50.716816 0
v -1.404314 50.719049 0
v -1.414341 50.714365 0
v -1.413600 50.724532 0
v -1.425504 50.726406 0
v -1.440811 50.722335 0
v -1.469736 50.709965 0
v -1.486156 50.706867 0
v -1.520635 50.707147 0
v -1.533485 50.701061 0
v -1.535018 50.693314 0
v -1.547966 50.679371 0
v -1.567290 50.673983 0
v -1.571579 50.663818 0
v -1.568529 50.661505 0
v -1.510383 50.669554 0
v -1.486824 50.666852 0
v -1.464197 50.651583 0
v -1.446307 50.642793 0
v -1.410235 50.634130 0
v -1.389069 50.626576 0
v -1.362113 50.610065 0
v -1.339396 50.601966 0
v -1.317436 50.588809 0
v -1.307408 50.577963 0
v -1.294842 50.575262 0
v -1.250561 50.581015 0
v -1.184566 50.597934 0
v -1.175284 50.606958 0
v -1.174295 50.625111 0
v -1.168014 50.641762 0
v -1.152116 50.654460 0
v -1.133701 50.661896 0
v -1.097970 50.665808 0
v -1.094815 50.671571 0
v -1.070492 50.684325 0
v -1.082903 50.694243 0
v -1.097850 50.695761 0
v -1.098539 50.705538 0
v -1.109760 50.721453 0
v -1.139494 50.727018 0
v -1.160345 50.733126 0
v -1.216803 50.735310 0
v -1.215743 50.738197 0
v -1.239559 50.743770 0
v -1.269233 50.764374 0
v -1.287543 50.762890 0
v -1.291731 50.757139 0
v -0.942469 50.781611 0
v -0.957289 50.789534 0
v -0.957287 50.808195 0
v -0.951616 50.824894 0
v -0.958175 50.830494 0
v -0.977734 50.832806 0
v -0.986072 50.826321 0
v -0.983983 50.820356 0
v -0.989900 50.803497 0
v -1.002850 50.794323 0
v -1.021692 50.790829 0
v -1.019075 50.785929 0
v -0.978645 50.782757 0
v -0.945563 50.777777 0
v -4.659693 51.161535 0
v -4.661676 51.185545 0
v -4.675624 51.201422 0
v -4.678948 51.196139 0
v -4.674608 51.181058 0
v -4.679922 51.172704 0
v -4.669735 51.159107 0
v 0.691636 51.412188 0
v 0.679536 51.412845 0
v 0.679394 51.425683 0
v 0.664382 51.422820 0
v 0.674286 51.399878 0
v 0.691285 51.396433 0
v 0.786184 51.721931 0
v 0.781155 51.729729 0
v 0.761356 51.723148 0
v 0.772637 51.715520 0
v -3.166045 54.058210 0
v -3.179177 54.057916 0
v -3.187240 54.050031 0
v -3.168773 54.044798 0
v -3.210535 54.062613 0
v -3.223098 54.070838 0
v -3.224896 54.081049 0
v -3.242720 54.094735 0
v -3.259179 54.137122 0
v -3.271884 54.143497 0
v -3.268819 54.110699 0
v -3.246073 54.081049 0
v -3.213163 54.051057 0
v -3.206544 54.049617 0
v -1.779766 55.669322 0
v -1.780311 55.685790 0
v -1.800780 55.688968 0
v -1.812247 55.683216 0
v -1.802583 55.669086 0
v -1.828635 55.682373 0
v -1.838026 55.690455 0
v -1.852070 55.683856 0
v -1.841038 55.675149 0
v -2.666091 51.639396 0
v -2.651500 51.615890 0
v -2.608715 51.671918 0
v -2.510533 51.708934 0
v -2.469868 51.743731 0
v -2.401288 51.778959 0
v -2.383085 51.771632 0
v -2.388885 51.756417 0
v -2.478644 51.724248 0
v -2.494843 51.696775 0
v -2.534685 51.677270 0
v -2.561151 51.662697 0
v -2.590079 51.624671 0
v -2.660469 51.574663 0
v -2.673813 51.544431 0
v -2.692171 51.525947 0
v -2.711339 51.506647 0
v -2.692171 51.490677 0
v -2.679612 51.480213 0
v -2.692171 51.486327 0
v -2.719301 51.499536 0
v -2.802677 51.482932 0
v -2.849991 51.453907 0
v -2.910651 51.397943 0
v -2.968699 51.389744 0
v -2.965810 51.371450 0
v -2.989009 51.357318 0
v -2.990294 51.345250 0
v -2.992948 51.320320 0
v -3.015236 51.317136 0
v -3.018403 51.273207 0
v -3.002377 51.233211 0
v -3.028007 51.197726 0
v -3.033009 51.212842 0
v -3.073628 51.203484 0
v -3.141496 51.209045 0
v -3.276873 51.181238 0
v -3.398930 51.183439 0
v -3.453816 51.208066 0
v -3.540597 51.230940 0
v -3.619377 51.219187 0
v -3.720778 51.233093 0
v -3.789044 51.242771 0
v -3.819310 51.232306 0
v -3.928724 51.229504 0
v -4.040418 51.211579 0
v -4.092207 51.214683 0
v -4.200118 51.196930 0
v -4.213147 51.186080 0
v -4.220614 51.156077 0
v -4.248359 51.139516 0
v -4.207439 51.075862 0
v -4.171975 51.072134 0
v -4.185834 51.049158 0
v -4.225542 51.056756 0
v -4.299027 51.002983 0
v -4.345575 50.990699 0
v -4.384772 50.993968 0
v -4.467207 51.018964 0
v -4.515149 51.019446 0
v -4.531846 51.000600 0
v -4.545959 50.928352 0
v -4.566262 50.904995 0
v -4.554553 50.831557 0
v -4.568303 50.779461 0
v -4.642487 50.740162 0
v -4.683301 50.698110 0
v -4.757919 50.668524 0
v -4.773104 50.624292 0
v -4.795920 50.602395 0
v -4.889778 50.585229 0
v -4.924450 50.587923 0
v -4.925165 50.554137 0
v -4.915938 50.531944 0
v -4.930797 50.534366 0
v -4.950700 50.562635 0
v -4.989239 50.543899 0
v -5.030138 50.545397 0
v -5.037584 50.468221 0
v -5.053173 50.434630 0
v -5.080690 50.418669 0
v -5.142661 50.403365 0
v -5.158118 50.350288 0
v -5.197092 50.325256 0
v -5.229385 50.316769 0
v -5.269440 50.273547 0
v -5.337997 50.241703 0
v -5.387265 50.239535 0
v -5.433364 50.196060 0
v -5.462795 50.199674 0
v -5.495623 50.217069 0
v -5.532892 50.215143 0
v -5.629006 50.171512 0
v -5.674207 50.161730 0
v -5.703161 50.129279 0
v -5.693839 50.089299 0
v -5.710046 50.064510 0
v -5.672783 50.037976 0
v -5.580956 50.053166 0
v -5.542448 50.074609 0
v -5.542175 50.107044 0
v -5.527079 50.120753 0
v -5.472936 50.123277 0
v -5.427467 50.102579 0
v -5.386783 50.101117 0
v -5.311427 50.078241 0
v -5.265285 50.033623 0
v -5.262279 50.003216 0
v -5.247895 49.983332 0
v -5.198137 49.963352 0
v -5.163181 50.001772 0
v -5.107435 50.006255 0
v -5.066668 50.044204 0
v -5.077928 50.078135 0
v -5.108181 50.096933 0
v -5.092348 50.107526 0
v -5.085453 50.127305 0
v -5.054239 50.147432 0
v -5.062636 50.159344 0
v -5.051209 50.174201 0
v -5.061822 50.198899 0
v -5.035608 50.203422 0
v -5.022933 50.165883 0
v -5.002690 50.147105 0
v -4.982958 50.157792 0
v -4.951371 50.200750 0
v -4.914564 50.202503 0
v -4.850167 50.233245 0
v -4.799228 50.224823 0
v -4.776447 50.250469 0
v -4.781615 50.273547 0
v -4.780624 50.285243 0
v -4.755359 50.301880 0
v -4.763889 50.319725 0
v -4.752293 50.330757 0
v -4.693778 50.344642 0
v -4.676331 50.317374 0
v -4.642095 50.328474 0
v -4.568132 50.328276 0
v -4.552321 50.324926 0
v -4.536530 50.324586 0
v -4.505524 50.330689 0
v -4.494801 50.335529 0
v -4.476323 50.333924 0
v -4.470193 50.338952 0
v -4.454516 50.344996 0
v -4.450592 50.351116 0
v -4.436933 50.360276 0
v -4.386855 50.364334 0
v -4.365346 50.360356 0
v -4.353571 50.361461 0
v -4.339289 50.360084 0
v -4.330602 50.361992 0
v -4.308347 50.361135 0
v -4.282880 50.356649 0
v -4.244056 50.341528 0
v -4.228689 50.332982 0
v -4.220546 50.324784 0
v -4.220874 50.322628 0
v -4.225746 50.318497 0
v -4.224004 50.312334 0
v -4.210731 50.317516 0
v -4.190497 50.318025 0
v -4.190058 50.322855 0
v -4.198705 50.328787 0
v -4.199411 50.332637 0
v -4.188722 50.340287 0
v -4.169560 50.344768 0
v -4.166647 50.349811 0
v -4.174256 50.359159 0
v -4.180542 50.359623 0
v -4.194720 50.352796 0
v -4.198936 50.359353 0
v -4.206215 50.360915 0
v -4.216064 50.359611 0
v -4.223529 50.364470 0
v -4.221526 50.368304 0
v -4.207547 50.371526 0
v -4.200303 50.370636 0
v -4.196039 50.372255 0
v -4.194418 50.375035 0
v -4.201136 50.379369 0
v -4.199988 50.382703 0
v -4.203788 50.388320 0
v -4.211493 50.392037 0
v -4.223169 50.390998 0
v -4.226296 50.393032 0
v -4.224240 50.396487 0
v -4.211078 50.400963 0
v -4.206804 50.408675 0
v -4.211008 50.415304 0
v -4.211215 50.427559 0
v -4.204245 50.430901 0
v -4.200715 50.436738 0
v -4.208791 50.445794 0
v -4.212280 50.457026 0
v -4.216818 50.462835 0
v -4.221479 50.462767 0
v -4.226340 50.457326 0
v -4.230332 50.456023 0
v -4.238076 50.459128 0
v -4.239223 50.464223 0
v -4.238078 50.466058 0
v -4.218628 50.475204 0
v -4.187040 50.424400 0
v -4.201816 50.399698 0
v -4.182819 50.369450 0
v -4.163808 50.361186 0
v -4.129618 50.362393 0
v -4.123281 50.346805 0
v -4.115912 50.320907 0
v -4.076988 50.314159 0
v -4.057284 50.297838 0
v -4.029223 50.294960 0
v -3.950077 50.308646 0
v -3.941070 50.297494 0
v -3.881935 50.281989 0
v -3.874551 50.273547 0
v -3.860492 50.257477 0
v -3.861925 50.238495 0
v -3.850059 50.232594 0
v -3.794580 50.214362 0
v -3.789044 50.217774 0
v -3.770078 50.229465 0
v -3.718556 50.206300 0
v -3.658060 50.220248 0
v -3.640755 50.273547 0
v -3.632636 50.298552 0
v -3.564701 50.338039 0
v -3.526893 50.345421 0
v -3.507436 50.378990 0
v -3.496556 50.398158 0
v -3.545662 50.405975 0
v -3.556815 50.427822 0
v -3.541677 50.455694 0
v -3.497898 50.464552 0
v -3.510979 50.485951 0
v -3.509030 50.516514 0
v -3.495759 50.541776 0
v -3.439142 50.599862 0
v -3.466378 50.666623 0
v -3.463899 50.677630 0
v -3.448081 50.672925 0
v -3.414208 50.614433 0
v -3.367393 50.607576 0
v -3.299783 50.633566 0
v -3.253961 50.673578 0
v -3.102610 50.686165 0
v -3.077359 50.701810 0
v -3.020414 50.699718 0
v -2.947815 50.718307 0
v -2.890863 50.730627 0
v -2.772136 50.711610 0
v -2.605770 50.648805 0
v -2.478808 50.582794 0
v -2.455347 50.598344 0
v -2.439005 50.623178 0
v -2.413110 50.633221 0
v -2.198522 50.619632 0
v -2.080695 50.595256 0
v -2.048390 50.581333 0
v -1.964266 50.595739 0
v -1.938480 50.635166 0
v -1.947562 50.660543 0
v -2.014076 50.676672 0
v -2.038273 50.700044 0
v -2.065277 50.698138 0
v -2.061410 50.710867 0
v -2.040600 50.719963 0
v -1.998904 50.709515 0
v -1.962460 50.711979 0
v -1.929800 50.695643 0
v -1.866664 50.716792 0
v -1.752718 50.713450 0
v -1.740725 50.721538 0
v -1.720444 50.733715 0
v -1.692049 50.736625 0
v -1.573604 50.718293 0
v -1.542117 50.730263 0
v -1.523276 50.754271 0
v -1.420142 50.766872 0
v -1.392444 50.784393 0
v -1.348176 50.785662 0
v -1.311838 50.814623 0
v -1.426593 50.895206 0
v -1.467361 50.906768 0
v -1.475039 50.917107 0
v -1.402358 50.892242 0
v -1.383892 50.895161 0
v -1.365159 50.880069 0
v -1.327113 50.856573 0
v -1.308825 50.855981 0
v -1.288970 50.833548 0
v -1.147135 50.777921 0
v -1.129039 50.782689 0
v -1.122297 50.794747 0
v -1.153261 50.839265 0
v -1.116579 50.842499 0
v -1.106548 50.843496 0
v -1.096656 50.828541 0
v -1.107677 50.792976 0
v -1.086851 50.778732 0
v -1.042122 50.786028 0
v -1.042567 50.828654 0
v -1.023967 50.832916 0
v -1.018390 50.836988 0
v -1.018194 50.843183 0
v -1.001787 50.843719 0
v -0.989088 50.837904 0
v -0.980610 50.837791 0
v -0.972475 50.841893 0
v -0.956160 50.839691 0
v -0.951189 50.842643 0
v -0.932831 50.843151 0
v -0.938896 50.824977 0
v -0.931284 50.813230 0
v -0.914491 50.810226 0
v -0.905506 50.835587 0
v -0.870637 50.810258 0
v -0.904112 50.775965 0
v -0.792045 50.726701 0
v -0.765231 50.746424 0
v -0.777873 50.762710 0
v -0.770830 50.767548 0
v -0.745126 50.764569 0
v -0.706472 50.771794 0
v -0.554885 50.800130 0
v -0.398724 50.806190 0
v -0.292534 50.824421 0
v -0.216009 50.827564 0
v -0.038176 50.799503 0
v 0.089203 50.774014 0
v 0.127700 50.757703 0
v 0.183901 50.748220 0
v 0.250744 50.736943 0
v 0.366236 50.816590 0
v 0.375083 50.818121 0
v 0.519694 50.843144 0
v 0.620267 50.860546 0
v 0.668327 50.874170 0
v 0.740293 50.917107 0
v 0.783627 50.932099 0
v 0.854784 50.923710 0
v 0.871306 50.921194 0
v 0.884325 50.919212 0
v 0.892937 50.917900 0
v 0.899029 50.917107 0
v 0.959063 50.911080 0
v 0.974044 50.911721 0
v 0.981080 50.917107 0
v 0.965699 50.971222 0
v 0.981836 51.008834 0
v 1.008606 51.032340 0
v 1.073402 51.062544 0
v 1.181869 51.076400 0
v 1.221526 51.097608 0
v 1.268335 51.102049 0
v 1.373898 51.140607 0
v 1.398505 51.163293 0
v 1.403943 51.231608 0
v 1.362733 51.316656 0
v 1.376230 51.327738 0
v 1.423128 51.330075 0
v 1.441662 51.351329 0
v 1.448097 51.374902 0
v 1.440241 51.386981 0
v 1.418352 51.393094 0
v 1.268335 51.377824 0
v 1.107154 51.372314 0
v 1.029923 51.363723 0
v 0.997115 51.347999 0
v 0.950298 51.345749 0
v 0.899229 51.342675 0
v 0.869004 51.353860 0
v 0.768632 51.362729 0
v 0.765592 51.371100 0
v 0.792193 51.371919 0
v 0.902554 51.355952 0
v 0.946540 51.375080 0
v 0.895149 51.417509 0
v 0.752135 51.444866 0
v 0.731241 51.409289 0
v 0.720526 51.410335 0
v 0.724667 51.421680 0
v 0.699756 51.417482 0
v 0.699037 51.403036 0
v 0.712029 51.385002 0
v 0.699972 51.382343 0
v 0.691824 51.391350 0
v 0.672003 51.378739 0
v 0.648205 51.394615 0
v 0.626895 51.375210 0
v 0.624078 51.384804 0
v 0.602984 51.384148 0
v 0.564300 51.400942 0
v 0.577272 51.413446 0
v 0.611530 51.420514 0
v 0.634237 51.442458 0
v 0.711744 51.438694 0
v 0.719229 51.448243 0
v 0.714818 51.460405 0
v 0.682861 51.474212 0
v 0.519694 51.484239 0
v 0.491080 51.485998 0
v 0.468636 51.477255 0
v 0.458901 51.454937 0
v 0.410222 51.443903 0
v 0.375083 51.445216 0
v 0.358235 51.445846 0
v 0.312483 51.464297 0
v 0.273134 51.455388 0
v 0.217437 51.480072 0
v 0.183901 51.482886 0
v 0.153380 51.505868 0
v 0.110752 51.509156 0
v 0.064862 51.495824 0
v 0.005677 51.499475 0
v -0.005953 51.487426 0
v -0.024711 51.485649 0
v -0.039213 51.505280 0
v -0.108863 51.508449 0
v -0.128365 51.485058 0
v -0.170802 51.480090 0
v -0.182658 51.466696 0
v -0.191901 51.463320 0
v -0.207517 51.464204 0
v -0.222829 51.471817 0
v -0.243844 51.488932 0
v -0.230273 51.487511 0
v -0.217976 51.471361 0
v -0.200662 51.465943 0
v -0.185689 51.468606 0
v -0.172410 51.481655 0
v -0.149948 51.485515 0
v -0.130098 51.488659 0
v -0.111511 51.510753 0
v -0.079446 51.507805 0
v -0.035263 51.507456 0
v -0.013739 51.488211 0
v -0.002794 51.504560 0
v 0.009418 51.507099 0
v 0.026142 51.499420 0
v 0.063355 51.499010 0
v 0.097000 51.515671 0
v 0.104184 51.514708 0
v 0.158734 51.512616 0
v 0.183901 51.494242 0
v 0.189477 51.490171 0
v 0.210514 51.490036 0
v 0.276107 51.464025 0
v 0.316432 51.472537 0
v 0.347534 51.452611 0
v 0.375083 51.454083 0
v 0.413556 51.456139 0
v 0.432500 51.463391 0
v 0.451807 51.502505 0
v 0.519694 51.509075 0
v 0.529323 51.510007 0
v 0.519694 51.523063 0
v 0.519694 51.528883 0
v 0.572268 51.508683 0
v 0.625137 51.517431 0
v 0.631806 51.522633 0
v 0.626791 51.532173 0
v 0.651996 51.539318 0
v 0.783341 51.522660 0
v 0.821237 51.540712 0
v 0.907722 51.582635 0
v 0.927179 51.607235 0
v 0.863354 51.609194 0
v 0.758428 51.633264 0
v 0.607590 51.630067 0
v 0.643608 51.638382 0
v 0.751375 51.639203 0
v 0.858834 51.621979 0
v 0.925399 51.630247 0
v 0.947223 51.687367 0
v 0.947132 51.724768 0
v 0.931884 51.742661 0
v 0.898824 51.742550 0
v 0.852783 51.718934 0
v 0.803069 51.716896 0
v 0.761985 51.697754 0
v 0.714762 51.727173 0
v 0.724989 51.734690 0
v 0.849858 51.743732 0
v 0.869171 51.756613 0
v 0.861776 51.774638 0
v 0.844558 51.781376 0
v 0.900192 51.785810 0
v 0.930310 51.775124 0
v 0.980693 51.787324 0
v 0.991797 51.796408 0
v 0.970809 51.811382 0
v 0.978857 51.838271 0
v 0.996783 51.816829 0
v 1.026018 51.800649 0
v 1.044379 51.773847 0
v 1.120557 51.776301 0
v 1.226375 51.815907 0
v 1.286242 51.863030 0
v 1.282982 51.872957 0
v 1.246035 51.891281 0
v 1.287135 51.944702 0
v 1.117579 51.941033 0
v 1.056380 51.951492 0
v 1.157051 51.964287 0
v 1.199175 51.957213 0
v 1.271779 51.962245 0
v 1.263113 51.985190 0
v 1.193516 52.006951 0
v 1.191214 52.015891 0
v 1.267739 51.993530 0
v 1.294592 51.963516 0
v 1.330305 51.946600 0
v 1.375058 51.971945 0
v 1.392104 51.993246 0
v 1.428649 52.006395 0
v 1.478468 52.055056 0
v 1.573563 52.090666 0
v 1.619265 52.188159 0
v 1.636567 52.275864 0
v 1.677571 52.320465 0
v 1.717885 52.384201 0
v 1.735827 52.444075 0
v 1.754926 52.476156 0
v 1.740544 52.532100 0
v 1.732839 52.562792 0
v 1.741741 52.633653 0
v 1.699998 52.716758 0
v 1.675478 52.742691 0
v 1.609258 52.786929 0
v 1.534131 52.827098 0
v 1.437355 52.878493 0
v 1.299810 52.930876 0
v 1.050850 52.966592 0
v 0.995417 52.967885 0
v 0.978319 52.977157 0
v 0.962359 52.966722 0
v 0.923133 52.964751 0
v 0.704119 52.982679 0
v 0.664507 52.972754 0
v 0.549637 52.973152 0
v 0.519056 52.963552 0
v 0.483334 52.934298 0
v 0.438944 52.847404 0
v 0.397192 52.827098 0
v 0.367237 52.800008 0
v 0.319623 52.813691 0
v 0.265960 52.810116 0
v 0.220190 52.820502 0
v 0.213981 52.827098 0
v 0.183901 52.859058 0
v 0.170714 52.873068 0
v 0.104184 52.890089 0
v 0.037198 52.906201 0
v 0.044048 52.917088 0
v 0.075555 52.934585 0
v 0.104184 52.970442 0
v 0.117322 52.980365 0
v 0.166526 53.017529 0
v 0.183901 53.026647 0
v 0.299446 53.087282 0
v 0.335612 53.097593 0
v 0.337772 53.107941 0
v 0.354366 53.187412 0
v 0.336602 53.230588 0
v 0.321449 53.267416 0
v 0.226796 53.404025 0
v 0.183901 53.453131 0
v 0.155459 53.485691 0
v 0.136137 53.487014 0
v 0.122015 53.499000 0
v 0.104184 53.492085 0
v 0.087883 53.497514 0
v 0.075752 53.514706 0
v 0.036925 53.516196 0
v 0.017378 53.525367 0
v -0.054486 53.578284 0
v -0.105668 53.587905 0
v -0.202767 53.638065 0
v -0.275651 53.703913 0
v -0.296777 53.712831 0
v -0.471277 53.696886 0
v -0.518916 53.679173 0
v -0.541365 53.687842 0
v -0.559034 53.683686 0
v -0.618976 53.712810 0
v -0.683428 53.698046 0
v -0.689272 53.684021 0
v -0.698366 53.684654 0
v -0.698196 53.703391 0
v -0.648279 53.725707 0
v -0.636917 53.727760 0
v -0.615601 53.730816 0
v -0.592156 53.728262 0
v -0.587117 53.725707 0
v -0.559118 53.711509 0
v -0.550393 53.709331 0
v -0.536717 53.709132 0
v -0.486759 53.716428 0
v -0.463185 53.716781 0
v -0.446880 53.714109 0
v -0.419136 53.719620 0
v -0.396595 53.723106 0
v -0.385635 53.724175 0
v -0.379404 53.725707 0
v -0.353889 53.731979 0
v -0.331995 53.738571 0
v -0.307125 53.741928 0
v -0.294616 53.742566 0
v -0.276406 53.740612 0
v -0.250096 53.733318 0
v -0.209642 53.700594 0
v -0.095275 53.637014 0
v -0.050794 53.632594 0
v 0.038067 53.644898 0
v 0.123021 53.635054 0
v 0.094297 53.681618 0
v -0.145404 53.895645 0
v -0.206916 54.004819 0
v -0.209607 54.049092 0
v -0.186090 54.081049 0
v -0.167442 54.094689 0
v -0.106262 54.106258 0
v -0.089771 54.117237 0
v -0.212449 54.157627 0
v -0.271402 54.182200 0
v -0.283593 54.220448 0
v -0.360130 54.244849 0
v -0.387531 54.268268 0
v -0.389378 54.284963 0
v -0.404625 54.294007 0
v -0.420851 54.334695 0
v -0.455420 54.378359 0
v -0.478566 54.400429 0
v -0.524010 54.418825 0
v -0.530638 54.430246 0
v -0.525753 54.447585 0
v -0.566614 54.476532 0
v -0.658079 54.499452 0
v -0.706472 54.527363 0
v -0.712759 54.530989 0
v -0.741384 54.529568 0
v -0.790906 54.559482 0
v -0.889311 54.571284 0
v -0.895065 54.571974 0
v -0.934488 54.587812 0
v -0.997977 54.592797 0
v -1.055886 54.616852 0
v -1.135079 54.636362 0
v -1.151289 54.624775 0
v -1.156403 54.602761 0
v -1.199726 54.581925 0
v -1.251130 54.588284 0
v -1.261252 54.571903 0
v -1.251665 54.588409 0
v -1.202964 54.585517 0
v -1.164448 54.614381 0
v -1.184944 54.625748 0
v -1.167049 54.642348 0
v -1.194589 54.678448 0
v -1.185236 54.699169 0
v -1.242229 54.722595 0
v -1.275934 54.751854 0
v -1.304347 54.776518 0
v -1.315592 54.816883 0
v -1.347372 54.860691 0
v -1.363901 54.944183 0
v -1.356306 54.957180 0
v -1.360356 54.967601 0
v -1.426437 55.008166 0
v -1.420191 55.020957 0
v -1.461693 55.074390 0
v -1.491091 55.099430 0
v -1.523927 55.157564 0
v -1.504140 55.194080 0
v -1.568119 55.269238 0
v -1.569100 55.289894 0
v -1.551155 55.319125 0
v -1.588831 55.340105 0
v -1.604892 55.372135 0
v -1.606661 55.386206 0
v -1.582405 55.408681 0
v -1.578514 55.428553 0
v -1.589259 55.439962 0
v -1.593305 55.488000 0
v -1.614448 55.502459 0
v -1.614883 55.521104 0
v -1.634604 55.539722 0
v -1.627184 55.553855 0
v -1.643668 55.577748 0
v -1.722403 55.615975 0
v -1.770012 55.608229 0
v -1.775316 55.615668 0
v -1.768492 55.628598 0
v -1.785744 55.642450 0
v -1.812774 55.635653 0
v -1.837864 55.643090 0
v -1.885926 55.693776 0
v -1.996475 55.761915 0
v -1.999644 55.782750 0
v -2.034329 55.811165 0
v -2.068268 55.798492 0
v -2.081287 55.791037 0
v -2.092780 55.760986 0
v -2.165834 55.723010 0
v -2.176405 55.703382 0
v -2.241241 55.650568 0
v -2.239467 55.643244 0
v -2.306698 55.646166 0
v -2.331076 55.636117 0
v -2.293990 55.605217 0
v -2.285772 55.582569 0
v -2.237813 55.549022 0
v -2.224680 55.508449 0
v -2.200571 55.479025 0
v -2.176425 55.470211 0
v -2.197420 55.444238 0
v -2.331557 55.407215 0
v -2.341025 55.398785 0
v -2.333541 55.383484 0
v -2.341909 55.366664 0
v -2.381545 55.350146 0
v -2.441537 55.358335 0
v -2.488344 55.350164 0
v -2.516698 55.326331 0
v -2.552384 55.316523 0
v -2.611723 55.280110 0
v -2.633745 55.258429 0
v -2.627047 55.247861 0
v -2.635448 55.225569 0
v -2.669603 55.216764 0
v -2.689751 55.189064 0
v -2.717513 55.169311 0
v -2.822823 55.135615 0
v -2.858508 55.108425 0
v -2.956649 55.052054 0
v -2.965676 55.052152 0
v -3.044439 55.053009 0
v -3.030187 55.031710 0
v -3.057370 54.986896 0
v -3.105705 54.964932 0
v -3.122797 54.944947 0
v -3.110404 54.933753 0
v -3.119150 54.927887 0
v -3.130086 54.928136 0
v -3.208155 54.953554 0
v -3.281584 54.941246 0
v -3.309938 54.915356 0
v -3.281987 54.904355 0
v -3.258231 54.908052 0
v -3.261532 54.895517 0
v -3.284232 54.890994 0
v -3.291343 54.880943 0
v -3.346779 54.896721 0
v -3.395876 54.869261 0
v -3.434985 54.803842 0
v -3.437388 54.759985 0
v -3.450274 54.751854 0
v -3.508258 54.715265 0
v -3.522670 54.689831 0
v -3.575264 54.647977 0
v -3.570577 54.610160 0
v -3.584065 54.566975 0
v -3.610632 54.528613 0
v -3.616332 54.525688 0
v -3.635608 54.515794 0
v -3.623436 54.495719 0
v -3.596715 54.483992 0
v -3.565023 54.455145 0
v -3.440444 54.348605 0
v -3.427818 54.345492 0
v -3.418729 54.357286 0
v -3.411704 54.354995 0
v -3.408010 54.346246 0
v -3.417119 54.336077 0
v -3.422012 54.330616 0
v -3.418589 54.283170 0
v -3.327287 54.195594 0
v -3.307363 54.189063 0
v -3.250532 54.195439 0
v -3.243500 54.203263 0
v -3.250030 54.219645 0
v -3.226110 54.242200 0
v -3.229782 54.260086 0
v -3.215390 54.256505 0
v -3.211584 54.247822 0
v -3.194283 54.229142 0
v -3.204951 54.215130 0
v -3.221641 54.176198 0
v -3.253358 54.166830 0
v -3.239661 54.151711 0
v -3.238743 54.107498 0
v -3.224975 54.096265 0
v -3.193275 54.100795 0
v -3.173291 54.081873 0
v -3.149062 54.093601 0
v -3.069910 54.159780 0
v -3.036460 54.216623 0
v -3.007217 54.171196 0
v -3.001164 54.140214 0
v -2.942546 54.157678 0
v -2.893915 54.193991 0
v -2.860448 54.200056 0
v -2.869470 54.176738 0
v -2.810807 54.113032 0
v -2.833634 54.085821 0
v -2.844031 54.081049 0
v -2.877169 54.065839 0
v -2.905842 54.029885 0
v -2.892952 53.998152 0
v -2.859664 53.997684 0
v -2.869136 53.961637 0
v -2.888018 53.948004 0
v -2.965676 53.937434 0
v -2.983694 53.932132 0
v -2.995484 53.900066 0
v -3.012142 53.922049 0
v -3.036620 53.920274 0
v -3.047940 53.875774 0
v -3.057371 53.776481 0
v -3.048200 53.758661 0
v -3.007320 53.737792 0
v -2.965676 53.734898 0
v -2.921408 53.731822 0
v -2.859070 53.737329 0
v -2.839680 53.725707 0
v -2.864271 53.732727 0
v -2.929797 53.723850 0
v -2.956203 53.697529 0
v -2.965676 53.696007 0
v -2.974042 53.694664 0
v -3.034188 53.643675 0
v -3.103736 53.558476 0
v -3.100250 53.542351 0
v -3.066733 53.519786 0
v -3.037523 53.464976 0
v -3.008742 53.438411 0
v -2.998245 53.406272 0
v -2.971854 53.377831 0
v -2.965676 53.375005 0
v -2.874217 53.333178 0
v -2.826677 53.331672 0
v -2.791038 53.325875 0
v -2.758378 53.344278 0
v -2.752411 53.314754 0
v -2.789698 53.298494 0
v -2.839751 53.306895 0
v -2.870556 53.291516 0
v -2.928556 53.308277 0
v -2.965676 53.342347 0
v -2.999204 53.373120 0
v -3.037071 53.436664 0
v -3.050985 53.440215 0
v -3.171789 53.401416 0
v -3.197733 53.385211 0
v -3.190516 53.370193 0
v -3.124311 53.325408 0
v -3.110706 53.296318 0
v -3.089146 53.278602 0
v -3.101346 53.266941 0
v -3.000241 53.236354 0
v -2.965676 53.214915 0
v -2.925178 53.189796 0
v -2.928287 53.172408 0
v -2.965676 53.161386 0
v -2.987556 53.154936 0
v -2.965676 53.139189 0
v -2.941813 53.122016 0
v -2.907001 53.113969 0
v -2.884764 53.118610 0
v -2.889581 53.107941 0
v -2.892090 53.102384 0
v -2.897219 53.091026 0
v -2.866567 53.060565 0
v -2.856999 53.022819 0
v -2.832646 52.998088 0
v -2.726823 52.983295 0
v -2.730141 52.927557 0
v -2.757883 52.922123 0
v -2.797181 52.898538 0
v -2.847670 52.943348 0
v -2.891894 52.950329 0
v -2.931754 52.940858 0
v -2.976092 52.965289 0
v -3.008556 52.954837 0
v -3.041068 52.929085 0
v -3.096937 52.927949 0
v -3.117485 52.897119 0
v -3.147480 52.890156 0
v -3.138881 52.867349 0
v -3.162086 52.823298 0
v -3.156373 52.799154 0
v -3.096608 52.789812 0
v -3.069973 52.773305 0
v -3.024461 52.764370 0
v -2.975137 52.726748 0
v -3.023097 52.714781 0
v -3.086644 52.610506 0
v -3.129815 52.583759 0
v -3.120085 52.535928 0
v -3.098792 52.534787 0
v -3.075543 52.552647 0
v -3.022764 52.568976 0
v -3.000630 52.543669 0
v -3.008171 52.526762 0
v -3.042895 52.502671 0
v -3.108697 52.497409 0
v -3.195261 52.473963 0
v -3.223398 52.455659 0
v -3.227732 52.436815 0
v -3.207759 52.417604 0
v -3.065689 52.352661 0
v -2.954719 52.349258 0
v -2.991268 52.323293 0
v -3.001216 52.306943 0
v -3.005112 52.285120 0
v -2.988987 52.266867 0
v -3.034072 52.253775 0
v -3.064423 52.234814 0
v -3.110826 52.171803 0
v -3.091546 52.151711 0
v -3.127042 52.129803 0
v -3.112078 52.111848 0
v -3.118114 52.075105 0
v -3.093756 52.046256 0
v -3.093235 52.019521 0
v -3.067357 51.983150 0
v -3.023954 51.954505 0
v -3.003987 51.926881 0
v -2.977007 51.923668 0
v -2.967067 51.906658 0
v -2.877535 51.931951 0
v -2.776119 51.881590 0
v -2.774534 51.865322 0
v -2.741233 51.840074 0
v -2.718834 51.845711 0
v -2.692171 51.838112 0
v -2.650213 51.826153 0
v -2.674310 51.802397 0
v -2.677107 51.768913 0
v -2.666481 51.749996 0
v -2.683748 51.727930 0
v -2.662737 51.675202 0
v -2.680148 51.666085 0
l 1 2
l 2 3
l 3 4
l 4 5
l 5 1
l 6 7
l 7 8
l 8 9
l 9 10
l 10 11
l 11 12
l 12 13
l 13 14
l 14 15
l 15 16
l 16 17
l 17 6
l 18 19
l 19 20
l 20 21
l 21 22
l 22 23
l 23 24
l 24 25
l 25 26
l 26 27
l 27 18
l 28 29
l 29 30
l 30 31
l 31 32
l 32 33
l 33 34
l 34 28
l 35 36
l 36 37
l 37 38
l 38 39
l 39 35
l 40 41
l 41 42
l 42 43
l 43 44
l 44 45
l 45 46
l 46 47
l 47 48
l 48 49
l 49 50
l 50 51
l 51 40
l 52 53
l 53 54
l 54 55
l 55 56
l 56 52
l 57 58
l 58 59
l 59 60
l 60 61
l 61 62
l 62 63
l 63 64
l 64 65
l 65 66
l 66 67
l 67 68
l 68 69
l 69 70
l 70 71
l 71 72
l 72 73
l 73 74
l 74 75
l 75 76
l 76 77
l 77 78
l 78 79
l 79 80
l 80 81
l 81 82
l 82 83
l 83 84
l 84 85
l 85 86
l 86 87
l 87 88
l 88 89
l 89 90
l 90 91
l 91 92
l 92 93
l 93 94
l 94 95
l 95 96
l 96 97
l 97 98
l 98 99
l 99 100
l 100 101
l 101 102
l 102 103
l 103 104
l 104 105
l 105 106
l 106 107
l 107 108
l 108 109
l 109 57
l 110 111
l 111 112
l 112 113
l 113 114
l 114 115
l 115 116
l 116 117
l 117 118
l 118 119
l 119 120
l 120 121
l 121 122
l 122 123
l 123 110
l 124 125
l 125 126
l 126 127
l 127 128
l 128 129
l 129 130
l 130 124
l 131 132
l 132 133
l 133 134
l 134 135
l 135 136
l 136 131
l 137 138
l 138 139
l 139 140
l 140 137
l 141 142
l 142 143
l 143 144
l 144 141
l 145 146
l 146 147
l 147 148
l 148 149
l 149 150
l 150 151
l 151 152
l 152 153
l 153 154
l 154 145
l 155 156
l 156 157
l 157 158
l 158 159
l 159 155
l 160 161
l 161 162
l 162 163
l 163 160
l 164 165
l 165 166
l 166 167
l 167 168
l 168 169
l 169 170
l 170 171
l 171 172
l 172 173
l 173 174
l 174 175
l 175 176
l 176 177
l 177 178
l 178 179
l 179 180
l 180 181
l 181 182
l 182 183
l 183 184
l 184 185
l 185 186
l 186 187
l 187 188
l 188 189
l 189 190
l 190 191
l 191 192
l 192 193
l 193 194
l 194 195
l 195 196
l 196 197
l 197 198
l 198 199
l 199 200
l 200 201
l 201 202
l 202 203
l 203 204
l 204 205
l 205 206
l 206 207
l 207 208
l 208 209
l 209 210
l 210 211
l 211 212
l 212 213
l 213 214
l 214 215
l 215 216
l 216 217
l 217 218
l 218 219
l 219 220
l 220 221
l 221 222
l 222 223
l 223 224
l 224 225
l 225 226
l 226 227
l 227 228
l 228 229
l 229 230
l 230 231
l 231 232
l 232 233
l 233 234
l 234 235
l 235 236
l 236 237
l 237 238
l 238 239
l 239 240
l 240 241
l 241 242
l 242 243
l 243 244
l 244 245
l 245 246
l 246 247
l 247 248
l 248 249
l 249 250
l 250 251
l 251 252
l 252 253
l 253 254
l 254 255
l 255 256
l 256 257
l 257 258
l 258 259
l 259 260
l 260 261
l 261 262
l 262 263
l 263 264
l 264 265
l 265 266
l 266 267
l 267 268
l 268 269
l 269 270
l 270 271
l 271 272
l 272 273
l 273 274
l 274 275
l 275 276
l 276 277
l 277 278
l 278 279
l 279 280
l 280 281
l 281 282
l 282 283
l 283 284
l 284 285
l 285 286
l 286 287
l 287 288
l 288 289
l 289 290
l 290 291
l 291 292
l 292 293
l 293 294
l 294 295
l 295 296
l 296 297
l 297 298
l 298 299
l 299 300
l 300 301
l 301 302
l 302 303
l 303 304
l 304 305
l 305 306
l 306 307
l 307 308
l 308 309
l 309 310
l 310 311
l 311 312
l 312 313
l 313 314
l 314 315
l 315 316
l 316 317
l 317 318
l 318 319
l 319 320
l 320 321
l 321 322
l 322 323
l 323 324
l 324 325
l 325 326
l 326 327
l 327 328
l 328 329
l 329 330
l 330 331
l 331 332
l 332 333
l 333 334
l 334 335
l 335 336
l 336 337
l 337 338
l 338 339
l 339 340
l 340 341
l 341 342
l 342 343
l 343 344
l 344 345
l 345 346
l 346 347
l 347 348
l 348 349
l 349 350
l 350 351
l 351 352
l 352 353
l 353 354
l 354 355
l 355 356
l 356 357
l 357 358
l 358 359
l 359 360
l 360 361
l 361 362
l 362 363
l 363 364
l 364 365
l 365 366
l 366 367
l 367 368
l 368 369
l 369 370
l 370 371
l 371 372
l 372 373
l 373 374
l 374 375
l 375 376
l 376 377
l 377 378
l 378 379
l 379 380
l 380 381
l 381 382
l 382 383
l 383 384
l 384 385
l 385 386
l 386 387
l 387 388
l 388 389
l 389 390
l 390 391
l 391 392
l 392 393
l 393 394
l 394 395
l 395 396
l 396 397
l 397 398
l 398 399
l 399 400
l 400 401
l 401 402
l 402 403
l 403 404
l 404 405
l 405 406
l 406 407
l 407 408
l 408 409
l 409 410
l 410 411
l 411 412
l 412 413
l 413 414
l 414 415
l 415 416
l 416 417
l 417 418
l 418 419
l 419 420
l 420 421
l 421 422
l 422 423
l 423 424
l 424 425
l 425 426
l 426 427
l 427 428
l 428 429
l 429 430
l 430 431
l 431 432
l 432 433
l 433 434
l 434 435
l 435 436
l 436 437
l 437 438
l 438 439
l 439 440
l 440 441
l 441 442
l 442 443
l 443 444
l 444 445
l 445 446
l 446 447
l 447 448
l 448 449
l 449 450
l 450 451
l 451 452
l 452 453
l 453 454
l 454 455
l 455 456
l 456 457
l 457 458
l 458 459
l 459 460
l 460 461
l 461 462
l 462 463
l 463 464
l 464 465
l 465 466
l 466 467
l 467 468
l 468 469
l 469 470
l 470 471
l 471 472
l 472 473
l 473 474
l 474 475
l 475 476
l 476 477
l 477 478
l 478 479
l 479 480
l 480 481
l 481 482
l 482 483
l 483 484
l 484 485
l 485 486
l 486 487
l 487 488
l 488 489
l 489 490
l 490 491
l 491 492
l 492 493
l 493 494
l 494 495
l 495 496
l 496 497
l 497 498
l 498 499
l 499 500
l 500 501
l 501 502
l 502 503
l 503 504
l 504 505
l 505 506
l 506 507
l 507 508
l 508 509
l 509 510
l 510 511
l 511 512
l 512 513
l 513 514
l 514 515
l 515 516
l 516 517
l 517 518
l 518 519
l 519 520
l 520 521
l 521 522
l 522 523
l 523 524
l 524 525
l 525 526
l 526 527
l 527 528
l 528 529
l 529 530
l 530 531
l 531 532
l 532 533
l 533 534
l 534 535
l 535 536
l 536 537
l 537 538
l 538 539
l 539 540
l 540 541
l 541 542
l 542 543
l 543 544
l 544 545
l 545 546
l 546 547
l 547 548
l 548 549
l 549 550
l 550 551
l 551 552
l 552 553
l 553 554
l 554 555
l 555 556
l 556 557
l 557 558
l 558 559
l 559 560
l 560 561
l 561 562
l 562 563
l 563 564
l 564 565
l 565 566
l 566 567
l 567 568
l 568 569
l 569 570
l 570 571
l 571 572
l 572 573
l 573 574
l 574 575
l 575 576
l 576 577
l 577 578
l 578 579
l 579 580
l 580 581
l 581 582
l 582 583
l 583 584
l 584 585
l 585 586
l 586 587
l 587 588
l 588 589
l 589 590
l 590 591
l 591 592
l 592 593
l 593 594
l 594 595
l 595 596
l 596 597
l 597 598
l 598 599
l 599 600
l 600 601
l 601 602
l 602 603
l 603 604
l 604 605
l 605 606
l 606 607
l 607 608
l 608 609
l 609 610
l 610 611
l 611 612
l 612 613
l 613 614
l 614 615
l 615 616
l 616 617
l 617 618
l 618 619
l 619 620
l 620 621
l 621 622
l 622 623
l 623 624
l 624 625
l 625 626
l 626 627
l 627 628
l 628 629
l 629 630
l 630 631
l 631 632
l 632 633
l 633 634
l 634 635
l 635 636
l 636 637
l 637 638
l 638 639
l 639 640
l 640 641
l 641 642
l 642 643
l 643 644
l 644 645
l 645 646
l 646 647
l 647 648
l 648 649
l 649 650
l 650 651
l 651 652
l 652 653
l 653 654
l 654 655
l 655 656
l 656 657
l 657 658
l 658 659
l 659 660
l 660 661
l 661 662
l 662 663
l 663 664
l 664 665
l 665 666
l 666 667
l 667 668
l 668 669
l 669 670
l 670 671
l 671 672
l 672 673
l 673 674
l 674 675
l 675 676
l 676 677
l 677 678
l 678 679
l 679 680
l 680 681
l 681 682
l 682 683
l 683 684
l 684 685
l 685 686
l 686 687
l 687 688
l 688 689
l 689 690
l 690 691
l 691 692
l 692 693
l 693 694
l 694 695
l 695 696
l 696 697
l 697 698
l 698 699
l 699 700
l 700 701
l 701 702
l 702 703
l 703 704
l 704 705
l 705 706
l 706 707
l 707 708
l 708 709
l 709 710
l 710 711
l 711 712
l 712 713
l 713 714
l 714 715
l 715 716
l 716 717
l 717 718
l 718 719
l 719 720
l 720 721
l 721 722
l 722 723
l 723 724
l 724 725
l 725 726
l 726 727
l 727 728
l 728 729
l 729 730
l 730 731
l 731 732
l 732 733
l 733 734
l 734 735
l 735 736
l 736 737
l 737 738
l 738 739
l 739 740
l 740 741
l 741 742
l 742 743
l 743 744
l 744 745
l 745 746
l 746 747
l 747 748
l 748 749
l 749 750
l 750 751
l 751 752
l 752 753
l 753 754
l 754 755
l 755 756
l 756 757
l 757 758
l 758 759
l 759 760
l 760 761
l 761 762
l 762 763
l 763 764
l 764 765
l 765 766
l 766 767
l 767 768
l 768 769
l 769 770
l 770 771
l 771 772
l 772 773
l 773 774
l 774 775
l 775 776
l 776 777
l 777 778
l 778 779
l 779 780
l 780 781
l 781 782
l 782 783
l 783 784
l 784 785
l 785 786
l 786 787
l 787 788
l 788 789
l 789 790
l 790 791
l 791 792
l 792 793
l 793 794
l 794 795
l 795 796
l 796 797
l 797 798
l 798 799
l 799 800
l 800 801
l 801 802
l 802 803
l 803 804
l 804 805
l 805 806
l 806 807
l 807 808
l 808 809
l 809 810
l 810 811
l 811 812
l 812 813
l 813 814
l 814 815
l 815 816
l 816 817
l 817 818
l 818 819
l 819 820
l 820 821
l 821 822
l 822 823
l 823 824
l 824 825
l 825 826
l 826 827
l 827 828
l 828 829
l 829 830
l 830 831
l 831 832
l 832 833
l 833 834
l 834 835
l 835 836
l 836 837
l 837 838
l 838 839
l 839 840
l 840 841
l 841 842
l 842 843
l 843 844
l 844 845
l 845 846
l 846 847
l 847 848
l 848 849
l 849 850
l 850 851
l 851 852
l 852 853
l 853 854
l 854 855
l 855 856
l 856 857
l 857 858
l 858 859
l 859 860
l 860 861
l 861 862
l 862 863
l 863 864
l 864 865
l 865 866
l 866 867
l 867 868
l 868 869
l 869 870
l 870 871
l 871 872
l 872 873
l 873 874
l 874 875
l 875 876
l 876 877
l 877 878
l 878 879
l 879 880
l 880 881
l 881 882
l 882 883
l 883 884
l 884 885
l 885 886
l 886 887
l 887 888
l 888 889
l 889 890
l 890 891
l 891 892
l 892 893
l 893 894
l 894 895
l 895 896
l 896 897
l 897 898
l 898 899
l 899 900
l 900 901
l 901 902
l 902 903
l 903 904
l 904 905
l 905 906
l 906 907
l 907 908
l 908 909
l 909 910
l 910 911
l 911 912
l 912 913
l 913 914
l 914 915
l 915 916
l 916 917
l 917 918
l 918 919
l 919 920
l 920 921
l 921 922
l 922 923
l 923 924
l 924 925
l 925 926
l 926 927
l 927 928
l 928 929
l 929 930
l 930 931
l 931 932
l 932 933
l 933 934
l 934 935
l 935 936
l 936 937
l 937 938
l 938 939
l 939 940
l 940 941
l 941 942
l 942 943
l 943 944
l 944 945
l 945 946
l 946 947
l 947 948
l 948 949
l 949 950
l 950 951
l 951 952
l 952 953
l 953 954
l 954 955
l 955 956
l 956 957
l 957 958
l 958 959
l 959 960
l 960 961
l 961 962
l 962 963
l 963 964
l 964 965
l 965 966
l 966 967
l 967 968
l 968 969
l 969 970
l 970 971
l 971 972
l 972 973
l 973 974
l 974 975
l 975 976
l 976 977
l 977 978
l 978 979
l 979 980
l 980 981
l 981 982
l 982 983
l 983 984
l 984 985
l 985 986
l 986 987
l 987 988
l 988 989
l 989 990
l 990 991
l 991 992
l 992 993
l 993 994
l 994 995
l 995 996
l 996 997
l 997 998
l 998 999
l 999 1000
l 1000 1001
l 1001 1002
l 1002 1003
l 1003 1004
l 1004 1005
l 1005 1006
l 1006 1007
l 1007 1008
l 1008 1009
l 1009 1010
l 1010 1011
l 1011 1012
l 1012 1013
l 1013 1014
l 1014 1015
l 1015 1016
l 1016 1017
l 1017 1018
l 1018 1019
l 1019 1020
l 1020 1021
l 1021 1022
l 1022 1023
l 1023 1024
l 1024 1025
l 1025 1026
l 1026 1027
l 1027 1028
l 1028 1029
l 1029 1030
l 1030 1031
l 1031 1032
l 1032 1033
l 1033 1034
l 1034 1035
l 1035 1036
l 1036 1037
l 1037 1038
l 1038 1039
l 1039 1040
l 1040 1041
l 1041 1042
l 1042 1043
l 1043 1044
l 1044 1045
l 1045 1046
l 1046 1047
l 1047 1048
l 1048 1049
l 1049 1050
l 1050 1051
l 1051 1052
l 1052 1053
l 1053 1054
l 1054 1055
l 1055 1056
l 1056 1057
l 1057 1058
l 1058 1059
l 1059 1060
l 1060 1061
l 1061 1062
l 1062 1063
l 1063 1064
l 1064 1065
l 1065 1066
l 1066 1067
l 1067 1068
l 1068 1069
l 1069 1070
l 1070 1071
l 1071 1072
l 1072 1073
l 1073 1074
l 1074 1075
l 1075 1076
l 1076 1077
l 1077 1078
l 1078 1079
l 1079 1080
l 1080 1081
l 1081 1082
l 1082 1083
l 1083 1084
l 1084 1085
l 1085 1086
l 1086 1087
l 1087 1088
l 1088 1089
l 1089 1090
l 1090 1091
l 1091 1092
l 1092 1093
l 1093 1094
l 1094 1095
l 1095 1096
l 1096 1097
l 1097 1098
l 1098 1099
l 1099 1100
l 1100 1101
l 1101 1102
l 1102 1103
l 1103 1104
l 1104 1105
l 1105 1106
l 1106 1107
l 1107 1108
l 1108 1109
l 1109 164
