v 83.432869 300.732391 -0.002989
v 83.768486 301.082123 0.013746
v 84.293846 301.546112 -0.000023
v 84.771057 302.048676 -0.000023
v 85.268250 302.537537 -0.000023
v 85.785240 303.012756 -0.000023
v 86.321869 303.474274 -0.000023
v 86.877975 303.922089 -0.000023
v 87.453392 304.356232 -0.000023
v 88.047951 304.776672 -0.000023
v 88.661484 305.183380 -0.000023
v 89.293823 305.576416 -0.000023
v 89.944801 305.955719 -0.000023
v 90.614265 306.321320 -0.000023
v 91.302032 306.673187 -0.000023
v 92.007942 307.011322 -0.000023
v 92.731834 307.335754 -0.000023
v 94.232887 307.943329 -0.000023
v 95.803856 308.495972 -0.000023
v 97.443405 308.993530 -0.000023
v 99.150223 309.436066 -0.000023
v 100.922958 309.823486 -0.000023
v 102.760292 310.155731 -0.000023
v 104.660896 310.432831 -0.000023
v 106.623436 310.654694 -0.000023
v 108.646584 310.821289 -0.000023
v 110.729012 310.932587 -0.000023
v 112.869385 310.988556 -0.000023
v 115.066383 310.989136 -0.000023
v 117.318665 310.934296 -0.000023
v 119.624908 310.824005 -0.000023
v 121.983772 310.658234 -0.000023
v 124.393944 310.436920 -0.000023
v 126.854088 310.160034 -0.000023
v 129.362869 309.827515 -0.000023
v 131.918945 309.439362 -0.000023
v 134.521027 308.995544 -0.000023
v 137.167740 308.495972 -0.000023
v 139.857773 307.940613 -0.000023
v 142.589813 307.329498 -0.000023
v 145.362503 306.662506 -0.000023
v 148.174515 305.939636 -0.000023
v 151.024551 305.160828 -0.000023
v 153.911240 304.326080 -0.000023
v 156.833282 303.435333 -0.000023
v 159.789322 302.488525 -0.000023
v 162.778061 301.485657 -0.000023
v 165.798141 300.426666 -0.000023
v 168.848236 299.311523 -0.000023
v 171.927032 298.140167 -0.000023
v 175.033203 296.912598 -0.000022
v 178.165390 295.628754 -0.000022
v 181.322296 294.288605 -0.000022
v 184.502563 292.892090 -0.000022
v 187.704880 291.439178 -0.000022
v 190.927902 289.929871 -0.000022
v 194.170319 288.364075 -0.000022
v 197.430771 286.741760 -0.000022
v 200.707962 285.062927 -0.000022
v 204.000549 283.327484 -0.000021
v 207.307205 281.535431 -0.000021
v 210.626587 279.686707 -0.000021
v 213.957382 277.781281 -0.000021
v 217.298248 275.819122 -0.000021
v 220.647858 273.800201 -0.000021
v 224.004883 271.724426 -0.000021
v 227.367996 269.591827 -0.000020
v 230.735855 267.402313 -0.000020
v 234.107147 265.155884 -0.000020
v 237.480545 262.852478 -0.000020
v 240.854706 260.492035 -0.000020
v 244.228302 258.074554 -0.000019
v 247.600006 255.600006 -0.000019
v 247.600006 255.600006 -0.000019
v 253.940781 250.819519 -0.000019
v 260.079803 246.043671 -0.000019
v 266.013947 241.277100 -0.000018
v 271.740051 236.524414 -0.000018
v 277.254974 231.790268 -0.000017
v 282.555634 227.079269 -0.000017
v 287.638885 222.396072 -0.000017
v 292.501556 217.745316 -0.000016
v 297.140564 213.131607 -0.000016
v 301.552765 208.559601 -0.000016
v 305.735016 204.033905 -0.000015
v 309.684174 199.559174 -0.000015
v 313.397156 195.140045 -0.000015
v 316.870789 190.781128 -0.000014
v 318.516876 188.625702 -0.000014
v 320.101929 186.487076 -0.000014
v 321.625610 184.365814 -0.000014
v 323.087494 182.262497 -0.000014
v 324.487213 180.177719 -0.000014
v 325.824341 178.112045 -0.000013
v 327.098480 176.066071 -0.000013
v 328.309296 174.040359 -0.000013
v 329.456360 172.035492 -0.000013
v 330.539276 170.052048 -0.000013
v 331.557678 168.090607 -0.000013
v 332.511139 166.151764 -0.000013
v 333.399292 164.236069 -0.000012
v 334.221741 162.344116 -0.000012
v 334.978088 160.476486 -0.000012
v 335.667938 158.633759 -0.000012
v 336.290924 156.816513 -0.000012
v 336.846649 155.025330 -0.000012
v 337.334686 153.260773 -0.000012
v 337.754700 151.523438 -0.000011
v 338.106232 149.813904 -0.000011
v 338.388947 148.132736 -0.000011
v 338.602448 146.480515 -0.000011
v 338.746307 144.857834 -0.000011
v 338.820160 143.265274 -0.000011
v 338.823639 141.703384 -0.000011
v 338.756287 140.172775 -0.000011
v 338.617767 138.674026 -0.000010
v 338.407684 137.207687 -0.000010
v 338.125610 135.774368 -0.000010
v 337.957458 135.070267 -0.000010
v 337.771179 134.374634 -0.000010
v 337.566711 133.687531 -0.000010
v 337.344025 133.009064 -0.000010
v 337.103027 132.339264 -0.000010
v 336.843719 131.678223 -0.000010
v 336.566010 131.026031 -0.000010
v 336.269867 130.382721 -0.000010
v 335.955231 129.748398 -0.000010
v 335.622101 129.123123 -0.000010
v 335.270355 128.506958 -0.000010
v 334.899994 127.900002 -0.000010
v 334.899994 127.900002 -0.000010
v 335.083008 128.237701 -0.000010
v 335.257812 128.576569 -0.000010
v 335.425598 128.917770 -0.000010
v 335.587494 129.262497 -0.000010
v 335.744720 129.611908 -0.000010
v 335.898438 129.967194 -0.000010
v 336.049805 130.329498 -0.000010
v 336.200012 130.699997 -0.000010
v 336.200012 130.699997 -0.000010
v 336.095886 130.508209 -0.000010
v 336.004700 130.309372 -0.000010
v 335.920502 130.105865 -0.000010
v 335.837494 129.899994 -0.000010
v 335.749817 129.694138 -0.000010
v 335.651550 129.490631 -0.000010
v 335.536926 129.291794 -0.000010
v 335.399994 129.100006 -0.000010
v 335.399994 129.100006 -0.000010
v 335.030701 128.579422 -0.000010
v 334.644806 128.072372 -0.000010
v 334.242432 127.578796 -0.000010
v 333.823669 127.098671 -0.000010
v 333.388641 126.631966 -0.000010
v 332.937531 126.178650 -0.000010
v 332.470367 125.738686 -0.000009
v 331.987366 125.312035 -0.000009
v 331.488556 124.898674 -0.000009
v 330.974152 124.498566 -0.000009
v 330.444214 124.111687 -0.000009
v 329.898865 123.737984 -0.000009
v 329.338257 123.377441 -0.000009
v 328.762512 123.030022 -0.000009
v 328.171722 122.695686 -0.000009
v 327.566010 122.374413 -0.000009
v 326.310394 121.770897 -0.000009
v 324.996582 121.219215 -0.000009
v 323.625610 120.719101 -0.000009
v 322.198395 120.270287 -0.000009
v 320.715942 119.872513 -0.000009
v 319.179230 119.525520 -0.000009
v 317.589203 119.229042 -0.000009
v 315.946869 118.982811 -0.000009
v 314.253204 118.786568 -0.000009
v 312.509155 118.640053 -0.000009
v 310.715729 118.542999 -0.000009
v 308.873871 118.495140 -0.000009
v 306.984589 118.496216 -0.000009
v 305.048828 118.545967 -0.000009
v 303.067566 118.644127 -0.000009
v 301.041809 118.790428 -0.000009
v 298.972473 118.984612 -0.000009
v 296.860596 119.226418 -0.000009
v 294.707123 119.515579 -0.000009
v 292.513031 119.851830 -0.000009
v 290.279297 120.234909 -0.000009
v 288.006897 120.664558 -0.000009
v 285.696808 121.140511 -0.000009
v 283.350006 121.662498 -0.000009
v 278.550140 122.843544 -0.000009
v 273.615082 124.205589 -0.000009
v 268.552673 125.746529 -0.000009
v 263.370697 127.464256 -0.000010
v 258.076965 129.356674 -0.000010
v 252.679245 131.421661 -0.000010
v 247.185364 133.657120 -0.000010
v 241.603119 136.060944 -0.000010
v 235.940308 138.631027 -0.000010
v 230.204742 141.365265 -0.000011
v 224.404190 144.261551 -0.000011
v 218.546478 147.317780 -0.000011
v 212.639404 150.531845 -0.000011
v 206.690765 153.901642 -0.000012
v 200.708374 157.425064 -0.000012
v 194.699997 161.100006 -0.000012
v 194.699997 161.100006 -0.000012
v 198.892288 158.993729 -0.000012
v 203.047684 156.988129 -0.000012
v 207.162094 155.084274 -0.000012
v 211.231445 153.283203 -0.000012
v 215.251648 151.585999 -0.000011
v 219.218628 149.993698 -0.000011
v 223.128296 148.507385 -0.000011
v 226.976562 147.128128 -0.000011
v 230.759354 145.856964 -0.000011
v 234.472580 144.694977 -0.000011
v 238.112167 143.643204 -0.000011
v 241.674026 142.702728 -0.000011
v 245.154068 141.874619 -0.000011
v 248.548218 141.159912 -0.000011
v 251.852386 140.559692 -0.000011
v 255.062500 140.074997 -0.000011
v 258.174469 139.706909 -0.000011
v 261.184204 139.456497 -0.000011
v 262.649475 139.375732 -0.000011
v 264.087616 139.324799 -0.000011
v 265.498199 139.303802 -0.000011
v 266.880676 139.312897 -0.000011
v 268.234497 139.352188 -0.000011
v 269.559204 139.421829 -0.000011
v 270.854279 139.521957 -0.000011
v 272.119202 139.652679 -0.000011
v 273.353485 139.814163 -0.000011
v 274.556580 140.006516 -0.000011
v 275.727966 140.229874 -0.000011
v 276.867188 140.484375 -0.000011
v 277.973694 140.770157 -0.000011
v 279.046997 141.087341 -0.000011
v 280.086578 141.436066 -0.000011
v 281.091919 141.816452 -0.000011
v 282.062531 142.228653 -0.000011
v 282.997864 142.672791 -0.000011
v 283.897430 143.149002 -0.000011
v 284.760742 143.657425 -0.000011
v 285.587250 144.198166 -0.000011
v 286.376465 144.771393 -0.000011
v 287.127899 145.377213 -0.000011
v 287.841003 146.015778 -0.000011
v 288.515259 146.687195 -0.000011
v 289.150177 147.391617 -0.000011
v 289.745270 148.129181 -0.000011
v 290.299988 148.899994 -0.000011
v 290.299988 148.899994 -0.000011
v 290.630615 149.409164 -0.000011
v 290.942810 149.928757 -0.000011
v 291.236664 150.458679 -0.000011
v 291.512268 150.998825 -0.000011
v 291.769684 151.549072 -0.000011
v 292.009003 152.109299 -0.000011
v 292.230316 152.679428 -0.000012
v 292.433655 153.259323 -0.000012
v 292.619171 153.848892 -0.000012
v 292.786865 154.447998 -0.000012
v 292.936859 155.056549 -0.000012
v 293.069244 155.674438 -0.000012
v 293.184052 156.301559 -0.000012
v 293.281403 156.937775 -0.000012
v 293.361389 157.582993 -0.000012
v 293.424011 158.237106 -0.000012
v 293.497681 159.571564 -0.000012
v 293.503052 160.940247 -0.000012
v 293.440735 162.342300 -0.000012
v 293.311340 163.776810 -0.000012
v 293.115570 165.242905 -0.000012
v 292.853973 166.739700 -0.000013
v 292.527222 168.266327 -0.000013
v 292.135925 169.821869 -0.000013
v 291.680756 171.405487 -0.000013
v 291.162292 173.016251 -0.000013
v 290.581177 174.653305 -0.000013
v 289.938049 176.315765 -0.000013
v 289.233551 178.002747 -0.000013
v 288.468292 179.713364 -0.000014
v 287.642883 181.446716 -0.000014
v 286.757996 183.201950 -0.000014
v 285.814240 184.978165 -0.000014
v 284.812256 186.774475 -0.000014
v 283.752655 188.590012 -0.000014
v 282.636047 190.423874 -0.000014
v 281.463135 192.275192 -0.000015
v 280.234467 194.143066 -0.000015
v 278.950714 196.026642 -0.000015
v 277.612488 197.925003 -0.000015
v 274.775208 201.762589 -0.000015
v 271.727600 205.648773 -0.000016
v 268.474762 209.576492 -0.000016
v 265.021667 213.538666 -0.000016
v 261.373413 217.528244 -0.000016
v 257.534973 221.538132 -0.000017
v 253.511444 225.561279 -0.000017
v 249.307816 229.590622 -0.000017
v 244.929138 233.619080 -0.000018
v 240.380447 237.639603 -0.000018
v 235.666779 241.645096 -0.000018
v 230.793167 245.628510 -0.000019
v 225.764648 249.582779 -0.000019
v 220.586258 253.500824 -0.000019
v 215.263031 257.375580 -0.000019
v 209.800003 261.200012 -0.000020
v 209.800003 261.200012 -0.000020
v 205.103088 264.380829 -0.000020
v 200.409500 267.453766 -0.000020
v 195.724289 270.417480 -0.000020
v 191.052536 273.270691 -0.000021
v 186.399323 276.012177 -0.000021
v 181.769699 278.640564 -0.000021
v 177.168762 281.154663 -0.000021
v 172.601562 283.553131 -0.000021
v 168.073181 285.834686 -0.000022
v 163.588699 287.998108 -0.000022
v 159.153168 290.042023 -0.000022
v 154.771683 291.965240 -0.000022
v 150.449295 293.766418 -0.000022
v 146.191086 295.444275 -0.000022
v 142.002136 296.997589 -0.000022
v 137.887497 298.424988 -0.000023
v 133.852264 299.725281 -0.000023
v 129.901489 300.897125 -0.000023
v 126.040253 301.939240 -0.000023
v 122.273636 302.850403 -0.000023
v 118.606689 303.629242 -0.000023
v 115.044510 304.274567 -0.000023
v 113.304283 304.546722 -0.000023
v 111.592148 304.785034 -0.000023
v 109.908737 304.989288 -0.000023
v 108.254684 305.159363 -0.000023
v 106.630630 305.295105 -0.000023
v 105.037201 305.396332 -0.000023
v 103.475029 305.462860 -0.000023
v 101.944748 305.494568 -0.000023
v 100.447006 305.491302 -0.000023
v 98.982422 305.452881 -0.000023
v 97.551628 305.379120 -0.000023
v 96.155273 305.269928 -0.000023
v 94.793983 305.125092 -0.000023
v 93.468384 304.944427 -0.000023
v 92.179123 304.727844 -0.000023
v 90.926834 304.475159 -0.000023
v 89.712135 304.186157 -0.000023
v 88.535675 303.860748 -0.000023
v 87.398087 303.498749 -0.000023
v 86.300003 303.100006 -0.000023
v 86.300003 303.100006 -0.000023
v 85.672073 302.640442 -0.000023
v 85.064064 302.160950 -0.000023
v 84.477150 301.660339 -0.000023
v 83.912498 301.137512 -0.000023
v 83.371292 300.591217 -0.000023
v 82.854691 300.020325 -0.000023
v 82.363869 299.423645 -0.000023
v 81.900002 298.799988 -0.000023
v 81.900002 298.799988 -0.000023
v 82.054489 299.024994 -0.000023
v 82.217186 299.250000 -0.000023
v 82.386917 299.475006 -0.000023
v 82.562500 299.700012 -0.000023
v 82.742775 299.924988 -0.000023
v 82.926559 300.149994 -0.000023
v 83.112694 300.375000 -0.000023
v 83.300003 300.600006 -0.000023
v 346.000000 147.600006 -0.000011
v 345.800140 149.037781 -0.000011
v 345.556946 150.491562 -0.000011
v 345.270538 151.961136 -0.000011
v 344.941101 153.446213 -0.000012
v 344.568756 154.946579 -0.000012
v 344.153656 156.461990 -0.000012
v 343.695984 157.992172 -0.000012
v 343.195892 159.536911 -0.000012
v 342.653534 161.095947 -0.000012
v 342.069031 162.669052 -0.000012
v 341.442535 164.255951 -0.000012
v 340.774231 165.856415 -0.000013
v 340.064270 167.470215 -0.000013
v 339.312805 169.097076 -0.000013
v 338.519989 170.736771 -0.000013
v 337.685944 172.389069 -0.000013
v 335.894867 175.730408 -0.000013
v 333.940796 179.119171 -0.000014
v 331.824982 182.553360 -0.000014
v 329.548645 186.031052 -0.000014
v 327.112976 189.550278 -0.000014
v 324.519257 193.109055 -0.000015
v 321.768677 196.705460 -0.000015
v 318.862488 200.337494 -0.000015
v 315.801910 204.003235 -0.000015
v 312.588165 207.700714 -0.000016
v 309.222473 211.427948 -0.000016
v 305.706055 215.183014 -0.000016
v 302.040161 218.963913 -0.000017
v 298.226013 222.768723 -0.000017
v 294.264801 226.595474 -0.000017
v 290.157806 230.442184 -0.000017
v 285.906250 234.306931 -0.000018
v 281.511292 238.187714 -0.000018
v 276.974243 242.082611 -0.000018
v 272.296295 245.989655 -0.000019
v 267.478668 249.906860 -0.000019
v 262.522583 253.832306 -0.000019
v 257.429291 257.764008 -0.000019
v 252.199997 261.700012 -0.000020
v 252.199997 261.700012 -0.000020
v 246.775269 265.648956 -0.000020
v 241.324020 269.469788 -0.000020
v 235.852570 273.160950 -0.000021
v 230.367188 276.720886 -0.000021
v 224.874191 280.148041 -0.000021
v 219.379883 283.440857 -0.000021
v 213.890549 286.597748 -0.000022
v 208.412506 289.617188 -0.000022
v 202.952026 292.497620 -0.000022
v 197.515427 295.237488 -0.000022
v 192.109009 297.835205 -0.000022
v 186.739059 300.289246 -0.000023
v 181.411896 302.598053 -0.000023
v 176.133789 304.760071 -0.000023
v 170.911057 306.773743 -0.000023
v 165.750000 308.637512 -0.000023
v 160.656906 310.349792 -0.000023
v 155.638092 311.909058 -0.000024
v 150.699829 313.313751 -0.000024
v 145.848434 314.562317 -0.000024
v 141.090210 315.653168 -0.000024
v 136.431442 316.584778 -0.000024
v 134.141327 316.990387 -0.000024
v 131.878448 317.355591 -0.000024
v 129.643570 317.680237 -0.000024
v 127.437500 317.964050 -0.000024
v 125.261017 318.206909 -0.000024
v 123.114914 318.408600 -0.000024
v 120.999977 318.568909 -0.000024
v 118.916992 318.687683 -0.000024
v 116.866745 318.764679 -0.000024
v 114.850021 318.799713 -0.000024
v 112.867615 318.792603 -0.000024
v 110.920311 318.743164 -0.000024
v 109.008896 318.651184 -0.000024
v 107.134155 318.516479 -0.000024
v 105.296875 318.338837 -0.000024
v 103.497849 318.118103 -0.000024
v 101.737862 317.854034 -0.000024
v 100.017700 317.546448 -0.000024
v 98.338150 317.195160 -0.000024
v 96.699997 316.799988 -0.000024
v 96.699997 316.799988 -0.000024
v 99.006859 319.140869 -0.000024
v 101.361008 321.419556 -0.000024
v 103.761269 323.635864 -0.000024
v 106.206444 325.789612 -0.000025
v 108.695343 327.880585 -0.000025
v 111.226784 329.908569 -0.000025
v 113.799561 331.873383 -0.000025
v 116.412498 333.774811 -0.000025
v 119.064400 335.612640 -0.000025
v 121.754074 337.386658 -0.000025
v 124.480339 339.096680 -0.000026
v 127.241989 340.742493 -0.000026
v 130.037857 342.323914 -0.000026
v 132.866730 343.840729 -0.000026
v 135.727417 345.292725 -0.000026
v 138.618744 346.679688 -0.000026
v 141.539520 348.001434 -0.000026
v 144.488556 349.257751 -0.000026
v 147.464645 350.448456 -0.000026
v 150.466599 351.573303 -0.000027
v 153.493240 352.632141 -0.000027
v 156.543381 353.624725 -0.000027
v 159.615829 354.550873 -0.000027
v 162.709381 355.410339 -0.000027
v 165.822845 356.203003 -0.000027
v 168.955048 356.928589 -0.000027
v 172.104797 357.586884 -0.000027
v 175.270905 358.177765 -0.000027
v 178.452164 358.700958 -0.000027
v 181.647385 359.156281 -0.000027
v 184.855392 359.543518 -0.000027
v 188.074997 359.862488 -0.000027
v 191.305008 360.112976 -0.000027
v 194.544220 360.294800 -0.000027
v 197.791443 360.407715 -0.000027
v 201.045502 360.451538 -0.000027
v 204.305206 360.426056 -0.000027
v 207.569366 360.331085 -0.000027
v 210.836777 360.166412 -0.000027
v 214.106247 359.931824 -0.000027
v 217.376602 359.627136 -0.000027
v 220.646652 359.252136 -0.000027
v 223.915207 358.806610 -0.000027
v 227.181061 358.290344 -0.000027
v 230.443024 357.703186 -0.000027
v 233.699921 357.044861 -0.000027
v 236.950562 356.315247 -0.000027
v 240.193756 355.514069 -0.000027
v 243.428299 354.641144 -0.000027
v 246.653000 353.696289 -0.000027
v 249.866684 352.679291 -0.000027
v 253.068161 351.589905 -0.000027
v 256.256226 350.428009 -0.000026
v 259.429718 349.193329 -0.000026
v 262.587402 347.885681 -0.000026
v 265.728119 346.504883 -0.000026
v 268.850677 345.050720 -0.000026
v 271.953888 343.522949 -0.000026
v 275.036530 341.921417 -0.000026
v 278.097473 340.245911 -0.000026
v 281.135468 338.496216 -0.000026
v 284.149353 336.672150 -0.000025
v 287.137909 334.773468 -0.000025
v 290.100006 332.799988 -0.000025
v 290.100006 332.799988 -0.000025
v 293.000214 330.767578 -0.000025
v 295.841278 328.683594 -0.000025
v 298.622925 326.549225 -0.000025
v 301.344971 324.365631 -0.000024
v 304.007111 322.133972 -0.000024
v 306.609100 319.855469 -0.000024
v 309.150696 317.531250 -0.000024
v 311.631653 315.162506 -0.000024
v 314.051697 312.750397 -0.000024
v 316.410583 310.296082 -0.000023
v 318.708069 307.800781 -0.000023
v 320.943909 305.265625 -0.000023
v 323.117828 302.691803 -0.000023
v 325.229584 300.080475 -0.000023
v 327.278931 297.432800 -0.000022
v 329.265625 294.750000 -0.000022
v 331.189392 292.033203 -0.000022
v 333.050018 289.283600 -0.000022
v 334.847198 286.502350 -0.000022
v 336.580719 283.690613 -0.000021
v 338.250305 280.849609 -0.000021
v 339.855743 277.980469 -0.000021
v 341.396729 275.084381 -0.000021
v 342.873047 272.162506 -0.000021
v 344.284424 269.216003 -0.000020
v 345.630646 266.246094 -0.000020
v 346.911407 263.253906 -0.000020
v 348.126526 260.240631 -0.000020
v 349.275665 257.207428 -0.000019
v 350.358643 254.155472 -0.000019
v 351.375153 251.085938 -0.000019
v 352.325012 248.000000 -0.000019
v 353.207886 244.898834 -0.000018
v 354.023590 241.783600 -0.000018
v 354.771851 238.655472 -0.000018
v 355.452393 235.515625 -0.000018
v 356.065002 232.365234 -0.000018
v 356.609406 229.205475 -0.000017
v 357.085327 226.037506 -0.000017
v 357.492584 222.862503 -0.000017
v 357.830872 219.681641 -0.000017
v 358.099945 216.496094 -0.000016
v 358.299530 213.307037 -0.000016
v 358.429443 210.115631 -0.000016
v 358.489380 206.923050 -0.000016
v 358.479095 203.730469 -0.000015
v 358.398346 200.539062 -0.000015
v 358.246887 197.350006 -0.000015
v 358.024445 194.164459 -0.000015
v 357.730774 190.983597 -0.000014
v 357.365631 187.808594 -0.000014
v 356.928772 184.640625 -0.000014
v 356.419922 181.480865 -0.000014
v 355.838837 178.330475 -0.000013
v 355.185272 175.190628 -0.000013
v 354.458984 172.062500 -0.000013
v 353.659698 168.947266 -0.000013
v 352.787201 165.846100 -0.000013
v 351.841187 162.760162 -0.000012
v 350.821442 159.690628 -0.000012
v 349.727692 156.638672 -0.000012
v 348.559723 153.605469 -0.000012
v 347.317230 150.592194 -0.000011
v 346.000000 147.600006 -0.000011
v 147.800003 138.300003 -0.000010
v 153.137329 134.405548 -0.000010
v 158.513519 130.635788 -0.000010
v 163.921722 126.992378 -0.000010
v 169.355072 123.476952 -0.000009
v 174.806747 120.091171 -0.000009
v 180.269867 116.836670 -0.000009
v 185.737610 113.715103 -0.000009
v 191.203125 110.728127 -0.000008
v 196.659546 107.877373 -0.000008
v 202.100052 105.164505 -0.000008
v 207.517761 102.591156 -0.000008
v 212.905853 100.158981 -0.000008
v 218.257477 97.869637 -0.000007
v 223.565765 95.724754 -0.000007
v 228.823898 93.725998 -0.000007
v 234.024994 91.875000 -0.000007
v 239.162231 90.173416 -0.000007
v 244.228760 88.622902 -0.000007
v 249.217712 87.225090 -0.000007
v 254.122269 85.981644 -0.000006
v 258.935547 84.894196 -0.000006
v 263.650726 83.964401 -0.000006
v 265.969391 83.559143 -0.000006
v 268.260956 83.193916 -0.000006
v 270.524567 82.868927 -0.000006
v 272.759369 82.584373 -0.000006
v 274.964508 82.340477 -0.000006
v 277.139130 82.137436 -0.000006
v 279.282379 81.975449 -0.000006
v 281.393402 81.854736 -0.000006
v 283.471344 81.775497 -0.000006
v 285.515320 81.737930 -0.000006
v 287.524506 81.742256 -0.000006
v 289.498047 81.788673 -0.000006
v 291.435059 81.877388 -0.000006
v 293.334717 82.008598 -0.000006
v 295.196167 82.182526 -0.000006
v 297.018494 82.399368 -0.000006
v 298.800934 82.659325 -0.000006
v 300.542542 82.962616 -0.000006
v 302.242523 83.309441 -0.000006
v 303.899994 83.699997 -0.000006
v 303.899994 83.699997 -0.000006
v 301.597321 81.322006 -0.000006
v 299.246338 79.006912 -0.000006
v 296.848267 76.754921 -0.000006
v 294.404358 74.566238 -0.000006
v 291.915741 72.441063 -0.000005
v 289.383698 70.379601 -0.000005
v 286.809448 68.382057 -0.000005
v 284.194153 66.448631 -0.000005
v 281.539032 64.579536 -0.000005
v 278.845337 62.774967 -0.000005
v 276.114258 61.035130 -0.000005
v 273.347015 59.360229 -0.000004
v 270.544830 57.750469 -0.000004
v 267.708893 56.206051 -0.000004
v 264.840424 54.727180 -0.000004
v 261.940613 53.314064 -0.000004
v 259.010742 51.966900 -0.000004
v 256.051971 50.685890 -0.000004
v 253.065506 49.471249 -0.000004
v 250.052582 48.323170 -0.000004
v 247.014420 47.241859 -0.000004
v 243.952209 46.227524 -0.000003
v 240.867188 45.280365 -0.000003
v 237.760544 44.400585 -0.000003
v 234.633514 43.588390 -0.000003
v 231.487289 42.843987 -0.000003
v 228.323090 42.167572 -0.000003
v 225.142136 41.559349 -0.000003
v 221.945633 41.019531 -0.000003
v 218.734802 40.548313 -0.000003
v 215.510864 40.145901 -0.000003
v 212.274994 39.812500 -0.000003
v 209.028442 39.548313 -0.000003
v 205.772415 39.353542 -0.000003
v 202.508118 39.228394 -0.000003
v 199.236771 39.173073 -0.000003
v 195.959579 39.187778 -0.000003
v 192.677750 39.272713 -0.000003
v 189.392517 39.428089 -0.000003
v 186.105072 39.654102 -0.000003
v 182.816650 39.950958 -0.000003
v 179.528442 40.318863 -0.000003
v 176.241684 40.758018 -0.000003
v 172.957565 41.268627 -0.000003
v 169.677322 41.850895 -0.000003
v 166.402145 42.505028 -0.000003
v 163.133255 43.231224 -0.000003
v 159.871872 44.029686 -0.000003
v 156.619202 44.900627 -0.000003
v 153.376465 45.844242 -0.000003
v 150.144882 46.860737 -0.000004
v 146.925629 47.950317 -0.000004
v 143.719955 49.113186 -0.000004
v 140.529068 50.349545 -0.000004
v 137.354172 51.659599 -0.000004
v 134.196487 53.043556 -0.000004
v 131.057220 54.501614 -0.000004
v 127.937576 56.033974 -0.000004
v 124.838791 57.640850 -0.000004
v 121.762062 59.322437 -0.000004
v 118.708603 61.078941 -0.000005
v 115.679634 62.910568 -0.000005
v 112.676361 64.817520 -0.000005
v 109.699997 66.800003 -0.000005
v 109.699997 66.800003 -0.000005
v 106.790642 68.832565 -0.000005
v 103.940857 70.916985 -0.000005
v 101.150894 73.052078 -0.000006
v 98.420998 75.236671 -0.000006
v 95.751411 77.469582 -0.000006
v 93.142395 79.749641 -0.000006
v 90.594185 82.075668 -0.000006
v 88.107033 84.446487 -0.000006
v 85.681183 86.860916 -0.000007
v 83.316879 89.317795 -0.000007
v 81.014381 91.815926 -0.000007
v 78.773926 94.354149 -0.000007
v 76.595764 96.931282 -0.000007
v 74.480141 99.546150 -0.000008
v 72.427299 102.197571 -0.000008
v 70.437500 104.884377 -0.000008
v 68.510979 107.605385 -0.000008
v 66.647987 110.359421 -0.000008
v 64.848770 113.145302 -0.000009
v 63.113575 115.961868 -0.000009
v 61.442650 118.807922 -0.000009
v 59.836243 121.682304 -0.000009
v 58.294601 124.583832 -0.000009
v 56.817970 127.511330 -0.000010
v 55.406597 130.463623 -0.000010
v 54.060730 133.439514 -0.000010
v 52.780617 136.437866 -0.000010
v 51.566505 139.457474 -0.000011
v 50.418640 142.497162 -0.000011
v 49.337269 145.555771 -0.000011
v 48.322639 148.632111 -0.000011
v 47.375000 151.725006 -0.000011
v 46.494598 154.833282 -0.000012
v 45.681679 157.955750 -0.000012
v 44.936489 161.091263 -0.000012
v 44.259277 164.238617 -0.000012
v 43.650291 167.396652 -0.000013
v 43.109779 170.564194 -0.000013
v 42.637985 173.740051 -0.000013
v 42.235157 176.923050 -0.000013
v 41.901543 180.112015 -0.000014
v 41.637390 183.305786 -0.000014
v 41.442947 186.503159 -0.000014
v 41.318459 189.702972 -0.000014
v 41.264172 192.904068 -0.000015
v 41.280334 196.105225 -0.000015
v 41.367195 199.305313 -0.000015
v 41.525002 202.503128 -0.000015
v 41.753998 205.697495 -0.000016
v 42.054432 208.887253 -0.000016
v 42.426552 212.071213 -0.000016
v 42.870605 215.248199 -0.000016
v 43.386841 218.417038 -0.000016
v 43.975502 221.576538 -0.000017
v 44.636837 224.725555 -0.000017
v 45.371094 227.862885 -0.000017
v 46.178520 230.987366 -0.000017
v 47.059364 234.097824 -0.000018
v 48.013870 237.193069 -0.000018
v 49.042286 240.271927 -0.000018
v 50.144859 243.333221 -0.000018
v 51.321838 246.375793 -0.000019
v 52.573471 249.398438 -0.000019
v 53.900002 252.399994 -0.000019
v 53.900002 252.399994 -0.000019
v 54.099854 250.962219 -0.000019
v 54.343060 249.508438 -0.000019
v 54.629471 248.038864 -0.000019
v 54.958935 246.553787 -0.000019
v 55.331303 245.053421 -0.000019
v 55.746418 243.538010 -0.000018
v 56.204132 242.007828 -0.000018
v 56.704296 240.463089 -0.000018
v 57.246758 238.904053 -0.000018
v 57.831367 237.330948 -0.000018
v 58.457970 235.744049 -0.000018
v 59.126415 234.143585 -0.000018
v 59.836555 232.529785 -0.000018
v 60.588238 230.902924 -0.000017
v 61.381313 229.263229 -0.000017
v 62.215626 227.610931 -0.000017
v 64.007370 224.269592 -0.000017
v 65.962257 220.880829 -0.000017
v 68.079086 217.446640 -0.000016
v 70.356644 213.968948 -0.000016
v 72.793716 210.449722 -0.000016
v 75.389114 206.890945 -0.000016
v 78.141609 203.294540 -0.000015
v 81.050003 199.662506 -0.000015
v 84.113083 195.996765 -0.000015
v 87.329636 192.299286 -0.000015
v 90.698471 188.572052 -0.000014
v 94.218361 184.816986 -0.000014
v 97.888107 181.036087 -0.000014
v 101.706497 177.231277 -0.000013
v 105.672318 173.404526 -0.000013
v 109.784378 169.557816 -0.000013
v 114.041451 165.693069 -0.000013
v 118.442337 161.812286 -0.000012
v 122.985825 157.917389 -0.000012
v 127.670700 154.010345 -0.000012
v 132.495773 150.093140 -0.000011
v 137.459808 146.167694 -0.000011
v 142.561630 142.236008 -0.000011
v 147.800003 138.300003 -0.000010
v 152.300003 144.399994 -0.000011
v 145.977371 149.171112 -0.000011
v 139.855316 153.937592 -0.000012
v 133.936951 158.694855 -0.000012
v 128.225388 163.438278 -0.000012
v 122.723740 168.163239 -0.000013
v 117.435104 172.865143 -0.000013
v 112.362617 177.539337 -0.000013
v 107.509377 182.181244 -0.000014
v 102.878494 186.786240 -0.000014
v 98.473099 191.349701 -0.000014
v 94.296280 195.867035 -0.000015
v 90.351173 200.333588 -0.000015
v 86.640877 204.744781 -0.000015
v 83.168503 209.095993 -0.000016
v 81.522514 211.247665 -0.000016
v 79.937180 213.382599 -0.000016
v 78.412872 215.500244 -0.000016
v 76.949997 217.600006 -0.000016
v 75.548943 219.681305 -0.000017
v 74.210091 221.743561 -0.000017
v 72.933830 223.786224 -0.000017
v 71.720558 225.808685 -0.000017
v 70.570656 227.810394 -0.000017
v 69.484512 229.790756 -0.000017
v 68.462524 231.749207 -0.000017
v 67.505081 233.685150 -0.000018
v 66.612556 235.598038 -0.000018
v 65.785355 237.487274 -0.000018
v 65.023865 239.352280 -0.000018
v 64.328468 241.192474 -0.000018
v 63.699554 243.007309 -0.000018
v 63.137520 244.796173 -0.000018
v 62.642746 246.558517 -0.000019
v 62.215626 248.293747 -0.000019
v 61.856548 250.001297 -0.000019
v 61.565899 251.680573 -0.000019
v 61.344074 253.331024 -0.000019
v 61.191456 254.952057 -0.000019
v 61.108437 256.543091 -0.000019
v 61.095406 258.103546 -0.000019
v 61.152748 259.632874 -0.000020
v 61.280861 261.130463 -0.000020
v 61.480125 262.595764 -0.000020
v 61.750935 264.028198 -0.000020
v 61.913288 264.731873 -0.000020
v 62.093678 265.427155 -0.000020
v 62.292145 266.113922 -0.000020
v 62.508739 266.792084 -0.000020
v 62.743515 267.461609 -0.000020
v 62.996517 268.122406 -0.000020
v 63.267792 268.774414 -0.000020
v 63.557392 269.417572 -0.000020
v 63.865364 270.051758 -0.000020
v 64.191757 270.676941 -0.000020
v 64.536621 271.293060 -0.000020
v 64.900002 271.899994 -0.000021
v 64.900002 271.899994 -0.000021
v 64.716995 271.558014 -0.000021
v 64.542191 271.207825 -0.000020
v 64.374413 270.850586 -0.000020
v 64.212502 270.487488 -0.000020
v 64.055275 270.119720 -0.000020
v 63.901562 269.748444 -0.000020
v 63.750195 269.374817 -0.000020
v 63.599998 269.000000 -0.000020
v 63.599998 269.000000 -0.000020
v 63.675194 269.158600 -0.000020
v 63.751564 269.331238 -0.000020
v 63.830273 269.513275 -0.000020
v 63.912498 269.700012 -0.000020
v 63.999413 269.886719 -0.000020
v 64.092186 270.068756 -0.000020
v 64.191994 270.241394 -0.000020
v 64.300003 270.399994 -0.000020
v 64.300003 270.399994 -0.000020
v 64.669289 270.920563 -0.000020
v 65.055183 271.427643 -0.000020
v 65.457573 271.921204 -0.000021
v 65.876335 272.401337 -0.000021
v 66.311348 272.868042 -0.000021
v 66.762482 273.321350 -0.000021
v 67.229622 273.761322 -0.000021
v 67.712646 274.187958 -0.000021
v 68.211433 274.601318 -0.000021
v 68.725853 275.001434 -0.000021
v 69.255791 275.388306 -0.000021
v 69.801132 275.762024 -0.000021
v 70.361740 276.122559 -0.000021
v 70.937500 276.469971 -0.000021
v 71.528290 276.804321 -0.000021
v 72.133987 277.125580 -0.000021
v 73.389618 277.729095 -0.000021
v 74.703415 278.280792 -0.000021
v 76.074402 278.780914 -0.000021
v 77.501610 279.229706 -0.000021
v 78.984062 279.627472 -0.000021
v 80.520782 279.974487 -0.000021
v 82.110794 280.270966 -0.000021
v 83.753128 280.517181 -0.000021
v 85.446800 280.713440 -0.000021
v 87.190842 280.859955 -0.000021
v 88.984276 280.957001 -0.000021
v 90.826126 281.004852 -0.000021
v 92.715416 281.003784 -0.000021
v 94.651176 280.954041 -0.000021
v 96.632431 280.855865 -0.000021
v 98.658203 280.709564 -0.000021
v 100.727516 280.515381 -0.000021
v 102.839401 280.273590 -0.000021
v 104.992874 279.984436 -0.000021
v 107.186966 279.648163 -0.000021
v 109.420700 279.265076 -0.000021
v 111.693100 278.835449 -0.000021
v 114.003189 278.359497 -0.000021
v 116.349998 277.837494 -0.000021
v 121.149872 276.656464 -0.000021
v 126.084915 275.294403 -0.000021
v 131.147324 273.753479 -0.000021
v 136.329300 272.035736 -0.000021
v 141.623047 270.143341 -0.000020
v 147.020752 268.078339 -0.000020
v 152.514633 265.842896 -0.000020
v 158.096878 263.439056 -0.000020
v 163.759689 260.868988 -0.000020
v 169.495270 258.134735 -0.000019
v 175.295807 255.238449 -0.000019
v 181.153519 252.182220 -0.000019
v 187.060593 248.968155 -0.000019
v 193.009232 245.598358 -0.000019
v 198.991638 242.074936 -0.000018
v 205.000000 238.399994 -0.000018
v 205.000000 238.399994 -0.000018
v 200.807709 240.506546 -0.000018
v 196.652313 242.512970 -0.000018
v 192.537903 244.418121 -0.000018
v 188.468552 246.220901 -0.000019
v 184.448349 247.920181 -0.000019
v 180.481369 249.514862 -0.000019
v 176.571701 251.003830 -0.000019
v 172.723434 252.385941 -0.000019
v 168.940643 253.660095 -0.000019
v 165.227417 254.825165 -0.000019
v 161.587830 255.880051 -0.000019
v 158.025970 256.823639 -0.000019
v 154.545929 257.654785 -0.000019
v 151.151779 258.372375 -0.000020
v 147.847610 258.975342 -0.000020
v 144.637497 259.462494 -0.000020
v 141.525528 259.832764 -0.000020
v 138.515793 260.085022 -0.000020
v 137.050537 260.166565 -0.000020
v 135.612366 260.218170 -0.000020
v 134.201797 260.239716 -0.000020
v 132.819336 260.231049 -0.000020
v 131.465500 260.192047 -0.000020
v 130.140778 260.122589 -0.000020
v 128.845703 260.022491 -0.000020
v 127.580788 259.891632 -0.000020
v 126.346527 259.729858 -0.000020
v 125.143433 259.537079 -0.000020
v 123.972031 259.313110 -0.000020
v 122.832809 259.057800 -0.000020
v 121.726303 258.771057 -0.000020
v 120.653000 258.452728 -0.000020
v 119.613426 258.102631 -0.000019
v 118.608078 257.720673 -0.000019
v 117.637482 257.306702 -0.000019
v 116.702141 256.860565 -0.000019
v 115.802559 256.382141 -0.000019
v 114.939255 255.871292 -0.000019
v 114.112740 255.327850 -0.000019
v 113.323517 254.751709 -0.000019
v 112.572105 254.142700 -0.000019
v 111.859009 253.500702 -0.000019
v 111.184738 252.825577 -0.000019
v 110.549805 252.117172 -0.000019
v 109.954727 251.375366 -0.000019
v 109.400002 250.600006 -0.000019
v 109.400002 250.600006 -0.000019
v 109.069405 250.093170 -0.000019
v 108.757271 249.575851 -0.000019
v 108.463501 249.048187 -0.000019
v 108.188019 248.510254 -0.000019
v 107.930756 247.962189 -0.000019
v 107.691628 247.404099 -0.000019
v 107.470558 246.836075 -0.000019
v 107.267456 246.258255 -0.000019
v 107.082253 245.670731 -0.000019
v 106.914871 245.073608 -0.000019
v 106.765221 244.467010 -0.000018
v 106.633232 243.851044 -0.000018
v 106.518822 243.225815 -0.000018
v 106.421913 242.591446 -0.000018
v 106.342422 241.948044 -0.000018
v 106.280273 241.295700 -0.000018
v 106.207687 239.964691 -0.000018
v 106.203514 238.599304 -0.000018
v 106.267120 237.200409 -0.000018
v 106.397873 235.768890 -0.000018
v 106.595146 234.305649 -0.000018
v 106.858292 232.811569 -0.000018
v 107.186684 231.287506 -0.000017
v 107.579689 229.734375 -0.000017
v 108.036667 228.153046 -0.000017
v 108.556992 226.544388 -0.000017
v 109.140022 224.909317 -0.000017
v 109.785133 223.248688 -0.000017
v 110.491684 221.563385 -0.000017
v 111.259033 219.854309 -0.000017
v 112.086563 218.122345 -0.000016
v 112.973633 216.368362 -0.000016
v 113.919609 214.593246 -0.000016
v 114.923851 212.797882 -0.000016
v 115.985733 210.983154 -0.000016
v 117.104614 209.149948 -0.000016
v 118.279869 207.299149 -0.000016
v 119.510857 205.431641 -0.000016
v 120.796944 203.548294 -0.000015
v 122.137497 201.649994 -0.000015
v 124.979477 197.812119 -0.000015
v 128.031708 193.925049 -0.000015
v 131.289139 189.995865 -0.000014
v 134.746674 186.031647 -0.000014
v 138.399261 182.039429 -0.000014
v 142.241821 178.026321 -0.000013
v 146.269272 173.999359 -0.000013
v 150.476562 169.965622 -0.000013
v 154.858597 165.932190 -0.000013
v 159.410324 161.906097 -0.000012
v 164.126663 157.894455 -0.000012
v 169.002533 153.904297 -0.000012
v 174.032883 149.942703 -0.000011
v 179.212616 146.016754 -0.000011
v 184.536682 142.133484 -0.000011
v 190.000000 138.300003 -0.000010
v 190.000000 138.300003 -0.000010
v 194.687820 135.128235 -0.000010
v 199.372894 132.063812 -0.000010
v 204.050140 129.108017 -0.000010
v 208.714447 126.262108 -0.000010
v 213.360748 123.527390 -0.000009
v 217.983932 120.905128 -0.000009
v 222.578918 118.396614 -0.000009
v 227.140625 116.003128 -0.000009
v 231.663940 113.725945 -0.000009
v 236.143799 111.566360 -0.000008
v 240.575089 109.525642 -0.000008
v 244.952728 107.605080 -0.000008
v 249.271637 105.805954 -0.000008
v 253.526703 104.129539 -0.000008
v 257.712860 102.577133 -0.000008
v 261.825012 101.150002 -0.000008
v 265.858032 99.849434 -0.000008
v 269.806885 98.676712 -0.000007
v 273.666443 97.633110 -0.000007
v 277.431641 96.719925 -0.000007
v 281.097382 95.938423 -0.000007
v 284.658539 95.289894 -0.000007
v 286.398346 95.015892 -0.000007
v 288.110077 94.775620 -0.000007
v 289.793121 94.569221 -0.000007
v 291.446869 94.396873 -0.000007
v 293.070648 94.258728 -0.000007
v 294.663849 94.154953 -0.000007
v 296.225800 94.085693 -0.000007
v 297.755920 94.051125 -0.000007
v 299.253510 94.051399 -0.000007
v 300.717957 94.086678 -0.000007
v 302.148651 94.157120 -0.000007
v 303.544922 94.262894 -0.000007
v 304.906158 94.404144 -0.000007
v 306.231689 94.581047 -0.000007
v 307.520935 94.793755 -0.000007
v 308.773193 95.042435 -0.000007
v 309.987885 95.327232 -0.000007
v 311.164337 95.648323 -0.000007
v 312.301910 96.005859 -0.000007
v 313.399994 96.400002 -0.000007
v 313.399994 96.400002 -0.000007
v 314.032227 96.892380 -0.000007
v 314.651550 97.395309 -0.000007
v 315.254486 97.909958 -0.000007
v 315.837494 98.437500 -0.000007
v 316.397064 98.979103 -0.000007
v 316.929688 99.535934 -0.000008
v 317.431824 100.109177 -0.000008
v 317.899994 100.699997 -0.000008
v 317.899994 100.699997 -0.000008
v 317.787506 100.550003 -0.000008
v 317.674988 100.400002 -0.000008
v 317.562500 100.250000 -0.000008
v 317.450012 100.099998 -0.000008
v 317.337494 99.949997 -0.000008
v 317.225006 99.800003 -0.000008
v 317.112488 99.650002 -0.000008
v 317.000000 99.500000 -0.000008
v 317.000000 99.500000 -0.000008
v 316.542328 98.979378 -0.000007
v 316.064697 98.472198 -0.000007
v 315.567291 97.978477 -0.000007
v 315.050293 97.498215 -0.000007
v 314.513824 97.031418 -0.000007
v 313.958069 96.578094 -0.000007
v 313.383209 96.138252 -0.000007
v 312.789368 95.711891 -0.000007
v 312.176758 95.299026 -0.000007
v 311.545502 94.899658 -0.000007
v 310.895782 94.513794 -0.000007
v 310.227783 94.141449 -0.000007
v 308.837494 93.437309 -0.000007
v 307.375977 92.787308 -0.000007
v 305.844513 92.191483 -0.000007
v 304.244446 91.649887 -0.000007
v 302.577087 91.162582 -0.000007
v 300.843719 90.729614 -0.000007
v 299.045685 90.351036 -0.000007
v 297.184265 90.026909 -0.000007
v 295.260773 89.757271 -0.000007
v 293.276550 89.542191 -0.000007
v 291.232910 89.381706 -0.000007
v 289.131104 89.275879 -0.000007
v 286.972534 89.224754 -0.000007
v 284.758423 89.228394 -0.000007
v 282.490143 89.286842 -0.000007
v 280.168976 89.400162 -0.000007
v 277.796234 89.568398 -0.000007
v 275.373230 89.791603 -0.000007
v 272.901306 90.069832 -0.000007
v 270.381744 90.403137 -0.000007
v 267.815857 90.791565 -0.000007
v 265.204956 91.235184 -0.000007
v 262.550354 91.734032 -0.000007
v 259.853394 92.288162 -0.000007
v 257.115326 92.897636 -0.000007
v 254.337494 93.562500 -0.000007
v 251.521225 94.282806 -0.000007
v 248.667816 95.058617 -0.000007
v 245.778564 95.889969 -0.000007
v 242.854813 96.776932 -0.000007
v 239.897842 97.719543 -0.000007
v 236.908981 98.717865 -0.000007
v 233.889542 99.771942 -0.000008
v 230.840820 100.881836 -0.000008
v 227.764145 102.047592 -0.000008
v 224.660812 103.269272 -0.000008
v 221.532150 104.546921 -0.000008
v 218.379471 105.880592 -0.000008
v 215.204071 107.270340 -0.000008
v 212.007263 108.716217 -0.000008
v 208.790359 110.218269 -0.000008
v 205.554688 111.776566 -0.000008
v 202.301544 113.391144 -0.000009
v 199.032242 115.062057 -0.000009
v 195.748093 116.789368 -0.000009
v 192.450409 118.573120 -0.000009
v 189.140518 120.413368 -0.000009
v 185.819702 122.310173 -0.000009
v 182.489288 124.263573 -0.000009
v 179.150589 126.273636 -0.000010
v 175.804916 128.340393 -0.000010
v 172.453568 130.463928 -0.000010
v 169.097870 132.644272 -0.000010
v 165.739136 134.881470 -0.000010
v 162.378662 137.175598 -0.000010
v 159.017776 139.526688 -0.000011
v 155.657791 141.934799 -0.000011
v 152.300003 144.399994 -0.000011
l 1 2
l 2 3
l 3 4
l 4 5
l 5 6
l 6 7
l 7 8
l 8 9
l 9 10
l 10 11
l 11 12
l 12 13
l 13 14
l 14 15
l 15 16
l 16 17
l 17 18
l 18 19
l 19 20
l 20 21
l 21 22
l 22 23
l 23 24
l 24 25
l 25 26
l 26 27
l 27 28
l 28 29
l 29 30
l 30 31
l 31 32
l 32 33
l 33 34
l 34 35
l 35 36
l 36 37
l 37 38
l 38 39
l 39 40
l 40 41
l 41 42
l 42 43
l 43 44
l 44 45
l 45 46
l 46 47
l 47 48
l 48 49
l 49 50
l 50 51
l 51 52
l 52 53
l 53 54
l 54 55
l 55 56
l 56 57
l 57 58
l 58 59
l 59 60
l 60 61
l 61 62
l 62 63
l 63 64
l 64 65
l 65 66
l 66 67
l 67 68
l 68 69
l 69 70
l 70 71
l 71 72
l 72 73
l 74 75
l 75 76
l 76 77
l 77 78
l 78 79
l 79 80
l 80 81
l 81 82
l 82 83
l 83 84
l 84 85
l 85 86
l 86 87
l 87 88
l 88 89
l 89 90
l 90 91
l 91 92
l 92 93
l 93 94
l 94 95
l 95 96
l 96 97
l 97 98
l 98 99
l 99 100
l 100 101
l 101 102
l 102 103
l 103 104
l 104 105
l 105 106
l 106 107
l 107 108
l 108 109
l 109 110
l 110 111
l 111 112
l 112 113
l 113 114
l 114 115
l 115 116
l 116 117
l 117 118
l 118 119
l 119 120
l 120 121
l 121 122
l 122 123
l 123 124
l 124 125
l 125 126
l 126 127
l 127 128
l 128 129
l 129 130
l 131 132
l 132 133
l 133 134
l 134 135
l 135 136
l 136 137
l 137 138
l 138 139
l 140 141
l 141 142
l 142 143
l 143 144
l 144 145
l 145 146
l 146 147
l 147 148
l 149 150
l 150 151
l 151 152
l 152 153
l 153 154
l 154 155
l 155 156
l 156 157
l 157 158
l 158 159
l 159 160
l 160 161
l 161 162
l 162 163
l 163 164
l 164 165
l 165 166
l 166 167
l 167 168
l 168 169
l 169 170
l 170 171
l 171 172
l 172 173
l 173 174
l 174 175
l 175 176
l 176 177
l 177 178
l 178 179
l 179 180
l 180 181
l 181 182
l 182 183
l 183 184
l 184 185
l 185 186
l 186 187
l 187 188
l 188 189
l 189 190
l 190 191
l 191 192
l 192 193
l 193 194
l 194 195
l 195 196
l 196 197
l 197 198
l 198 199
l 199 200
l 200 201
l 201 202
l 202 203
l 203 204
l 204 205
l 206 207
l 207 208
l 208 209
l 209 210
l 210 211
l 211 212
l 212 213
l 213 214
l 214 215
l 215 216
l 216 217
l 217 218
l 218 219
l 219 220
l 220 221
l 221 222
l 222 223
l 223 224
l 224 225
l 225 226
l 226 227
l 227 228
l 228 229
l 229 230
l 230 231
l 231 232
l 232 233
l 233 234
l 234 235
l 235 236
l 236 237
l 237 238
l 238 239
l 239 240
l 240 241
l 241 242
l 242 243
l 243 244
l 244 245
l 245 246
l 246 247
l 247 248
l 248 249
l 249 250
l 250 251
l 251 252
l 253 254
l 254 255
l 255 256
l 256 257
l 257 258
l 258 259
l 259 260
l 260 261
l 261 262
l 262 263
l 263 264
l 264 265
l 265 266
l 266 267
l 267 268
l 268 269
l 269 270
l 270 271
l 271 272
l 272 273
l 273 274
l 274 275
l 275 276
l 276 277
l 277 278
l 278 279
l 279 280
l 280 281
l 281 282
l 282 283
l 283 284
l 284 285
l 285 286
l 286 287
l 287 288
l 288 289
l 289 290
l 290 291
l 291 292
l 292 293
l 293 294
l 294 295
l 295 296
l 296 297
l 297 298
l 298 299
l 299 300
l 300 301
l 301 302
l 302 303
l 303 304
l 304 305
l 305 306
l 306 307
l 307 308
l 308 309
l 310 311
l 311 312
l 312 313
l 313 314
l 314 315
l 315 316
l 316 317
l 317 318
l 318 319
l 319 320
l 320 321
l 321 322
l 322 323
l 323 324
l 324 325
l 325 326
l 326 327
l 327 328
l 328 329
l 329 330
l 330 331
l 331 332
l 332 333
l 333 334
l 334 335
l 335 336
l 336 337
l 337 338
l 338 339
l 339 340
l 340 341
l 341 342
l 342 343
l 343 344
l 344 345
l 345 346
l 346 347
l 347 348
l 348 349
l 349 350
l 350 351
l 351 352
l 353 354
l 354 355
l 355 356
l 356 357
l 357 358
l 358 359
l 359 360
l 360 361
l 362 363
l 363 364
l 364 365
l 365 366
l 366 367
l 367 368
l 368 369
l 369 370
l 1 370
l 371 372
l 372 373
l 373 374
l 374 375
l 375 376
l 376 377
l 377 378
l 378 379
l 379 380
l 380 381
l 381 382
l 382 383
l 383 384
l 384 385
l 385 386
l 386 387
l 387 388
l 388 389
l 389 390
l 390 391
l 391 392
l 392 393
l 393 394
l 394 395
l 395 396
l 396 397
l 397 398
l 398 399
l 399 400
l 400 401
l 401 402
l 402 403
l 403 404
l 404 405
l 405 406
l 406 407
l 407 408
l 408 409
l 409 410
l 410 411
l 412 413
l 413 414
l 414 415
l 415 416
l 416 417
l 417 418
l 418 419
l 419 420
l 420 421
l 421 422
l 422 423
l 423 424
l 424 425
l 425 426
l 426 427
l 427 428
l 428 429
l 429 430
l 430 431
l 431 432
l 432 433
l 433 434
l 434 435
l 435 436
l 436 437
l 437 438
l 438 439
l 439 440
l 440 441
l 441 442
l 442 443
l 443 444
l 444 445
l 445 446
l 446 447
l 447 448
l 448 449
l 449 450
l 450 451
l 451 452
l 452 453
l 453 454
l 455 456
l 456 457
l 457 458
l 458 459
l 459 460
l 460 461
l 461 462
l 462 463
l 463 464
l 464 465
l 465 466
l 466 467
l 467 468
l 468 469
l 469 470
l 470 471
l 471 472
l 472 473
l 473 474
l 474 475
l 475 476
l 476 477
l 477 478
l 478 479
l 479 480
l 480 481
l 481 482
l 482 483
l 483 484
l 484 485
l 485 486
l 486 487
l 487 488
l 488 489
l 489 490
l 490 491
l 491 492
l 492 493
l 493 494
l 494 495
l 495 496
l 496 497
l 497 498
l 498 499
l 499 500
l 500 501
l 501 502
l 502 503
l 503 504
l 504 505
l 505 506
l 506 507
l 507 508
l 508 509
l 509 510
l 510 511
l 511 512
l 512 513
l 513 514
l 514 515
l 515 516
l 516 517
l 517 518
l 518 519
l 520 521
l 521 522
l 522 523
l 523 524
l 524 525
l 525 526
l 526 527
l 527 528
l 528 529
l 529 530
l 530 531
l 531 532
l 532 533
l 533 534
l 534 535
l 535 536
l 536 537
l 537 538
l 538 539
l 539 540
l 540 541
l 541 542
l 542 543
l 543 544
l 544 545
l 545 546
l 546 547
l 547 548
l 548 549
l 549 550
l 550 551
l 551 552
l 552 553
l 553 554
l 554 555
l 555 556
l 556 557
l 557 558
l 558 559
l 559 560
l 560 561
l 561 562
l 562 563
l 563 564
l 564 565
l 565 566
l 566 567
l 567 568
l 568 569
l 569 570
l 570 571
l 571 572
l 572 573
l 573 574
l 574 575
l 575 576
l 576 577
l 577 578
l 578 579
l 579 580
l 580 581
l 581 582
l 582 583
l 583 584
l 585 586
l 586 587
l 587 588
l 588 589
l 589 590
l 590 591
l 591 592
l 592 593
l 593 594
l 594 595
l 595 596
l 596 597
l 597 598
l 598 599
l 599 600
l 600 601
l 601 602
l 602 603
l 603 604
l 604 605
l 605 606
l 606 607
l 607 608
l 608 609
l 609 610
l 610 611
l 611 612
l 612 613
l 613 614
l 614 615
l 615 616
l 616 617
l 617 618
l 618 619
l 619 620
l 620 621
l 621 622
l 622 623
l 623 624
l 624 625
l 625 626
l 626 627
l 628 629
l 629 630
l 630 631
l 631 632
l 632 633
l 633 634
l 634 635
l 635 636
l 636 637
l 637 638
l 638 639
l 639 640
l 640 641
l 641 642
l 642 643
l 643 644
l 644 645
l 645 646
l 646 647
l 647 648
l 648 649
l 649 650
l 650 651
l 651 652
l 652 653
l 653 654
l 654 655
l 655 656
l 656 657
l 657 658
l 658 659
l 659 660
l 660 661
l 661 662
l 662 663
l 663 664
l 664 665
l 665 666
l 666 667
l 667 668
l 668 669
l 669 670
l 670 671
l 671 672
l 672 673
l 673 674
l 674 675
l 675 676
l 676 677
l 677 678
l 678 679
l 679 680
l 680 681
l 681 682
l 682 683
l 683 684
l 684 685
l 685 686
l 686 687
l 687 688
l 688 689
l 689 690
l 690 691
l 691 692
l 693 694
l 694 695
l 695 696
l 696 697
l 697 698
l 698 699
l 699 700
l 700 701
l 701 702
l 702 703
l 703 704
l 704 705
l 705 706
l 706 707
l 707 708
l 708 709
l 709 710
l 710 711
l 711 712
l 712 713
l 713 714
l 714 715
l 715 716
l 716 717
l 717 718
l 718 719
l 719 720
l 720 721
l 721 722
l 722 723
l 723 724
l 724 725
l 725 726
l 726 727
l 727 728
l 728 729
l 729 730
l 730 731
l 731 732
l 732 733
l 733 734
l 734 735
l 735 736
l 736 737
l 737 738
l 738 739
l 739 740
l 740 741
l 741 742
l 742 743
l 743 744
l 744 745
l 745 746
l 746 747
l 747 748
l 748 749
l 749 750
l 750 751
l 751 752
l 752 753
l 753 754
l 754 755
l 755 756
l 756 757
l 758 759
l 759 760
l 760 761
l 761 762
l 762 763
l 763 764
l 764 765
l 765 766
l 766 767
l 767 768
l 768 769
l 769 770
l 770 771
l 771 772
l 772 773
l 773 774
l 774 775
l 775 776
l 776 777
l 777 778
l 778 779
l 779 780
l 780 781
l 781 782
l 782 783
l 783 784
l 784 785
l 785 786
l 786 787
l 787 788
l 788 789
l 789 790
l 790 791
l 791 792
l 792 793
l 793 794
l 794 795
l 795 796
l 796 797
l 797 798
l 799 800
l 800 801
l 801 802
l 802 803
l 803 804
l 804 805
l 805 806
l 806 807
l 807 808
l 808 809
l 809 810
l 810 811
l 811 812
l 812 813
l 813 814
l 814 815
l 815 816
l 816 817
l 817 818
l 818 819
l 819 820
l 820 821
l 821 822
l 822 823
l 823 824
l 824 825
l 825 826
l 826 827
l 827 828
l 828 829
l 829 830
l 830 831
l 831 832
l 832 833
l 833 834
l 834 835
l 835 836
l 836 837
l 837 838
l 838 839
l 839 840
l 840 841
l 841 842
l 842 843
l 843 844
l 844 845
l 845 846
l 846 847
l 847 848
l 848 849
l 849 850
l 850 851
l 851 852
l 852 853
l 853 854
l 854 855
l 856 857
l 857 858
l 858 859
l 859 860
l 860 861
l 861 862
l 862 863
l 863 864
l 865 866
l 866 867
l 867 868
l 868 869
l 869 870
l 870 871
l 871 872
l 872 873
l 874 875
l 875 876
l 876 877
l 877 878
l 878 879
l 879 880
l 880 881
l 881 882
l 882 883
l 883 884
l 884 885
l 885 886
l 886 887
l 887 888
l 888 889
l 889 890
l 890 891
l 891 892
l 892 893
l 893 894
l 894 895
l 895 896
l 896 897
l 897 898
l 898 899
l 899 900
l 900 901
l 901 902
l 902 903
l 903 904
l 904 905
l 905 906
l 906 907
l 907 908
l 908 909
l 909 910
l 910 911
l 911 912
l 912 913
l 913 914
l 914 915
l 915 916
l 916 917
l 917 918
l 918 919
l 919 920
l 920 921
l 921 922
l 922 923
l 923 924
l 924 925
l 925 926
l 926 927
l 927 928
l 928 929
l 929 930
l 931 932
l 932 933
l 933 934
l 934 935
l 935 936
l 936 937
l 937 938
l 938 939
l 939 940
l 940 941
l 941 942
l 942 943
l 943 944
l 944 945
l 945 946
l 946 947
l 947 948
l 948 949
l 949 950
l 950 951
l 951 952
l 952 953
l 953 954
l 954 955
l 955 956
l 956 957
l 957 958
l 958 959
l 959 960
l 960 961
l 961 962
l 962 963
l 963 964
l 964 965
l 965 966
l 966 967
l 967 968
l 968 969
l 969 970
l 970 971
l 971 972
l 972 973
l 973 974
l 974 975
l 975 976
l 976 977
l 978 979
l 979 980
l 980 981
l 981 982
l 982 983
l 983 984
l 984 985
l 985 986
l 986 987
l 987 988
l 988 989
l 989 990
l 990 991
l 991 992
l 992 993
l 993 994
l 994 995
l 995 996
l 996 997
l 997 998
l 998 999
l 999 1000
l 1000 1001
l 1001 1002
l 1002 1003
l 1003 1004
l 1004 1005
l 1005 1006
l 1006 1007
l 1007 1008
l 1008 1009
l 1009 1010
l 1010 1011
l 1011 1012
l 1012 1013
l 1013 1014
l 1014 1015
l 1015 1016
l 1016 1017
l 1017 1018
l 1018 1019
l 1019 1020
l 1020 1021
l 1021 1022
l 1022 1023
l 1023 1024
l 1024 1025
l 1025 1026
l 1026 1027
l 1027 1028
l 1028 1029
l 1029 1030
l 1030 1031
l 1031 1032
l 1032 1033
l 1033 1034
l 1035 1036
l 1036 1037
l 1037 1038
l 1038 1039
l 1039 1040
l 1040 1041
l 1041 1042
l 1042 1043
l 1043 1044
l 1044 1045
l 1045 1046
l 1046 1047
l 1047 1048
l 1048 1049
l 1049 1050
l 1050 1051
l 1051 1052
l 1052 1053
l 1053 1054
l 1054 1055
l 1055 1056
l 1056 1057
l 1057 1058
l 1058 1059
l 1059 1060
l 1060 1061
l 1061 1062
l 1062 1063
l 1063 1064
l 1064 1065
l 1065 1066
l 1066 1067
l 1067 1068
l 1068 1069
l 1069 1070
l 1070 1071
l 1071 1072
l 1072 1073
l 1073 1074
l 1074 1075
l 1075 1076
l 1076 1077
l 1078 1079
l 1079 1080
l 1080 1081
l 1081 1082
l 1082 1083
l 1083 1084
l 1084 1085
l 1085 1086
l 1087 1088
l 1088 1089
l 1089 1090
l 1090 1091
l 1091 1092
l 1092 1093
l 1093 1094
l 1094 1095
l 1096 1097
l 1097 1098
l 1098 1099
l 1099 1100
l 1100 1101
l 1101 1102
l 1102 1103
l 1103 1104
l 1104 1105
l 1105 1106
l 1106 1107
l 1107 1108
l 1108 1109
l 1109 1110
l 1110 1111
l 1111 1112
l 1112 1113
l 1113 1114
l 1114 1115
l 1115 1116
l 1116 1117
l 1117 1118
l 1118 1119
l 1119 1120
l 1120 1121
l 1121 1122
l 1122 1123
l 1123 1124
l 1124 1125
l 1125 1126
l 1126 1127
l 1127 1128
l 1128 1129
l 1129 1130
l 1130 1131
l 1131 1132
l 1132 1133
l 1133 1134
l 1134 1135
l 1135 1136
l 1136 1137
l 1137 1138
l 1138 1139
l 1139 1140
l 1140 1141
l 1141 1142
l 1142 1143
l 1143 1144
l 1144 1145
l 1145 1146
l 1146 1147
l 1147 1148
l 1148 1149
l 1149 1150
l 1150 1151
l 1151 1152
l 1152 1153
l 1153 1154
l 1154 1155
l 1155 1156
l 1156 1157
l 1157 1158
l 1158 1159
l 1159 1160
l 1160 1161
l 1161 1162
l 1162 1163
l 1163 1164
l 1164 1165
l 1165 1166
