OFF
718 779 0
0.8855034 46.1 -13.14042 
0.5355033 32.1 -13.14042 
0.5355033 46.1 -13.14042 
15.6855 18.1 -13.14042 
17.3855 32.1 -13.14042 
17.3855 18.1 -13.14042 
15.5355 18.1 -13.14042 
15.6855 32.1 -13.14042 
32.8355 48 -13.14042 
32.8355 0.7 -13.14042 
32.8355 51.2 -13.14042 
17.5355 -1.3 -13.14042 
32.5355 50 -13.14042 
32.5355 -1.3 -13.14042 
17.5355 51.2 -13.14042 
17.3855 0.7 -13.14042 
17.3855 48 -13.14042 
17.3855 51.2 -13.14042 
15.6855 51.2 -13.14042 
15.6855 48 -13.14042 
15.5355 46.1 -13.14042 
15.5355 32.1 -13.14042 
13.5355 46.1 -13.14042 
15.5355 49.7 -13.14042 
2.535503 44.1 -13.14042 
0.8855034 46.1 -13.14042 
2.535503 46.1 -13.14042 
0.8855034 48 -13.14042 
0.8855034 49.7 -13.14042 
15.5355 32.1 -13.14042 
15.5355 18.1 -13.14042 
13.5355 46.1 -14.64042 
15.5355 46.1 -13.14042 
13.5355 46.1 -13.14042 
13.5355 6.1 -13.14042 
2.535503 6.1 -14.64042 
13.5355 6.1 -14.64042 
2.535503 44.1 -13.14042 
2.535503 6.1 -13.14042 
15.5355 4.1 -14.64042 
0.5355033 4.1 -13.14042 
15.5355 4.1 -13.14042 
0.5355033 4.1 -14.64042 
-15.4645 0.2 -13.14042 
-13.4645 4.1 -13.14042 
-0.8144966 0.2 -13.14042 
-15.4645 -1 -13.14042 
-15.4645 18.1 -13.14042 
-15.4645 4.1 -13.14042 
-15.6145 -1 -13.14042 
-15.6145 2.2 -13.14042 
-2.464497 44.1 -13.14042 
-13.4645 44.1 -13.14042 
0.5355033 32.1 -13.14042 
0.03550335 49.7 -13.14042 
0.5355033 46.1 -13.14042 
-0.4644966 32.1 -13.14042 
-0.8144966 46.1 -13.14042 
-0.8144966 48 -13.14042 
-32.7645 -1 -13.14042 
-32.4645 51.2 -13.14042 
-32.4645 -1 -13.14042 
-32.7645 2.2 -13.14042 
-32.7645 49.5 -13.14042 
-32.7645 51.2 -13.14042 
-17.3145 32.1 -13.14042 
-17.3145 18.1 -13.14042 
-17.3145 49.5 -13.14042 
-17.4645 -1 -13.14042 
-17.4645 0.2 -13.14042 
-17.4645 51.2 -13.14042 
-32.4645 0.2 -13.14042 
-15.6145 18.1 -13.14042 
-15.6145 32.1 -13.14042 
-15.4645 32.1 -13.14042 
-2.464497 44.1 -14.64042 
-2.464497 4.1 -13.14042 
-2.464497 4.1 -14.64042 
-0.4644966 4.1 -14.64042 
-0.4644966 4.1 -13.14042 
-0.4644966 18.1 -13.14042 
-15.4645 46.1 -13.14042 
-0.4644966 46.1 -13.14042 
-0.8144966 46.1 -13.14042 
-15.4645 46.1 -14.64042 
-15.4645 18.1 -13.14042 
-15.4645 32.1 -13.14042 
-15.4645 4.1 -13.14042 
-15.4645 4.1 -14.64042 
-13.4645 4.1 -14.64042 
-13.4645 44.1 -13.14042 
-2.464497 44.1 -13.14042 
-15.6145 49.5 -13.14042 
-16.4645 51.2 -13.14042 
-17.3145 44.12723 1.154751 
-17.3145 49.5 -13.14042 
-17.3145 49.5 1.154751 
15.6855 32.1 -13.14042 
16.5355 49.7 -13.14042 
17.3855 32.1 -13.14042 
15.6855 48 -13.14042 
15.6855 48 -13.14042 
16.5355 49.7 1.154751 
16.5355 49.7 -13.14042 
33.6855 -1 -13.14042 
-5.464508 51.5 -3.692848 
-9.471059 53.2 -3.692848 
-9.471059 51.5 -3.692848 
17.5355 50 -13.14042 
32.5355 51.7 -13.14042 
32.5355 50 -13.14042 
17.5355 51.2 -13.14042 
17.5355 51.7 -13.14042 
0.8855034 49.7 -13.14042 
15.5355 51.7 -13.14042 
15.5355 49.7 -13.14042 
-32.4645 51.2 -13.14042 
-17.4645 53.2 -13.14042 
-17.4645 51.2 -13.14042 
-0.8144966 48 1.154751 
-0.8144966 32.1 -13.14042 
-0.8144966 46.1 -13.14042 
-0.8144966 18.1 -13.14042 
-0.8144966 2.2 1.154751 
-0.8144966 4.1 -13.14042 
-0.4644966 46.1 -14.64042 
-0.8144966 2.2 -13.14042 
-0.4644966 32.1 -13.14042 
-0.8144966 18.1 -13.14042 
-0.8144966 32.1 -13.14042 
46.5355 38.2 -5.640425 
46.5355 48.2 -8.140425 
46.5355 48.2 -5.640425 
-9.471059 51.5 -7.186253 
-5.464508 53.2 -7.186253 
-5.464508 51.5 -7.186253 
17.3855 44.15117 1.154751 
17.3855 48 1.154751 
45.0355 38.2 -8.140425 
45.0355 48.2 -8.140425 
-5.464508 53.2 -3.692848 
42.5355 38.2 -5.640425 
45.0355 38.2 -8.140425 
42.5355 38.2 -8.140425 
46.5355 -10 -14.64042 
46.5355 60.2 -14.64042 
2.535503 44.1 -14.64042 
2.535503 46.1 -14.64042 
-0.4644966 32.1 -14.64042 
0.5355033 46.1 -14.64042 
-0.4644966 18.1 -14.64042 
2.535503 6.1 -13.14042 
-46.4645 -10 -14.64042 
-46.4645 60.2 -14.64042 
-0.8144966 4.1 -13.14042 
0.03550335 0.5 -13.14042 
-0.8144966 2.2 1.154751 
-0.8144966 2.2 -13.14042 
-16.4645 0.5 -13.14042 
-15.6145 2.2 1.154751 
-15.6145 2.2 -13.14042 
-16.4645 51.2 -13.14042 
-16.4645 0.5 1.154751 
0.5355033 49.7 -13.14042 
-16.4645 0.5 -13.14042 
15.6855 6.072771 1.154751 
15.6855 0.7 -13.14042 
15.6855 0.7 1.154751 
-0.4644966 4.1 -13.14042 
0.5355033 18.1 -13.14042 
0.03550335 0.5 -13.14042 
33.6855 49.7 1.154751 
33.6855 -1 1.154751 
34.5355 0.7 1.154751 
32.8355 48 1.154751 
46.5355 48.2 -5.640425 
45.0355 48.2 -8.140425 
42.5355 48.2 -8.140425 
0.5355033 4.1 -13.14042 
0.8855034 2.2 -13.14042 
46.5355 48.2 -8.140425 
42.5355 48.2 -13.14042 
0.5355033 51.7 -13.14042 
45.0355 38.2 -13.14042 
45.0355 48.2 -13.14042 
46.5355 38.2 -8.140425 
46.5355 38.2 -5.640425 
-32.7645 49.5 1.154751 
-33.6145 51.2 -13.14042 
-33.6145 51.2 1.154751 
32.5355 51.2 -13.14042 
-32.7645 49.5 -13.14042 
-32.7645 2.2 1.154751 
-34.4645 49.5 1.154751 
-33.6145 0.5 1.154751 
-15.6145 6.048837 1.154751 
-17.3145 2.2 1.154751 
17.3855 6.072771 1.154751 
16.5355 -1 1.154751 
17.3855 0.7 1.154751 
-15.4645 51.5 -13.14042 
-0.4644966 53.2 -13.14042 
-0.8144966 51.5 -13.14042 
-32.7645 49.5 1.154751 
-32.7645 2.2 1.154751 
-32.7645 2.2 -13.14042 
-33.6145 0.5 -13.14042 
-34.4645 2.2 1.154751 
-34.4645 2.2 -13.14042 
-0.4644966 18.1 -13.14042 
-0.4644966 18.1 -13.14042 
-0.4644966 32.1 -14.64042 
-0.4644966 32.1 -13.14042 
-0.4644966 18.1 -14.64042 
-13.4645 44.1 -14.64042 
17.3855 48 -13.14042 
17.3855 44.15117 1.154751 
17.3855 48 1.154751 
17.3855 32.1 -13.14042 
27.5355 -1.3 -3.20594 
32.5355 -1.3 -13.14042 
23.51561 -1.3 -3.20594 
17.5355 -1.3 1.154751 
23.51561 -1.3 -0.4551949 
0.03550335 49.7 -13.14042 
0.8855034 48 1.154751 
0.8855034 48 -13.14042 
-15.4645 51.5 1.154751 
-9.471059 51.5 -3.692848 
-0.4644966 51.5 1.154751 
-9.471059 51.5 -7.186253 
-15.4645 51.5 -13.14042 
-5.464508 51.5 -7.186253 
-5.464508 51.5 -3.692848 
-0.8144966 51.5 -13.14042 
17.3855 48 -13.14042 
-44.9645 18.1 6.859575 
-44.9645 15.1 -8.140425 
-44.9645 15.1 6.859575 
-44.9645 32.1 6.859575 
-47.4645 32.1 -8.140425 
-44.9645 32.1 -8.140425 
-16.4645 51.2 1.154751 
-15.6145 44.12723 1.154751 
-15.6145 49.5 1.154751 
32.5355 50 -13.14042 
27.53549 50 -7.186253 
32.5355 50 1.154751 
-0.8144966 2.2 -13.14042 
23.52894 50 -7.186253 
17.5355 50 -13.14042 
17.5355 50 1.154751 
-0.8144966 4.1 -13.14042 
-0.4644966 18.1 -13.14042 
-0.4644966 4.1 -13.14042 
-44.9645 18.1 6.859575 
-44.9645 18.1 -8.140425 
-47.4645 18.1 -8.140425 
-0.4644966 0.2 -13.14042 
0.03550335 0.5 -13.14042 
-0.4644966 -1 -13.14042 
-0.8144966 2.2 -13.14042 
-0.4644966 51.5 -13.14042 
-0.8144966 48 -13.14042 
-0.8144966 51.5 -13.14042 
0.8855034 4.1 -13.14042 
0.8855034 2.2 1.154751 
15.5355 -1.3 1.154751 
9.542066 -1.3 -3.692848 
0.5355033 -1.3 1.154751 
9.542066 -1.3 -7.186253 
15.5355 -1.3 -13.14042 
5.535514 -1.3 -7.186253 
5.535514 -1.3 -3.692848 
-0.4644966 0.2 1.154751 
-5.464497 0.2 -3.20594 
-5.464497 0.2 -0.4551949 
17.5355 -1.3 -13.14042 
-0.4644966 0.2 -13.14042 
-9.484389 0.2 -3.20594 
-0.4644966 51.5 -13.14042 
-9.484389 0.2 -0.4551949 
-15.4645 0.2 1.154751 
-0.8144966 0.2 -13.14042 
-15.4645 0.2 -13.14042 
-15.6145 2.2 1.154751 
-15.6145 18.1 -13.14042 
-15.6145 6.048837 1.154751 
-15.6145 2.2 -13.14042 
33.6855 49.7 -13.14042 
34.5355 48 1.154751 
34.5355 48 -13.14042 
-17.3145 32.1 -13.14042 
-16.4645 51.2 -13.14042 
-15.6145 32.1 -13.14042 
23.52894 50 -3.692848 
27.53549 50 -3.692848 
0.03550335 49.7 -13.14042 
0.03550335 49.7 1.154751 
-0.8144966 48 -13.14042 
15.6855 18.1 -13.14042 
-0.4644966 46.1 -13.14042 
-0.8144966 46.1 -13.14042 
0.8855034 2.2 -13.14042 
32.8355 48 -13.14042 
32.8355 0.7 1.154751 
32.8355 0.7 -13.14042 
17.3855 18.1 -13.14042 
15.6855 0.7 -13.14042 
15.6855 18.1 -13.14042 
17.5355 -3 -13.14042 
32.5355 -1.3 -13.14042 
32.5355 -3 -13.14042 
-44.9645 32.1 6.859575 
-44.9645 18.1 -8.140425 
-44.9645 18.1 6.859575 
17.5355 -1.3 -13.14042 
16.5355 49.7 -13.14042 
16.5355 49.7 1.154751 
16.5355 49.7 -13.14042 
15.5355 4.1 -13.14042 
15.5355 -1.3 -13.14042 
0.5355033 -1.3 -13.14042 
0.8855034 2.2 -13.14042 
0.8855034 4.1 -13.14042 
-17.3145 2.2 -13.14042 
-17.4645 -1.5 -13.14042 
-17.4645 0.2 -13.14042 
-17.4645 -1 -13.14042 
-32.4645 -1 -13.14042 
-32.4645 -1.5 -13.14042 
-32.4645 0.2 -13.14042 
16.5355 -1 -13.14042 
15.6855 0.7 -13.14042 
-17.3145 49.5 -13.14042 
0.5355033 -3 -13.14042 
15.5355 -1.3 -13.14042 
15.5355 -3 -13.14042 
0.5355033 -1.3 -13.14042 
17.3855 6.072771 1.154751 
17.3855 0.7 -13.14042 
17.3855 0.7 1.154751 
15.6855 48 1.154751 
16.5355 -1 -13.14042 
17.3855 0.7 -13.14042 
-34.4645 49.5 -13.14042 
34.5355 -1 -13.14042 
34.5355 0.7 -13.14042 
16.5355 -1 -13.14042 
-33.6145 51.2 -13.14042 
-15.6145 49.5 -13.14042 
-15.6145 32.1 -13.14042 
34.5355 0.7 -13.14042 
46.5355 -10 -14.64042 
-46.4645 -10 -13.14042 
46.5355 -10 -13.14042 
-46.4645 -10 -14.64042 
17.5355 50 -13.14042 
-0.8144966 48 1.154751 
0.03550335 0.5 1.154751 
0.03550335 49.7 1.154751 
-15.4645 53.2 -13.14042 
-15.4645 51.5 -13.14042 
13.5355 6.1 -13.14042 
-13.4645 4.1 -13.14042 
-17.4645 53.2 -13.14042 
0.5355033 51.7 -13.14042 
0.5355033 49.7 1.154751 
0.5355033 49.7 -13.14042 
0.5355033 51.7 -13.14042 
-0.4644966 51.2 -13.14042 
-0.4644966 53.2 -13.14042 
15.5355 46.1 -14.64042 
46.5355 60.2 -14.64042 
46.5355 53.2 -13.14042 
46.5355 60.2 -13.14042 
46.5355 -3 -13.14042 
-46.4645 60.2 -14.64042 
-46.4645 -3 -13.14042 
-15.4645 46.1 -13.14042 
-0.8144966 46.1 -13.14042 
-15.6145 49.5 -13.14042 
-16.4645 51.2 1.154751 
0.5355033 51.7 1.154751 
-17.3145 2.2 -13.14042 
-17.3145 2.2 -13.14042 
-15.6145 18.1 -13.14042 
-16.4645 0.5 -13.14042 
33.6855 -1 -13.14042 
32.8355 0.7 1.154751 
32.8355 0.7 -13.14042 
33.6855 -1 -13.14042 
34.5355 48 -13.14042 
34.5355 0.7 -13.14042 
33.6855 49.7 -13.14042 
32.8355 0.7 -13.14042 
17.3855 0.7 -13.14042 
-0.4644966 -1.5 -13.14042 
-0.8144966 -1 -13.14042 
-0.4644966 -1 -13.14042 
-15.4645 -1.5 -13.14042 
-0.8144966 0.2 -13.14042 
-15.4645 -1 -13.14042 
-15.4645 0.2 -13.14042 
15.5355 49.7 -13.14042 
15.5355 51.7 1.154751 
15.5355 51.7 -13.14042 
0.5355033 32.1 -13.14042 
15.5355 49.7 1.154751 
32.5355 51.7 1.154751 
32.5355 51.2 -13.14042 
32.5355 51.7 -13.14042 
17.5355 51.7 1.154751 
23.52894 51.7 -3.692848 
32.5355 51.7 1.154751 
23.52894 51.7 -7.186253 
17.5355 51.7 -13.14042 
27.53549 51.7 -7.186253 
27.53549 51.7 -3.692848 
32.5355 51.7 -13.14042 
-2.464497 4.1 -13.14042 
-15.4645 53.2 1.154751 
-0.4644966 53.2 1.154751 
-9.471059 53.2 -7.186253 
-15.4645 53.2 -13.14042 
32.5355 -1.3 1.154751 
-34.4645 49.5 -13.14042 
-34.4645 51.2 -13.14042 
-0.4644966 53.2 -13.14042 
-0.4644966 53.2 1.154751 
-15.4645 53.2 1.154751 
17.5355 -3 1.154751 
23.51561 -3 -0.4551949 
32.5355 -3 1.154751 
32.5355 51.2 -13.14042 
0.5355033 49.7 -13.14042 
0.03550335 49.7 -13.14042 
23.51561 -3 -3.20594 
32.5355 50 1.154751 
17.5355 -3 -13.14042 
27.5355 -3 -3.20594 
32.5355 -3 -13.14042 
-15.4645 -1.5 -13.14042 
-15.4645 -1 -13.14042 
-15.4645 -1.5 1.154751 
17.5355 51.7 -13.14042 
15.5355 51.7 -13.14042 
17.5355 50 -13.14042 
17.5355 51.7 1.154751 
17.5355 51.2 -13.14042 
-0.8144966 4.1 -13.14042 
17.5355 50 1.154751 
-15.4645 51.5 1.154751 
-17.3145 18.1 -13.14042 
-32.4645 53.2 -13.14042 
-34.4645 53.2 -13.14042 
-46.4645 15.1 -13.14042 
-46.4645 60.2 -13.14042 
46.5355 38.2 -8.140425 
0.5355033 51.7 1.154751 
15.5355 49.7 1.154751 
15.5355 51.7 1.154751 
32.5355 50 -13.14042 
-0.4644966 53.2 -13.14042 
9.555396 49.7 -0.4551949 
9.555396 49.7 -3.20594 
5.535503 49.7 -3.20594 
5.535503 49.7 -0.4551949 
0.8855034 49.7 -13.14042 
0.8855034 48 -13.14042 
0.8855034 46.1 -13.14042 
-32.4645 53.2 -13.14042 
-32.4645 51.2 1.154751 
-27.4645 51.2 -0.4551949 
-17.4645 51.2 1.154751 
-27.4645 51.2 -3.20594 
-32.4645 51.2 -13.14042 
-23.4446 51.2 -3.20594 
-23.4446 51.2 -0.4551949 
-17.4645 51.2 -13.14042 
-32.4645 53.2 1.154751 
-27.4645 53.2 -0.4551949 
-17.4645 53.2 1.154751 
-15.6145 2.2 -13.14042 
-27.4645 53.2 -3.20594 
-23.4446 53.2 -0.4551949 
15.5355 -3 1.154751 
-23.4446 53.2 -3.20594 
-32.4645 53.2 -13.14042 
-27.4645 53.2 -3.20594 
-23.4446 53.2 -0.4551949 
-23.4446 53.2 -3.20594 
2.535503 46.1 -13.14042 
0.5355033 46.1 -13.14042 
-27.4645 53.2 -0.4551949 
-15.6145 49.5 -13.14042 
-32.4645 53.2 1.154751 
-17.4645 53.2 1.154751 
15.5355 -3 -13.14042 
15.5355 -1.3 1.154751 
15.5355 -1.3 -13.14042 
15.5355 -3 1.154751 
-0.8144966 4.1 -13.14042 
34.5355 -3 -13.14042 
32.5355 -3 -13.14042 
0.5355033 -3 -13.14042 
5.535514 -3 -7.186253 
0.5355033 -3 1.154751 
9.542066 -3 -3.692848 
5.535514 -3 -3.692848 
9.542066 -3 -7.186253 
15.5355 -3 -13.14042 
45.0355 48.2 -13.14042 
42.5355 38.2 -13.14042 
42.5355 48.2 -13.14042 
0.5355033 -1.3 -13.14042 
0.5355033 -3 1.154751 
0.5355033 -3 -13.14042 
17.5355 -3 -13.14042 
15.5355 -3 -13.14042 
-32.4645 -1 -13.14042 
-32.4645 0.2 1.154751 
-32.4645 0.2 -13.14042 
-32.4645 -1.5 -13.14042 
-32.4645 -1.5 1.154751 
-17.4645 0.2 1.154751 
-17.4645 -1 -13.14042 
-17.4645 0.2 -13.14042 
-17.4645 -1.5 1.154751 
27.5355 -3 -0.4551949 
-17.4645 -1.5 -13.14042 
-27.46449 -1.5 -3.692848 
-27.46449 -1.5 -7.186253 
-23.45794 -1.5 -7.186253 
-23.45794 -1.5 -3.692848 
-15.4645 -1.5 1.154751 
-0.4644966 0.2 1.154751 
-0.4644966 -1.5 1.154751 
-15.4645 0.2 1.154751 
-15.4645 -1.5 -13.14042 
-17.4645 -1.5 -13.14042 
-17.4645 53.2 -13.14042 
0.8855034 46.1 -13.14042 
-0.4644966 46.1 -13.14042 
27.5355 -1.3 -0.4551949 
0.5355033 -3 -13.14042 
-0.4644966 -1.5 -13.14042 
42.5355 12 -8.140425 
42.5355 12 -13.14042 
42.5355 2 -5.640425 
42.5355 2 -8.140425 
46.5355 12 -8.140425 
45.0355 2 -8.140425 
45.0355 12 -8.140425 
-17.3145 18.1 -13.14042 
-17.3145 6.048837 1.154751 
46.5355 12 -5.640425 
46.5355 2 -5.640425 
46.5355 2 -5.640425 
46.5355 12 -5.640425 
46.5355 2 -8.140425 
45.0355 2 -13.14042 
45.0355 12 -8.140425 
45.0355 12 -13.14042 
0.5355033 18.1 -13.14042 
45.0355 2 -8.140425 
42.5355 2 -13.14042 
46.5355 12 -8.140425 
17.3855 18.1 -13.14042 
-32.4645 53.2 -13.14042 
5.535514 -1.3 -3.692848 
9.542066 -3 -3.692848 
9.542066 -1.3 -3.692848 
32.8355 48 1.154751 
9.555396 49.7 -3.20594 
9.555396 51.7 -0.4551949 
9.555396 51.7 -3.20594 
9.555396 49.7 -0.4551949 
42.5355 38.2 -13.14042 
5.535514 -3 -3.692848 
5.535514 -3 -7.186253 
9.542066 -1.3 -7.186253 
9.542066 -3 -7.186253 
-15.6145 49.5 1.154751 
5.535514 -1.3 -7.186253 
15.6855 32.1 -13.14042 
15.6855 44.15117 1.154751 
17.3855 32.1 -13.14042 
5.535503 49.7 -0.4551949 
0.5355033 -1.3 1.154751 
5.535503 51.7 -0.4551949 
5.535503 51.7 -3.20594 
0.5355033 49.7 1.154751 
5.535503 49.7 -3.20594 
-17.3145 49.5 1.154751 
-17.3145 44.12723 1.154751 
0.8855034 4.1 -13.14042 
5.535503 51.7 -0.4551949 
5.535503 51.7 -3.20594 
9.555396 51.7 -3.20594 
9.555396 51.7 -0.4551949 
-17.3145 32.1 -13.14042 
46.5355 2 -8.140425 
-17.3145 6.048837 1.154751 
-17.3145 18.1 -13.14042 
-15.6145 32.1 -13.14042 
-15.6145 44.12723 1.154751 
-0.4644966 -1.5 1.154751 
-0.4644966 -1 -13.14042 
-0.4644966 -1.5 -13.14042 
-44.9645 35.1 6.859575 
-44.9645 32.1 -8.140425 
-44.9645 32.1 6.859575 
-44.9645 32.1 -8.140425 
-44.9645 35.1 -13.14042 
-44.9645 18.1 -8.140425 
-44.9645 15.1 -13.14042 
33.6855 49.7 -13.14042 
-42.4645 35.1 6.859575 
-44.9645 35.1 -8.140425 
-42.4645 35.1 -13.14042 
-42.4645 15.1 6.859575 
-42.4645 15.1 -13.14042 
0.5355033 4.1 -13.14042 
-32.4645 0.2 1.154751 
-27.46449 0.2 -7.186253 
-27.46449 0.2 -3.692848 
-32.4645 0.2 -13.14042 
-23.45794 0.2 -7.186253 
0.8855034 4.1 -13.14042 
-23.45794 0.2 -3.692848 
-17.4645 0.2 1.154751 
-17.4645 0.2 -13.14042 
-9.484389 -1.5 -0.4551949 
-9.484389 -1.5 -3.20594 
-5.464497 -1.5 -0.4551949 
-5.464497 -1.5 -3.20594 
42.5355 2 -13.14042 
45.0355 12 -13.14042 
45.0355 2 -13.14042 
42.5355 12 -13.14042 
-32.7645 -1 -13.14042 
42.5355 38.2 -13.14042 
45.0355 12 -13.14042 
45.0355 38.2 -13.14042 
42.5355 12 -13.14042 
46.5355 60.2 -13.14042 
45.0355 53.2 -13.14042 
46.5355 53.2 -13.14042 
0.5355033 18.1 -13.14042 
42.5355 48.2 -13.14042 
-0.4644966 51.5 -13.14042 
42.5355 2 -13.14042 
34.5355 48 -13.14042 
33.6855 49.7 -13.14042 
32.8355 51.2 -13.14042 
32.5355 51.7 -13.14042 
17.5355 51.7 -13.14042 
15.5355 51.7 -13.14042 
0.5355033 51.7 -13.14042 
-0.4644966 53.2 -13.14042 
-15.4645 53.2 -13.14042 
-32.4645 53.2 -13.14042 
-17.4645 53.2 -13.14042 
-34.4645 53.2 -13.14042 
-15.4645 53.2 -13.14042 
-34.4645 51.2 -13.14042 
-46.4645 60.2 -13.14042 
0.5355033 -1.3 -13.14042 
46.5355 -10 -13.14042 
46.5355 -3 -13.14042 
45.0355 48.2 -13.14042 
45.0355 2 -13.14042 
34.5355 0.7 -13.14042 
34.5355 -1 -13.14042 
34.5355 -3 -13.14042 
32.5355 -3 -13.14042 
17.5355 -3 -13.14042 
15.5355 -3 -13.14042 
-15.4645 51.5 -13.14042 
0.5355033 -3 -13.14042 
-15.4645 -1.5 -13.14042 
-0.4644966 -1.5 -13.14042 
33.6855 49.7 1.154751 
45.0355 38.2 -13.14042 
17.5355 51.7 -13.14042 
-17.4645 -1.5 -13.14042 
-32.4645 -1.5 -13.14042 
-32.4645 -1 -13.14042 
-46.4645 15.1 -13.14042 
-46.4645 -3 -13.14042 
17.3855 18.1 -13.14042 
-46.4645 -10 -13.14042 
32.8355 48 -13.14042 
32.8355 48 -13.14042 
32.5355 51.2 -13.14042 
-32.4645 -1.5 1.154751 
-17.4645 -1.5 1.154751 
-0.4644966 32.1 -13.14042 
-23.45794 -1.5 -3.692848 
-23.45794 -1.5 -7.186253 
-27.46449 -1.5 -7.186253 
-27.46449 -1.5 -3.692848 
-17.4645 53.2 -13.14042 
-15.5395 51.2 -13.14042 
17.4605 -1 -13.14042 
15.6105 -1 -13.14042 
42.5355 12 -5.740425 
42.5355 48.2 -5.740425 
32.6855 -1 -13.14042 
0.7105033 -1 -13.14042 
0.8855034 25.1 -13.14042 
0.5355033 25.1 -14.64042 
-15.4645 25.1 -14.64042 
15.5355 25.1 -14.64042 
-24.9645 25.1 -14.64042 
25.0355 25.1 -14.64042 
-17.3145 25.1 -13.14042 
3 0 1 2 
3 3 4 5 
3 6 7 3 
3 709 8 9 
3 709 10 8 
3 11 12 13 
3 705 12 11 
3 5 14 15 
3 14 16 17 
3 7 18 19 
3 20 18 21 
3 22 23 20 
3 24 23 22 
3 25 23 26 
3 27 23 25 
3 23 27 28 
3 29 714 30 
3 31 32 33 
3 34 35 36 
3 37 35 38 
3 39 40 41 
3 40 39 42 
3 43 44 45 
3 46 47 48 
3 49 47 46 
3 50 47 49 
3 51 44 52 
3 53 54 55 
3 56 54 53 
3 54 57 58 
3 59 60 61 
3 62 60 59 
3 63 60 62 
3 60 63 64 
3 717 65 66 
3 69 717 68 
3 69 70 717 
3 70 71 60 
3 72 73 74 
3 66 73 72 
3 75 76 77 
3 15 14 705 
3 78 76 79 
3 76 78 77 
3 80 78 79 
3 81 82 83 
3 84 82 81 
3 85 713 86 
3 87 713 85 
3 713 87 88 
3 30 39 41 
3 87 89 88 
3 72 74 47 
3 75 90 91 
3 32 714 29 
3 92 93 704 
3 94 95 96 
3 86 84 81 
3 97 98 99 
3 98 97 100 
3 101 102 103 
3 104 709 9 
3 105 106 107 
3 108 109 110 
3 109 111 112 
3 113 114 115 
3 116 117 118 
3 119 120 121 
3 111 109 108 
3 119 122 120 
3 123 124 119 
3 82 84 125 
3 124 123 126 
3 127 128 129 
3 130 131 132 
3 133 134 135 
3 119 124 122 
3 102 136 137 
3 131 138 139 
3 106 133 107 
3 106 105 140 
3 134 105 135 
3 141 142 143 
3 36 35 31 
3 144 716 145 
3 144 42 39 
3 144 78 42 
3 144 77 78 
3 144 89 77 
3 7 6 21 
3 88 715 84 
3 146 145 31 
3 147 145 146 
3 148 149 150 
3 125 149 148 
3 125 145 149 
3 24 22 151 
3 84 145 125 
3 153 715 152 
3 79 76 154 
3 84 86 713 
3 155 156 157 
3 158 159 160 
3 161 96 95 
3 159 158 162 
3 163 114 113 
3 146 31 35 
3 49 164 50 
3 165 166 167 
3 168 169 170 
3 171 172 173 
3 150 149 78 
3 174 172 171 
3 176 175 177 
3 170 178 179 
3 175 176 180 
3 708 181 177 
3 114 163 182 
3 141 181 708 
3 143 181 141 
3 183 176 184 
3 185 141 186 
3 88 152 715 
3 176 183 142 
3 187 188 189 
3 10 12 190 
3 188 187 191 
3 183 143 142 
3 181 176 177 
3 189 192 187 
3 193 194 189 
3 162 195 159 
3 196 195 162 
3 197 198 199 
3 165 198 197 
3 200 201 202 
3 62 203 63 
3 203 62 204 
3 4 14 5 
3 194 205 192 
3 205 194 206 
3 206 207 208 
3 207 206 194 
3 209 53 169 
3 210 211 212 
3 211 210 213 
3 20 23 18 
3 89 90 214 
3 215 216 217 
3 216 215 218 
3 219 220 221 
3 221 222 223 
3 84 153 145 
3 224 225 226 
3 227 228 229 
3 227 230 228 
3 230 231 232 
3 233 229 228 
3 232 229 233 
3 234 232 231 
3 99 98 235 
3 234 229 232 
3 236 237 238 
3 90 75 214 
3 239 240 241 
3 242 243 244 
3 245 246 247 
3 248 168 170 
3 249 250 251 
3 252 253 254 
3 255 256 257 
3 75 89 214 
3 258 259 260 
3 45 259 258 
3 259 45 261 
3 262 263 264 
3 225 0 226 
3 225 711 0 
3 1 0 711 
3 142 141 185 
3 225 265 711 
3 266 265 225 
3 267 268 269 
3 267 270 268 
3 270 271 272 
3 272 269 273 
3 274 275 276 
3 222 220 277 
3 275 278 279 
3 278 275 274 
3 229 234 280 
3 281 282 276 
3 278 282 279 
3 282 283 284 
3 285 286 287 
3 286 285 288 
3 289 290 291 
3 292 293 294 
3 295 251 296 
3 119 297 298 
3 297 119 299 
3 714 716 39 
3 166 165 300 
3 301 129 302 
3 61 60 71 
3 265 266 303 
3 304 305 306 
3 307 308 309 
3 310 311 312 
3 313 314 315 
3 311 310 316 
3 16 317 17 
3 215 318 319 
3 318 215 217 
3 320 3 706 
3 321 320 706 
3 321 710 320 
3 320 323 324 
3 164 717 325 
3 170 169 178 
3 326 327 328 
3 329 327 330 
3 119 121 299 
3 327 329 331 
3 271 270 267 
3 332 706 333 
3 293 292 334 
3 335 336 337 
3 336 335 338 
3 339 340 341 
3 102 101 342 
3 343 307 344 
3 317 19 18 
3 208 193 345 
3 193 208 207 
3 346 104 347 
3 167 348 198 
3 63 349 64 
3 350 243 351 
3 291 173 352 
3 353 354 355 
3 354 353 356 
3 345 189 188 
3 189 345 193 
3 705 14 357 
3 220 222 221 
3 358 359 360 
3 704 361 362 
3 44 43 48 
3 93 361 704 
3 363 151 22 
3 717 361 93 
3 90 89 364 
3 70 361 717 
3 361 70 365 
3 171 173 290 
3 366 367 368 
3 53 209 56 
3 262 369 370 
3 369 262 371 
3 714 32 372 
3 373 374 375 
3 32 31 372 
3 73 66 65 
3 89 87 364 
3 373 376 374 
3 717 67 65 
3 376 353 355 
3 354 377 378 
3 74 704 379 
3 3 7 4 
3 76 75 91 
3 73 704 74 
3 92 704 73 
3 46 48 43 
3 706 3 333 
3 380 264 263 
3 381 382 161 
3 379 264 380 
3 704 264 379 
3 367 366 383 
3 384 162 158 
3 385 386 387 
3 388 389 390 
3 189 194 192 
3 391 392 393 
3 391 394 392 
3 395 394 391 
3 198 396 199 
3 39 30 714 
3 396 198 348 
3 705 332 15 
3 397 398 399 
3 96 161 382 
3 353 376 373 
3 400 401 398 
3 401 402 403 
3 404 405 406 
3 149 407 712 
3 405 404 408 
3 105 134 140 
3 89 75 77 
3 409 410 411 
3 412 413 414 
3 415 416 417 
3 418 414 413 
3 417 419 414 
3 419 417 416 
3 45 420 261 
3 421 106 422 
3 421 423 106 
3 423 424 134 
3 424 423 421 
3 220 219 425 
3 349 426 427 
3 140 422 106 
3 134 422 140 
3 134 428 422 
3 428 134 424 
3 429 227 229 
3 231 230 227 
3 377 354 356 
3 227 429 430 
3 431 432 433 
3 110 109 434 
3 435 27 436 
3 431 437 432 
3 133 106 423 
3 438 410 409 
3 439 437 431 
3 439 433 440 
3 433 439 441 
3 442 282 443 
3 282 442 444 
3 31 145 372 
3 17 445 14 
3 16 14 4 
3 317 445 17 
3 18 445 317 
3 18 446 445 
3 446 18 23 
3 447 448 449 
3 168 248 450 
3 279 282 281 
3 448 447 451 
3 452 424 421 
3 386 385 453 
3 64 454 60 
3 349 454 64 
3 152 88 144 
3 225 224 360 
3 427 454 349 
3 360 266 225 
3 454 427 455 
3 253 252 128 
3 456 377 457 
3 448 438 409 
3 438 448 451 
3 131 130 458 
3 459 460 461 
3 398 397 400 
3 439 222 277 
3 134 133 423 
3 410 438 462 
3 229 463 429 
3 246 245 249 
3 463 229 280 
3 408 464 367 
3 465 404 466 
3 404 465 408 
3 467 367 464 
3 466 367 467 
3 468 367 404 
3 55 469 470 
3 117 116 471 
3 42 78 149 
3 367 468 368 
3 264 704 362 
3 375 377 373 
3 472 473 474 
3 475 476 477 
3 477 474 478 
3 476 474 477 
3 474 476 479 
3 480 481 482 
3 387 386 483 
3 480 484 481 
3 3 320 6 
3 485 482 481 
3 269 486 267 
3 408 465 464 
3 487 482 485 
3 42 149 712 
3 488 482 487 
3 489 473 475 
3 477 490 491 
3 360 359 266 
3 489 477 491 
3 149 492 493 
3 484 488 487 
3 477 489 475 
3 27 435 28 
3 490 473 494 
3 294 293 495 
3 496 474 497 
3 498 499 500 
3 499 498 501 
3 261 420 502 
3 425 441 220 
3 441 425 433 
3 359 303 266 
3 303 359 155 
3 503 104 346 
3 503 709 104 
3 504 709 503 
3 13 709 504 
3 505 506 507 
3 31 34 36 
3 443 282 284 
3 508 486 509 
3 510 486 508 
3 492 146 37 
3 510 511 486 
3 169 168 209 
3 512 513 514 
3 511 510 505 
3 433 222 431 
3 515 516 517 
3 518 705 11 
3 518 706 332 
3 519 706 518 
3 321 706 519 
3 416 415 412 
3 323 710 259 
3 141 175 186 
3 506 505 510 
3 372 145 714 
3 520 521 522 
3 523 521 520 
3 436 369 435 
3 521 523 524 
3 525 526 527 
3 528 526 525 
3 440 433 529 
3 526 528 530 
3 524 531 528 
3 173 291 290 
3 524 532 531 
3 523 532 524 
3 71 70 69 
3 533 528 534 
3 533 530 528 
3 530 533 523 
3 535 536 537 
3 536 535 538 
3 47 50 72 
3 243 350 244 
3 539 49 46 
3 539 164 49 
3 283 282 278 
3 539 717 164 
3 507 506 509 
3 539 68 717 
3 68 539 540 
3 12 10 709 
3 474 541 497 
3 493 492 542 
3 541 474 479 
3 543 54 56 
3 223 222 544 
3 545 710 322 
3 545 259 710 
3 263 262 370 
3 274 276 282 
3 546 259 545 
3 259 546 260 
3 404 367 466 
3 474 496 472 
3 707 548 547 
3 549 548 707 
3 550 548 549 
3 551 552 553 
3 196 554 555 
3 549 556 557 
3 556 549 707 
3 558 551 559 
3 717 66 325 
3 138 131 458 
3 551 558 560 
3 561 562 563 
3 711 564 1 
3 562 561 565 
3 547 556 707 
3 562 556 547 
3 548 550 566 
3 556 562 567 
3 568 165 197 
3 165 568 300 
3 476 496 569 
3 417 249 415 
3 570 571 572 
3 305 304 573 
3 389 388 172 
3 221 440 219 
3 402 401 400 
3 552 551 560 
3 574 575 576 
3 162 384 196 
3 575 574 577 
3 57 54 543 
3 249 413 415 
3 181 143 578 
3 571 570 579 
3 580 581 582 
3 143 183 578 
3 382 381 583 
3 478 474 473 
3 571 581 572 
3 581 580 584 
3 581 571 582 
3 585 136 586 
3 136 585 587 
3 588 575 577 
3 432 221 223 
3 128 127 253 
3 516 515 589 
3 221 432 437 
3 575 588 590 
3 591 574 576 
3 175 141 708 
3 176 181 184 
3 460 459 592 
3 574 591 593 
3 588 591 590 
3 591 588 593 
3 247 246 296 
3 440 544 219 
3 714 145 716 
3 247 296 251 
3 432 544 529 
3 544 432 223 
3 296 417 418 
3 222 433 425 
3 413 296 418 
3 417 296 246 
3 35 37 146 
3 146 492 147 
3 594 243 242 
3 534 528 531 
3 580 570 584 
3 243 594 595 
3 570 580 579 
3 179 178 596 
3 35 34 38 
3 562 548 563 
3 548 562 547 
3 383 597 405 
3 144 88 89 
3 383 598 597 
3 172 352 173 
3 598 366 599 
3 486 269 507 
3 600 405 597 
3 95 94 601 
3 599 405 600 
3 469 55 54 
3 554 196 384 
3 366 405 599 
3 602 549 557 
3 565 549 602 
3 549 565 550 
3 496 476 472 
3 286 603 287 
3 603 286 604 
3 492 149 147 
3 605 94 606 
3 342 136 102 
3 607 608 274 
3 26 23 24 
3 608 607 609 
3 610 611 612 
3 314 313 613 
3 614 615 611 
3 440 221 437 
3 616 615 614 
3 148 82 125 
3 615 616 237 
3 617 573 304 
3 618 619 610 
3 529 433 432 
3 488 484 480 
3 619 620 614 
3 612 621 610 
3 611 610 619 
3 236 621 612 
3 296 413 295 
3 621 236 238 
3 237 621 238 
3 413 249 295 
3 616 621 237 
3 425 544 222 
3 621 616 622 
3 370 369 436 
3 473 489 494 
3 544 440 529 
3 621 620 618 
3 620 619 618 
3 610 621 618 
3 620 621 622 
3 623 711 265 
3 624 625 626 
3 625 627 628 
3 78 80 150 
3 144 39 716 
3 237 236 615 
3 412 415 413 
3 627 625 624 
3 41 40 629 
3 630 631 626 
3 366 598 383 
3 628 631 630 
3 425 219 544 
3 417 414 418 
3 628 632 631 
3 249 417 246 
3 632 628 627 
3 444 633 607 
3 308 307 343 
3 442 634 444 
3 377 375 457 
3 635 607 633 
3 21 18 7 
3 636 607 635 
3 195 196 555 
3 442 607 636 
3 177 175 708 
3 607 442 609 
3 101 586 342 
3 586 101 585 
3 637 638 639 
3 638 637 640 
3 205 206 641 
3 476 475 472 
3 532 523 533 
3 642 643 644 
3 172 174 389 
3 643 642 645 
3 646 647 648 
3 649 712 407 
3 650 645 642 
3 40 712 649 
3 202 201 651 
3 322 710 321 
3 650 652 645 
3 650 653 652 
3 472 475 473 
3 646 653 650 
3 646 654 653 
3 646 655 654 
3 646 656 655 
3 249 251 295 
3 646 657 656 
3 646 658 657 
3 646 659 658 
3 646 660 659 
3 646 661 660 
3 444 634 633 
3 646 662 663 
3 646 664 662 
3 201 200 665 
3 664 345 666 
3 664 208 345 
3 664 667 208 
3 348 167 166 
3 667 664 646 
3 668 272 271 
3 507 509 486 
3 648 669 670 
3 93 67 717 
3 647 669 648 
3 34 31 33 
3 273 269 268 
3 646 650 647 
3 671 669 647 
3 715 153 84 
3 644 669 671 
3 94 605 601 
3 643 669 644 
3 672 669 643 
3 647 650 671 
3 652 669 672 
3 673 652 653 
3 673 669 652 
3 272 668 269 
3 674 669 673 
3 712 40 42 
3 405 366 406 
3 675 669 674 
3 624 626 631 
3 676 669 675 
3 677 669 676 
3 634 442 636 
3 678 669 677 
3 424 452 679 
3 680 669 678 
3 681 680 682 
3 407 149 493 
3 573 617 683 
3 711 623 564 
3 513 512 684 
3 323 320 710 
3 330 327 326 
3 352 172 388 
3 681 669 680 
3 156 155 359 
3 449 448 685 
3 686 669 681 
3 136 342 586 
3 518 332 705 
3 687 669 686 
3 641 687 688 
3 689 208 667 
3 705 357 12 
3 689 206 208 
3 689 641 206 
3 88 84 713 
3 689 687 641 
3 690 687 689 
3 340 339 691 
3 690 669 687 
3 669 690 692 
3 394 395 693 
3 654 655 694 
3 44 51 420 
3 655 656 695 
3 45 44 420 
3 696 631 697 
3 631 696 624 
3 149 145 147 
3 255 240 239 
3 274 608 278 
3 240 255 257 
3 198 165 167 
3 240 256 241 
3 222 439 431 
3 256 240 257 
3 82 148 698 
3 250 249 245 
3 614 611 619 
3 636 276 275 
3 437 439 440 
3 276 636 635 
3 633 276 635 
3 129 301 127 
3 276 633 281 
3 378 377 456 
3 633 279 281 
3 359 358 156 
3 279 633 634 
3 263 370 436 
3 646 663 661 
3 279 636 275 
3 636 279 634 
3 490 477 478 
3 699 628 630 
3 13 12 709 
3 628 699 700 
3 701 628 700 
3 628 701 625 
3 473 490 478 
3 701 626 625 
3 626 701 702 
3 290 289 171 
3 194 193 207 
3 482 488 703 
3 699 626 702 
3 561 550 565 
3 626 699 630 
3 550 561 566 
