OFF
78 156 0
0.0 0.0 0.0
1.0 0.0 0.0
1.0 1.0 0.0
0.0 1.0 0.0
1.0 2.0 0.0
0.0 2.0 0.0
1.0 3.0 0.0
0.0 3.0 0.0
2.0 0.0 0.0
2.0 1.0 0.0
2.0 2.0 0.0
2.0 3.0 0.0
3.0 0.0 0.0
3.0 1.0 0.0
3.0 2.0 0.0
3.0 3.0 0.0
0.0 0.0 3.0
1.0 0.0 3.0
1.0 1.0 3.0
0.0 1.0 3.0
1.0 2.0 3.0
0.0 2.0 3.0
1.0 3.0 3.0
0.0 3.0 3.0
2.0 0.0 3.0
2.0 1.0 3.0
2.0 2.0 3.0
2.0 3.0 3.0
3.0 0.0 3.0
3.0 1.0 3.0
3.0 2.0 3.0
3.0 3.0 3.0
1.0 0.0 1.0
0.0 0.0 1.0
1.0 0.0 2.0
0.0 0.0 2.0
2.0 0.0 1.0
2.0 0.0 2.0
3.0 0.0 1.0
3.0 0.0 2.0
1.0 3.0 1.0
0.0 3.0 1.0
1.0 3.0 2.0
0.0 3.0 2.0
2.0 3.0 1.0
2.0 3.0 2.0
3.0 3.0 1.0
3.0 3.0 2.0
0.0 1.0 1.0
0.0 1.0 2.0
0.0 2.0 1.0
0.0 2.0 2.0
3.0 1.0 1.0
3.0 1.0 2.0
3.0 2.0 1.0
3.0 2.0 2.0
1.5 1.0 3.0
1.5 1.5 3.0
1.0 1.5 3.0
1.5 2.0 3.0
2.0 1.5 3.0
1.0 1.0 4.0
1.5 1.0 4.0
1.5 1.5 4.0
1.0 1.5 4.0
1.5 2.0 4.0
1.0 2.0 4.0
2.0 1.0 4.0
2.0 1.5 4.0
2.0 2.0 4.0
1.5 1.0 3.5
1.0 1.0 3.5
2.0 1.0 3.5
1.5 2.0 3.5
1.0 2.0 3.5
2.0 2.0 3.5
1.0 1.5 3.5
2.0 1.5 3.5
3 0 1 2
3 0 2 3
3 3 2 4
3 3 4 5
3 5 4 6
3 5 6 7
3 1 8 9
3 1 9 2
3 2 9 10
3 2 10 4
3 4 10 11
3 4 11 6
3 8 12 13
3 8 13 9
3 9 13 14
3 9 14 10
3 10 14 15
3 10 15 11
3 16 17 18
3 16 18 19
3 19 18 20
3 19 20 21
3 21 20 22
3 21 22 23
3 17 24 25
3 17 25 18
3 18 25 26
3 18 26 20
3 20 26 27
3 20 27 22
3 24 28 29
3 24 29 25
3 25 29 30
3 25 30 26
3 26 30 31
3 26 31 27
3 0 1 32
3 0 32 33
3 33 32 34
3 33 34 35
3 35 34 17
3 35 17 16
3 1 8 36
3 1 36 32
3 32 36 37
3 32 37 34
3 34 37 24
3 34 24 17
3 8 12 38
3 8 38 36
3 36 38 39
3 36 39 37
3 37 39 28
3 37 28 24
3 7 6 40
3 7 40 41
3 41 40 42
3 41 42 43
3 43 42 22
3 43 22 23
3 6 11 44
3 6 44 40
3 40 44 45
3 40 45 42
3 42 45 27
3 42 27 22
3 11 15 46
3 11 46 44
3 44 46 47
3 44 47 45
3 45 47 31
3 45 31 27
3 0 3 48
3 0 48 33
3 33 48 49
3 33 49 35
3 35 49 19
3 35 19 16
3 3 5 50
3 3 50 48
3 48 50 51
3 48 51 49
3 49 51 21
3 49 21 19
3 5 7 41
3 5 41 50
3 50 41 43
3 50 43 51
3 51 43 23
3 51 23 21
3 12 13 52
3 12 52 38
3 38 52 53
3 38 53 39
3 39 53 29
3 39 29 28
3 13 14 54
3 13 54 52
3 52 54 55
3 52 55 53
3 53 55 30
3 53 30 29
3 14 15 46
3 14 46 54
3 54 46 47
3 54 47 55
3 55 47 31
3 55 31 30
3 18 56 57
3 18 57 58
3 58 57 59
3 58 59 20
3 56 25 60
3 56 60 57
3 57 60 26
3 57 26 59
3 61 62 63
3 61 63 64
3 64 63 65
3 64 65 66
3 62 67 68
3 62 68 63
3 63 68 69
3 63 69 65
3 18 56 70
3 18 70 71
3 71 70 62
3 71 62 61
3 56 25 72
3 56 72 70
3 70 72 67
3 70 67 62
3 20 59 73
3 20 73 74
3 74 73 65
3 74 65 66
3 59 26 75
3 59 75 73
3 73 75 69
3 73 69 65
3 18 58 76
3 18 76 71
3 71 76 64
3 71 64 61
3 58 20 74
3 58 74 76
3 76 74 66
3 76 66 64
3 25 60 77
3 25 77 72
3 72 77 68
3 72 68 67
3 60 26 75
3 60 75 77
3 77 75 69
3 77 69 68
