OFF
152 300 0
0.0 0.0 0.0
0.2 0.0 0.0
0.2 0.2 0.0
0.0 0.2 0.0
0.2 0.4 0.0
0.0 0.4 0.0
0.2 0.6 0.0
0.0 0.6 0.0
0.2 0.8 0.0
0.0 0.8 0.0
0.2 1.0 0.0
0.0 1.0 0.0
0.4 0.0 0.0
0.4 0.2 0.0
0.4 0.4 0.0
0.4 0.6 0.0
0.4 0.8 0.0
0.4 1.0 0.0
0.6 0.0 0.0
0.6 0.2 0.0
0.6 0.4 0.0
0.6 0.6 0.0
0.6 0.8 0.0
0.6 1.0 0.0
0.8 0.0 0.0
0.8 0.2 0.0
0.8 0.4 0.0
0.8 0.6 0.0
0.8 0.8 0.0
0.8 1.0 0.0
1.0 0.0 0.0
1.0 0.2 0.0
1.0 0.4 0.0
1.0 0.6 0.0
1.0 0.8 0.0
1.0 1.0 0.0
0.0 0.0 1.0
0.2 0.0 1.0
0.2 0.2 1.0
0.0 0.2 1.0
0.2 0.4 1.0
0.0 0.4 1.0
0.2 0.6 1.0
0.0 0.6 1.0
0.2 0.8 1.0
0.0 0.8 1.0
0.2 1.0 1.0
0.0 1.0 1.0
0.4 0.0 1.0
0.4 0.2 1.0
0.4 0.4 1.0
0.4 0.6 1.0
0.4 0.8 1.0
0.4 1.0 1.0
0.6 0.0 1.0
0.6 0.2 1.0
0.6 0.4 1.0
0.6 0.6 1.0
0.6 0.8 1.0
0.6 1.0 1.0
0.8 0.0 1.0
0.8 0.2 1.0
0.8 0.4 1.0
0.8 0.6 1.0
0.8 0.8 1.0
0.8 1.0 1.0
1.0 0.0 1.0
1.0 0.2 1.0
1.0 0.4 1.0
1.0 0.6 1.0
1.0 0.8 1.0
1.0 1.0 1.0
0.2 0.0 0.2
0.0 0.0 0.2
0.2 0.0 0.4
0.0 0.0 0.4
0.2 0.0 0.6
0.0 0.0 0.6
0.2 0.0 0.8
0.0 0.0 0.8
0.4 0.0 0.2
0.4 0.0 0.4
0.4 0.0 0.6
0.4 0.0 0.8
0.6 0.0 0.2
0.6 0.0 0.4
0.6 0.0 0.6
0.6 0.0 0.8
0.8 0.0 0.2
0.8 0.0 0.4
0.8 0.0 0.6
0.8 0.0 0.8
1.0 0.0 0.2
1.0 0.0 0.4
1.0 0.0 0.6
1.0 0.0 0.8
0.2 1.0 0.2
0.0 1.0 0.2
0.2 1.0 0.4
0.0 1.0 0.4
0.2 1.0 0.6
0.0 1.0 0.6
0.2 1.0 0.8
0.0 1.0 0.8
0.4 1.0 0.2
0.4 1.0 0.4
0.4 1.0 0.6
0.4 1.0 0.8
0.6 1.0 0.2
0.6 1.0 0.4
0.6 1.0 0.6
0.6 1.0 0.8
0.8 1.0 0.2
0.8 1.0 0.4
0.8 1.0 0.6
0.8 1.0 0.8
1.0 1.0 0.2
1.0 1.0 0.4
1.0 1.0 0.6
1.0 1.0 0.8
0.0 0.2 0.2
0.0 0.2 0.4
0.0 0.2 0.6
0.0 0.2 0.8
0.0 0.4 0.2
0.0 0.4 0.4
0.0 0.4 0.6
0.0 0.4 0.8
0.0 0.6 0.2
0.0 0.6 0.4
0.0 0.6 0.6
0.0 0.6 0.8
0.0 0.8 0.2
0.0 0.8 0.4
0.0 0.8 0.6
0.0 0.8 0.8
1.0 0.2 0.2
1.0 0.2 0.4
1.0 0.2 0.6
1.0 0.2 0.8
1.0 0.4 0.2
1.0 0.4 0.4
1.0 0.4 0.6
1.0 0.4 0.8
1.0 0.6 0.2
1.0 0.6 0.4
1.0 0.6 0.6
1.0 0.6 0.8
1.0 0.8 0.2
1.0 0.8 0.4
1.0 0.8 0.6
1.0 0.8 0.8
3 0 1 2
3 0 2 3
3 3 2 4
3 3 4 5
3 5 4 6
3 5 6 7
3 7 6 8
3 7 8 9
3 9 8 10
3 9 10 11
3 1 12 13
3 1 13 2
3 2 13 14
3 2 14 4
3 4 14 15
3 4 15 6
3 6 15 16
3 6 16 8
3 8 16 17
3 8 17 10
3 12 18 19
3 12 19 13
3 13 19 20
3 13 20 14
3 14 20 21
3 14 21 15
3 15 21 22
3 15 22 16
3 16 22 23
3 16 23 17
3 18 24 25
3 18 25 19
3 19 25 26
3 19 26 20
3 20 26 27
3 20 27 21
3 21 27 28
3 21 28 22
3 22 28 29
3 22 29 23
3 24 30 31
3 24 31 25
3 25 31 32
3 25 32 26
3 26 32 33
3 26 33 27
3 27 33 34
3 27 34 28
3 28 34 35
3 28 35 29
3 36 37 38
3 36 38 39
3 39 38 40
3 39 40 41
3 41 40 42
3 41 42 43
3 43 42 44
3 43 44 45
3 45 44 46
3 45 46 47
3 37 48 49
3 37 49 38
3 38 49 50
3 38 50 40
3 40 50 51
3 40 51 42
3 42 51 52
3 42 52 44
3 44 52 53
3 44 53 46
3 48 54 55
3 48 55 49
3 49 55 56
3 49 56 50
3 50 56 57
3 50 57 51
3 51 57 58
3 51 58 52
3 52 58 59
3 52 59 53
3 54 60 61
3 54 61 55
3 55 61 62
3 55 62 56
3 56 62 63
3 56 63 57
3 57 63 64
3 57 64 58
3 58 64 65
3 58 65 59
3 60 66 67
3 60 67 61
3 61 67 68
3 61 68 62
3 62 68 69
3 62 69 63
3 63 69 70
3 63 70 64
3 64 70 71
3 64 71 65
3 0 1 72
3 0 72 73
3 73 72 74
3 73 74 75
3 75 74 76
3 75 76 77
3 77 76 78
3 77 78 79
3 79 78 37
3 79 37 36
3 1 12 80
3 1 80 72
3 72 80 81
3 72 81 74
3 74 81 82
3 74 82 76
3 76 82 83
3 76 83 78
3 78 83 48
3 78 48 37
3 12 18 84
3 12 84 80
3 80 84 85
3 80 85 81
3 81 85 86
3 81 86 82
3 82 86 87
3 82 87 83
3 83 87 54
3 83 54 48
3 18 24 88
3 18 88 84
3 84 88 89
3 84 89 85
3 85 89 90
3 85 90 86
3 86 90 91
3 86 91 87
3 87 91 60
3 87 60 54
3 24 30 92
3 24 92 88
3 88 92 93
3 88 93 89
3 89 93 94
3 89 94 90
3 90 94 95
3 90 95 91
3 91 95 66
3 91 66 60
3 11 10 96
3 11 96 97
3 97 96 98
3 97 98 99
3 99 98 100
3 99 100 101
3 101 100 102
3 101 102 103
3 103 102 46
3 103 46 47
3 10 17 104
3 10 104 96
3 96 104 105
3 96 105 98
3 98 105 106
3 98 106 100
3 100 106 107
3 100 107 102
3 102 107 53
3 102 53 46
3 17 23 108
3 17 108 104
3 104 108 109
3 104 109 105
3 105 109 110
3 105 110 106
3 106 110 111
3 106 111 107
3 107 111 59
3 107 59 53
3 23 29 112
3 23 112 108
3 108 112 113
3 108 113 109
3 109 113 114
3 109 114 110
3 110 114 115
3 110 115 111
3 111 115 65
3 111 65 59
3 29 35 116
3 29 116 112
3 112 116 117
3 112 117 113
3 113 117 118
3 113 118 114
3 114 118 119
3 114 119 115
3 115 119 71
3 115 71 65
3 0 3 120
3 0 120 73
3 73 120 121
3 73 121 75
3 75 121 122
3 75 122 77
3 77 122 123
3 77 123 79
3 79 123 39
3 79 39 36
3 3 5 124
3 3 124 120
3 120 124 125
3 120 125 121
3 121 125 126
3 121 126 122
3 122 126 127
3 122 127 123
3 123 127 41
3 123 41 39
3 5 7 128
3 5 128 124
3 124 128 129
3 124 129 125
3 125 129 130
3 125 130 126
3 126 130 131
3 126 131 127
3 127 131 43
3 127 43 41
3 7 9 132
3 7 132 128
3 128 132 133
3 128 133 129
3 129 133 134
3 129 134 130
3 130 134 135
3 130 135 131
3 131 135 45
3 131 45 43
3 9 11 97
3 9 97 132
3 132 97 99
3 132 99 133
3 133 99 101
3 133 101 134
3 134 101 103
3 134 103 135
3 135 103 47
3 135 47 45
3 30 31 136
3 30 136 92
3 92 136 137
3 92 137 93
3 93 137 138
3 93 138 94
3 94 138 139
3 94 139 95
3 95 139 67
3 95 67 66
3 31 32 140
3 31 140 136
3 136 140 141
3 136 141 137
3 137 141 142
3 137 142 138
3 138 142 143
3 138 143 139
3 139 143 68
3 139 68 67
3 32 33 144
3 32 144 140
3 140 144 145
3 140 145 141
3 141 145 146
3 141 146 142
3 142 146 147
3 142 147 143
3 143 147 69
3 143 69 68
3 33 34 148
3 33 148 144
3 144 148 149
3 144 149 145
3 145 149 150
3 145 150 146
3 146 150 151
3 146 151 147
3 147 151 70
3 147 70 69
3 34 35 116
3 34 116 148
3 148 116 117
3 148 117 149
3 149 117 118
3 149 118 150
3 150 118 119
3 150 119 151
3 151 119 71
3 151 71 70
