OFF
12 9 0
0.44163391078173875 0.15711841861994785 0.72764455647762016
0.35904789863971498 0.40788818264193294 0.28556294433155194
0.54620571811020291 0.2631814767505577 0.2369868189984711
0.45305538760694108 0.54345494165309005 0.27204049250661222
0.53725475989853089 0.39843097043561909 0.82064534956968405
0.21390586921371457 0.83504799689928699 0.43848357505751068
0.50275475767702615 0.25370231825113243 0.65327699821061957
0.28297996510527423 0.38909229804148648 0.16646485269954037
0.3876624406785445 0.82723772121590999 0.83515891792995978
0.6711710280987242 0.1524182275285669 0.80816695216841994
0.75953687812883341 0.68958403696176751 0.27521163523646058
0.21964974296672796 0.44017272795830042 0.76987552700183559
2 0 1
2 1 2
2 2 3
2 4 5
2 5 6
2 6 7
2 8 9
2 9 10
2 10 11
