OFF
52 90 0
0 0 0
0 0.333333 0
0.333333 0.333333 0
0.333333 0 0
0 0.666667 0
0.333333 0.666667 0
0 1 0
0.333333 1 0
0.666667 0.333333 0
0.666667 0 0
0.666667 0.666667 0
0.666667 1 0
1 0.333333 0
1 0 0
1 0.666667 0
1 1 0
1 0.333333 0.333333
1 0 0.333333
1 0.333333 0.666667
1 0 0.666667
1 0.333333 1
1 0 1
1 0.666667 0.333333
1 0.666667 0.666667
1 0.666667 1
1 1 0.333333
1 1 0.666667
1 1 1
0 0 0.333333
0 0.333333 0.333333
0 0 0.666667
0 0.333333 0.666667
0 0 1
0 0.333333 1
0 0.666667 0.333333
0 0.666667 0.666667
0 0.666667 1
0 1 0.333333
0 1 0.666667
0 1 1
0.333333 1 0.333333
0.333333 1 0.666667
0.333333 1 1
0.666667 1 0.333333
0.666667 1 0.666667
0.666667 1 1
0.333333 0 0.333333
0.333333 0 0.666667
0.333333 0 1
0.666667 0 0.333333
0.666667 0 0.666667
0.666667 0 1
3 0 1 2
3 0 2 3
3 1 4 5
3 1 5 2
3 4 6 7
3 4 7 5
3 3 2 8
3 3 8 9
3 2 5 10
3 2 10 8
3 5 7 11
3 5 11 10
3 9 8 12
3 9 12 13
3 8 10 14
3 8 14 12
3 10 11 15
3 10 15 14
3 13 12 16
3 13 16 17
3 17 16 18
3 17 18 19
3 19 18 20
3 19 20 21
3 12 14 22
3 12 22 16
3 16 22 23
3 16 23 18
3 18 23 24
3 18 24 20
3 14 15 25
3 14 25 22
3 22 25 26
3 22 26 23
3 23 26 27
3 23 27 24
3 0 28 29
3 0 29 1
3 28 30 31
3 28 31 29
3 30 32 33
3 30 33 31
3 1 29 34
3 1 34 4
3 29 31 35
3 29 35 34
3 31 33 36
3 31 36 35
3 4 34 37
3 4 37 6
3 34 35 38
3 34 38 37
3 35 36 39
3 35 39 38
3 6 37 40
3 6 40 7
3 37 38 41
3 37 41 40
3 38 39 42
3 38 42 41
3 7 40 43
3 7 43 11
3 40 41 44
3 40 44 43
3 41 42 45
3 41 45 44
3 11 43 25
3 11 25 15
3 43 44 26
3 43 26 25
3 44 45 27
3 44 27 26
3 0 3 46
3 0 46 28
3 28 46 47
3 28 47 30
3 30 47 48
3 30 48 32
3 3 9 49
3 3 49 46
3 46 49 50
3 46 50 47
3 47 50 51
3 47 51 48
3 9 13 17
3 9 17 49
3 49 17 19
3 49 19 50
3 50 19 21
3 50 21 51
