OFF
396 784 0
-0.69569100000000006 -0.054752000000000002 0
-0.69138200000000005 0.109504 0
-0.64472249999999998 -0.26705250000000003 0
-0.66164149999999999 -0.054752000000000002 -0.21498050000000002
-0.66164149999999999 -0.054752000000000002 0.21498050000000002
-0.65754299999999999 0.109504 -0.21364900000000001
-0.65754299999999999 0.109504 0.21364900000000001
-0.61316700000000002 -0.26705250000000003 -0.19922999999999999
-0.61316700000000002 -0.26705250000000003 0.19922999999999999
-0.64472249999999998 0.26705250000000003 0
-0.61316700000000002 0.26705250000000003 -0.19922999999999999
-0.61316700000000002 0.26705250000000003 0.19922999999999999
-0.56631200000000004 -0.41144999999999998 0
-0.56282600000000005 -0.054752000000000002 -0.40891699999999997
-0.56282600000000005 -0.054752000000000002 0.40891699999999997
-0.56631200000000004 0.41144999999999998 0
-0.55933999999999995 0.109504 -0.40638400000000002
-0.55933999999999995 0.109504 0.40638400000000002
-0.53859500000000005 -0.41144999999999998 -0.17499999999999999
-0.53859500000000005 -0.41144999999999998 0.17499999999999999
-0.52159149999999999 -0.26705250000000003 -0.37895800000000002
-0.52159149999999999 -0.26705250000000003 0.37895800000000002
-0.53859500000000005 0.41144999999999998 -0.17499999999999999
-0.53859500000000005 0.41144999999999998 0.17499999999999999
-0.52159149999999999 0.26705250000000003 -0.37895800000000002
-0.52159149999999999 0.26705250000000003 0.37895800000000002
-0.45321250000000002 -0.53064350000000005 0
-0.43103049999999998 -0.53064350000000005 -0.14005050000000002
-0.43103049999999998 -0.53064350000000005 0.14005050000000002
-0.45815600000000001 -0.41144999999999998 -0.33287
-0.45815600000000001 -0.41144999999999998 0.33287
-0.45815600000000001 0.41144999999999998 -0.33287
-0.45815600000000001 0.41144999999999998 0.33287
-0.40891699999999997 -0.054752000000000002 -0.56282600000000005
-0.40891699999999997 -0.054752000000000002 0.56282600000000005
-0.45321250000000002 0.53064350000000005 0
-0.40638400000000002 0.109504 -0.55933999999999995
-0.40638400000000002 0.109504 0.55933999999999995
-0.3666565 -0.53064350000000005 -0.2663915
-0.3666565 -0.53064350000000005 0.2663915
-0.37895800000000002 -0.26705250000000003 -0.52159149999999999
-0.37895800000000002 -0.26705250000000003 0.52159149999999999
-0.43103049999999998 0.53064350000000005 -0.14005050000000002
-0.43103049999999998 0.53064350000000005 0.14005050000000002
-0.37895800000000002 0.26705250000000003 -0.52159149999999999
-0.37895800000000002 0.26705250000000003 0.52159149999999999
-0.33287 -0.41144999999999998 -0.45815600000000001
-0.33287 -0.41144999999999998 0.45815600000000001
-0.33287 0.41144999999999998 -0.45815600000000001
-0.33287 0.41144999999999998 0.45815600000000001
-0.3666565 0.53064350000000005 -0.2663915
-0.3666565 0.53064350000000005 0.2663915
-0.31779299999999999 -0.62370499999999995 0
-0.31779299999999999 0.62370499999999995 0
-0.27966999999999997 -0.62370499999999995 0.14249899999999999
-0.27966999999999997 0.62370499999999995 0.14249899999999999
-0.2663915 -0.53064350000000005 -0.3666565
-0.2663915 -0.53064350000000005 0.3666565
-0.27966999999999997 -0.62370499999999995 -0.14249899999999999
-0.27966999999999997 0.62370499999999995 -0.14249899999999999
-0.2663915 0.53064350000000005 -0.3666565
-0.2663915 0.53064350000000005 0.3666565
-0.21498050000000002 -0.054752000000000002 -0.66164200000000006
-0.21498050000000002 -0.054752000000000002 0.66164149999999999
-0.21364900000000001 0.109504 -0.65754400000000002
-0.21364900000000001 0.109504 0.65754299999999999
-0.155653875 -0.67856099999999997 -0.020631000000000004
-0.19922999999999999 -0.26705250000000003 -0.61316750000000009
-0.19922999999999999 -0.26705250000000003 0.61316700000000002
-0.20837174999999999 0.66574 -0.016711
-0.19922999999999999 0.26705250000000003 -0.61316750000000009
-0.19922999999999999 0.26705250000000003 0.61316700000000002
-0.14249899999999999 -0.62370499999999995 0.27966999999999997
-0.14249899999999999 0.62370499999999995 0.27966999999999997
-0.1510725 -0.66574 0.1510725
-0.17499999999999999 -0.41144999999999998 -0.53859500000000005
-0.17499999999999999 -0.41144999999999998 0.53859500000000005
-0.17499999999999999 0.41144999999999998 -0.53859500000000005
-0.17499999999999999 0.41144999999999998 0.53859500000000005
-0.14005050000000002 -0.53064350000000005 -0.43103049999999998
-0.14005050000000002 -0.53064350000000005 0.43103049999999998
-0.1510725 -0.66574 -0.1510725
-0.14005050000000002 0.53064350000000005 -0.43103049999999998
-0.14005050000000002 0.53064350000000005 0.43103049999999998
-0.1510725 0.66574 -0.1510725
-0.12700424999999999 0.67856099999999997 0.087811749999999994
-0.14249899999999999 -0.62370499999999995 -0.27966999999999997
-0.14249899999999999 0.62370499999999995 -0.27966999999999997
-0.016711 -0.66574 0.20837174999999999
-0.014493250000000001 0.67856099999999997 0.15401187499999999
0.049826000000000002 -0.69569100000000006 0.0061377500000000008
0 -0.59500850000000005 -0.364622
0 -0.59500850000000005 0.36462149999999999
0 -0.45321250000000002 -0.53064350000000005
0 -0.45321250000000002 0.53064350000000005
0 -0.26705250000000003 -0.64472249999999998
0 -0.26705250000000003 0.64472249999999998
0 -0.109504 -0.69138200000000005
0 -0.109504 0.69138200000000005
0 0.054752000000000002 -0.69569100000000006
0 0.054752000000000002 0.69569100000000006
0 0.26705250000000003 -0.64472249999999998
0 0.26705250000000003 0.64472249999999998
0 0.41144999999999998 -0.56631200000000004
0 0.41144999999999998 0.56631200000000004
0 0.53064350000000005 -0.45321250000000002
0 0.53064350000000005 0.45321250000000002
0 0.62370499999999995 0.31779299999999999
-0.024092000000000002 -0.69138200000000005 0.087835500000000011
-0.024092000000000002 0.69138200000000005 -0.087835500000000011
-0.014493250000000001 -0.67856099999999997 -0.15401187499999999
-0.0083555000000000001 0.64472249999999998 -0.26308287499999999
0.049826000000000002 0.69569100000000006 -0.0061377500000000008
0.14249899999999999 -0.62370499999999995 0.27966950000000002
0.14249899999999999 0.62370499999999995 0.27966950000000002
0.1510725 -0.66574 0.1510725
0.14005050000000002 0.53064350000000005 -0.43103049999999998
0.14005050000000002 0.53064350000000005 0.43103049999999998
0.1510725 0.66574 0.1510725
0.14005050000000002 -0.53064350000000005 -0.43103049999999998
0.14005050000000002 -0.53064350000000005 0.43103049999999998
0.1510725 -0.66574 -0.1510725
0.17499999999999999 -0.41144999999999998 -0.53859500000000005
0.17499999999999999 -0.41144999999999998 0.53859500000000005
0.17499999999999999 0.41144999999999998 -0.53859500000000005
0.17499999999999999 0.41144999999999998 0.53859500000000005
0.1510725 0.66574 -0.1510725
0.14249899999999999 -0.62370499999999995 -0.27966999999999997
0.14249899999999999 0.62370499999999995 -0.27966999999999997
0.19922999999999999 0.26705250000000003 -0.61316750000000009
0.19922999999999999 0.26705250000000003 0.61316700000000002
0.20837174999999999 -0.66574 -0.016711
0.19922999999999999 -0.26705250000000003 -0.61316750000000009
0.19922999999999999 -0.26705250000000003 0.61316700000000002
0.20837174999999999 0.66574 -0.016711
0.21364900000000001 -0.109504 -0.65754400000000002
0.21364900000000001 -0.109504 0.65754299999999999
0.21498050000000002 0.054752000000000002 -0.66164200000000006
0.21498050000000002 0.054752000000000002 0.66164149999999999
0.2663915 0.53064350000000005 -0.3666565
0.2663915 0.53064350000000005 0.3666565
0.27966950000000002 -0.62370499999999995 0.14249899999999999
0.27966950000000002 0.62370499999999995 0.14249899999999999
0.2663915 -0.53064350000000005 -0.3666565
0.2663915 -0.53064350000000005 0.3666565
0.27966999999999997 -0.62370499999999995 -0.14249899999999999
0.27966999999999997 0.62370499999999995 -0.14249899999999999
0.36462149999999999 0.59500850000000005 0
0.33287 -0.41144999999999998 -0.45815600000000001
0.33287 -0.41144999999999998 0.45815600000000001
0.33287 0.41144999999999998 -0.45815600000000001
0.33287 0.41144999999999998 0.45815600000000001
0.3666565 0.53064350000000005 -0.2663915
0.3666565 0.53064350000000005 0.2663915
0.37895849999999998 0.26705250000000003 -0.52159149999999999
0.37895800000000002 0.26705250000000003 0.52159149999999999
0.43103049999999998 -0.53064350000000005 -0.14005050000000002
0.37895849999999998 -0.26705250000000003 -0.52159149999999999
0.37895800000000002 -0.26705250000000003 0.52159149999999999
0.43103049999999998 0.53064350000000005 0.14005050000000002
0.3666565 -0.53064350000000005 -0.2663915
0.3666565 -0.53064350000000005 0.2663915
0.40638400000000002 -0.109504 -0.55933999999999995
0.40638400000000002 -0.109504 0.55933999999999995
0.40891699999999997 0.054752000000000002 -0.56282600000000005
0.40891699999999997 0.054752000000000002 0.56282600000000005
0.36462149999999999 -0.59500850000000005 0
0.45815600000000001 -0.41144999999999998 -0.33287
0.45815600000000001 -0.41144999999999998 0.33287
0.45815600000000001 0.41144999999999998 -0.33287
0.45815600000000001 0.41144999999999998 0.33287
0.43103049999999998 -0.53064350000000005 0.14005050000000002
0.43103049999999998 0.53064350000000005 -0.14005050000000002
0.53064350000000005 0.45321250000000002 0
0.52159149999999999 0.26705250000000003 -0.37895849999999998
0.52159149999999999 0.26705250000000003 0.37895800000000002
0.53859500000000005 -0.41144999999999998 -0.17499999999999999
0.53859500000000005 -0.41144999999999998 0.17499999999999999
0.52159149999999999 -0.26705250000000003 -0.37895849999999998
0.52159149999999999 -0.26705250000000003 0.37895800000000002
0.53859500000000005 0.41144999999999998 -0.17499999999999999
0.53859500000000005 0.41144999999999998 0.17499999999999999
0.55933999999999995 -0.109504 -0.40638400000000002
0.55933999999999995 -0.109504 0.40638400000000002
0.56282600000000005 0.054752000000000002 -0.40891699999999997
0.56282600000000005 0.054752000000000002 0.40891699999999997
0.53064350000000005 -0.45321250000000002 0
0.61316750000000009 -0.26705250000000003 -0.19922999999999999
0.61316700000000002 0.26705250000000003 0.19922999999999999
0.64472249999999998 0.26705250000000003 0
0.61316700000000002 -0.26705250000000003 0.19922999999999999
0.61316750000000009 0.26705250000000003 -0.19922999999999999
0.66164200000000006 -0.054752000000000002 -0.21498050000000002
0.65754299999999999 -0.109504 0.21364900000000001
0.65754400000000002 0.109504 -0.21364900000000001
0.66164149999999999 0.054752000000000002 0.21498050000000002
0.64472249999999998 -0.26705250000000003 0
0.69138200000000005 -0.109504 0
0.69569100000000006 0.054752000000000002 0
-0.39569100000000001 -0.054752000000000002 0
-0.39138200000000006 0.109504 0
-0.34472249999999999 -0.26705250000000003 0
-0.3616415 -0.054752000000000002 -0.21498050000000002
-0.3616415 -0.054752000000000002 0.21498050000000002
-0.357543 0.109504 -0.21364900000000001
-0.357543 0.109504 0.21364900000000001
-0.31316700000000003 -0.26705250000000003 -0.19922999999999999
-0.31316700000000003 -0.26705250000000003 0.19922999999999999
-0.34472249999999999 0.26705250000000003 0
-0.31316700000000003 0.26705250000000003 -0.19922999999999999
-0.31316700000000003 0.26705250000000003 0.19922999999999999
-0.26631200000000005 -0.41144999999999998 0
-0.262826 -0.054752000000000002 -0.40891699999999997
-0.262826 -0.054752000000000002 0.40891699999999997
-0.26631200000000005 0.41144999999999998 0
-0.25933999999999996 0.109504 -0.40638400000000002
-0.25933999999999996 0.109504 0.40638400000000002
-0.23859500000000006 -0.41144999999999998 -0.17499999999999999
-0.23859500000000006 -0.41144999999999998 0.17499999999999999
-0.22159150000000005 -0.26705250000000003 -0.37895800000000002
-0.22159150000000005 -0.26705250000000003 0.37895800000000002
-0.23859500000000006 0.41144999999999998 -0.17499999999999999
-0.23859500000000006 0.41144999999999998 0.17499999999999999
-0.22159150000000005 0.26705250000000003 -0.37895800000000002
-0.22159150000000005 0.26705250000000003 0.37895800000000002
-0.1532125 -0.53064350000000005 0
-0.13103049999999999 -0.53064350000000005 -0.14005050000000002
-0.13103049999999999 -0.53064350000000005 0.14005050000000002
-0.15815600000000002 -0.41144999999999998 -0.33287
-0.15815600000000002 -0.41144999999999998 0.33287
-0.15815600000000002 0.41144999999999998 -0.33287
-0.15815600000000002 0.41144999999999998 0.33287
-0.10891700000000001 -0.054752000000000002 -0.56282600000000005
-0.10891700000000001 -0.054752000000000002 0.56282600000000005
-0.1532125 0.53064350000000005 0
-0.10638400000000003 0.109504 -0.55933999999999995
-0.10638400000000003 0.109504 0.55933999999999995
-0.066656500000000007 -0.53064350000000005 -0.2663915
-0.066656500000000007 -0.53064350000000005 0.2663915
-0.078958 -0.26705250000000003 -0.52159149999999999
-0.078958 -0.26705250000000003 0.52159149999999999
-0.13103049999999999 0.53064350000000005 -0.14005050000000002
-0.13103049999999999 0.53064350000000005 0.14005050000000002
-0.078958 0.26705250000000003 -0.52159149999999999
-0.078958 0.26705250000000003 0.52159149999999999
-0.03287000000000001 -0.41144999999999998 -0.45815600000000001
-0.03287000000000001 -0.41144999999999998 0.45815600000000001
-0.03287000000000001 0.41144999999999998 -0.45815600000000001
-0.03287000000000001 0.41144999999999998 0.45815600000000001
-0.066656500000000007 0.53064350000000005 -0.2663915
-0.066656500000000007 0.53064350000000005 0.2663915
0.036917624999999996 -0.64472249999999998 -0.0083555000000000001
0.020329999999999987 -0.62370499999999995 0.14249899999999999
0.020329999999999987 0.62370499999999995 0.14249899999999999
0.033608499999999986 -0.53064350000000005 -0.3666565
0.033608499999999986 -0.53064350000000005 0.3666565
0.020329999999999987 -0.62370499999999995 -0.14249899999999999
0.020329999999999987 0.62370499999999995 -0.14249899999999999
0.033608499999999986 0.53064350000000005 -0.3666565
0.033608499999999986 0.53064350000000005 0.3666565
0.085019499999999984 -0.054752000000000002 -0.66164200000000006
0.085019499999999984 -0.054752000000000002 0.66164149999999999
0.086350999999999983 0.109504 -0.65754400000000002
0.086350999999999983 0.109504 0.65754299999999999
0.10077 -0.26705250000000003 -0.61316750000000009
0.10077 -0.26705250000000003 0.61316700000000002
0.036917624999999996 0.64472249999999998 -0.0083555000000000001
0.10077 0.26705250000000003 -0.61316750000000009
0.10077 0.26705250000000003 0.61316700000000002
0.157501 -0.62370499999999995 0.27966999999999997
0.157501 0.62370499999999995 0.27966999999999997
0.14892749999999999 -0.66574 0.1510725
0.125 -0.41144999999999998 -0.53859500000000005
0.125 -0.41144999999999998 0.53859500000000005
0.125 0.41144999999999998 -0.53859500000000005
0.125 0.41144999999999998 0.53859500000000005
0.14892749999999999 0.66574 0.1510725
0.15994949999999997 -0.53064350000000005 -0.43103049999999998
0.15994949999999997 -0.53064350000000005 0.43103049999999998
0.14892749999999999 -0.66574 -0.1510725
0.15994949999999997 0.53064350000000005 -0.43103049999999998
0.15994949999999997 0.53064350000000005 0.43103049999999998
0.14892749999999999 0.66574 -0.1510725
0.157501 -0.62370499999999995 -0.27966999999999997
0.157501 0.62370499999999995 -0.27966999999999997
0.28328900000000001 -0.66574 0.20837174999999999
0.29164449999999997 0.64472249999999998 0.26308237499999998
0.29386224999999999 -0.69569100000000006 -0.049826000000000002
0.21216449999999998 -0.69138200000000005 0.024092000000000002
0.21216449999999998 0.69138200000000005 -0.024092000000000002
0.29999999999999999 -0.59500850000000005 -0.364622
0.29999999999999999 -0.59500850000000005 0.36462149999999999
0.29999999999999999 -0.45321250000000002 -0.53064350000000005
0.29999999999999999 -0.45321250000000002 0.53064350000000005
0.29999999999999999 -0.26705250000000003 -0.64472249999999998
0.29999999999999999 -0.26705250000000003 0.64472249999999998
0.29999999999999999 -0.109504 -0.69138200000000005
0.29999999999999999 -0.109504 0.69138200000000005
0.29999999999999999 0.054752000000000002 -0.69569100000000006
0.29999999999999999 0.054752000000000002 0.69569100000000006
0.29999999999999999 0.26705250000000003 -0.64472249999999998
0.29999999999999999 0.26705250000000003 0.64472249999999998
0.29999999999999999 0.41144999999999998 -0.56631200000000004
0.29999999999999999 0.41144999999999998 0.56631200000000004
0.29999999999999999 0.53064350000000005 -0.45321250000000002
0.29999999999999999 0.53064350000000005 0.45321250000000002
0.29999999999999999 0.62370499999999995 -0.31779400000000002
0.29386224999999999 0.69569100000000006 0.049826000000000002
0.38781175000000001 0.67856099999999997 -0.12700424999999999
0.28328900000000001 -0.66574 -0.20837174999999999
0.28328900000000001 0.66574 -0.20837174999999999
0.45401187500000001 -0.67856099999999997 -0.0022177499999999992
0.44249899999999998 -0.62370499999999995 0.27966950000000002
0.44249899999999998 0.62370499999999995 0.27966950000000002
0.38781175000000001 -0.67856099999999997 0.12700424999999999
0.44005050000000001 0.53064350000000005 -0.43103049999999998
0.44005050000000001 0.53064350000000005 0.43103049999999998
0.45107249999999999 0.66574 0.1510725
0.44005050000000001 -0.53064350000000005 -0.43103049999999998
0.44005050000000001 -0.53064350000000005 0.43103049999999998
0.45107249999999999 -0.66574 -0.1510725
0.47499999999999998 -0.41144999999999998 -0.53859500000000005
0.47499999999999998 -0.41144999999999998 0.53859500000000005
0.47499999999999998 0.41144999999999998 -0.53859500000000005
0.47499999999999998 0.41144999999999998 0.53859500000000005
0.44249899999999998 -0.62370499999999995 -0.27966999999999997
0.44249899999999998 0.62370499999999995 -0.27966999999999997
0.49922999999999995 0.26705250000000003 -0.61316750000000009
0.49922999999999995 0.26705250000000003 0.61316700000000002
0.49922999999999995 -0.26705250000000003 -0.61316750000000009
0.49922999999999995 -0.26705250000000003 0.61316700000000002
0.45401187500000001 0.67856099999999997 -0.014493250000000001
0.51364900000000002 -0.109504 -0.65754400000000002
0.51364900000000002 -0.109504 0.65754299999999999
0.51498050000000006 0.054752000000000002 -0.66164200000000006
0.51498050000000006 0.054752000000000002 0.66164149999999999
0.56639149999999994 0.53064350000000005 -0.3666565
0.56639149999999994 0.53064350000000005 0.3666565
0.57966949999999995 -0.62370499999999995 0.14249899999999999
0.57966949999999995 0.62370499999999995 0.14249899999999999
0.56639149999999994 -0.53064350000000005 -0.3666565
0.56639149999999994 -0.53064350000000005 0.3666565
0.57966999999999991 -0.62370499999999995 -0.14249899999999999
0.57966999999999991 0.62370499999999995 -0.14249899999999999
0.66462149999999998 0.59500850000000005 0
0.63287000000000004 -0.41144999999999998 -0.45815600000000001
0.63287000000000004 -0.41144999999999998 0.45815600000000001
0.63287000000000004 0.41144999999999998 -0.45815600000000001
0.63287000000000004 0.41144999999999998 0.45815600000000001
0.66665649999999999 0.53064350000000005 -0.2663915
0.66665649999999999 0.53064350000000005 0.2663915
0.67895850000000002 0.26705250000000003 -0.52159149999999999
0.67895799999999995 0.26705250000000003 0.52159149999999999
0.73103049999999992 -0.53064350000000005 -0.14005050000000002
0.67895850000000002 -0.26705250000000003 -0.52159149999999999
0.67895799999999995 -0.26705250000000003 0.52159149999999999
0.73103049999999992 0.53064350000000005 0.14005050000000002
0.66665649999999999 -0.53064350000000005 -0.2663915
0.66665649999999999 -0.53064350000000005 0.2663915
0.70638400000000001 -0.109504 -0.55933999999999995
0.70638400000000001 -0.109504 0.55933999999999995
0.70891700000000002 0.054752000000000002 -0.56282600000000005
0.70891700000000002 0.054752000000000002 0.56282600000000005
0.66462149999999998 -0.59500850000000005 0
0.75815600000000005 -0.41144999999999998 -0.33287
0.75815600000000005 -0.41144999999999998 0.33287
0.75815600000000005 0.41144999999999998 -0.33287
0.75815600000000005 0.41144999999999998 0.33287
0.73103049999999992 -0.53064350000000005 0.14005050000000002
0.73103049999999992 0.53064350000000005 -0.14005050000000002
0.83064349999999998 0.45321250000000002 0
0.82159150000000003 0.26705250000000003 -0.37895849999999998
0.82159150000000003 0.26705250000000003 0.37895800000000002
0.83859499999999998 -0.41144999999999998 -0.17499999999999999
0.83859499999999998 -0.41144999999999998 0.17499999999999999
0.82159150000000003 -0.26705250000000003 -0.37895849999999998
0.82159150000000003 -0.26705250000000003 0.37895800000000002
0.83859499999999998 0.41144999999999998 -0.17499999999999999
0.83859499999999998 0.41144999999999998 0.17499999999999999
0.85933999999999999 -0.109504 -0.40638400000000002
0.85933999999999999 -0.109504 0.40638400000000002
0.86282599999999998 0.054752000000000002 -0.40891699999999997
0.86282599999999998 0.054752000000000002 0.40891699999999997
0.83064349999999998 -0.45321250000000002 0
0.91316750000000002 -0.26705250000000003 -0.19922999999999999
0.91316700000000006 0.26705250000000003 0.19922999999999999
0.94472250000000002 0.26705250000000003 0
0.91316700000000006 -0.26705250000000003 0.19922999999999999
0.91316750000000002 0.26705250000000003 -0.19922999999999999
0.961642 -0.054752000000000002 -0.21498050000000002
0.95754300000000003 -0.109504 0.21364900000000001
0.95754399999999995 0.109504 -0.21364900000000001
0.96164150000000004 0.054752000000000002 0.21498050000000002
0.94472250000000002 -0.26705250000000003 0
0.99138199999999999 -0.109504 0
0.99569099999999999 0.054752000000000002 0
3 131 90 121
3 90 110 121
3 110 66 81
3 66 108 74
3 74 108 88
3 88 108 115
3 108 90 115
3 115 90 131
3 131 121 145
3 145 121 127
3 121 110 127
3 127 110 91
3 91 110 86
3 110 81 86
3 86 81 58
3 81 66 58
3 58 66 52
3 52 66 54
3 66 74 54
3 54 74 72
3 74 88 72
3 72 88 92
3 92 88 113
3 88 115 113
3 113 115 141
3 115 131 141
3 141 131 166
3 166 131 145
3 156 145 160
3 145 127 160
3 160 127 143
3 143 127 119
3 127 91 119
3 91 86 79
3 79 86 56
3 86 58 56
3 56 58 38
3 38 58 27
3 58 52 27
3 27 52 26
3 52 54 26
3 26 54 28
3 28 54 39
3 54 72 39
3 39 72 57
3 57 72 80
3 72 92 80
3 92 113 120
3 120 113 144
3 113 141 144
3 144 141 161
3 161 141 171
3 141 166 171
3 166 145 156
3 119 91 93
3 91 79 93
3 80 92 94
3 92 120 94
3 171 166 186
3 166 156 186
3 156 160 176
3 176 160 167
3 160 143 167
3 167 143 148
3 143 119 148
3 148 119 122
3 119 93 122
3 93 79 75
3 79 56 75
3 75 56 46
3 56 38 46
3 46 38 29
3 38 27 29
3 29 27 18
3 27 26 18
3 18 26 12
3 26 28 12
3 12 28 19
3 28 39 19
3 19 39 30
3 39 57 30
3 30 57 47
3 57 80 47
3 47 80 76
3 80 94 76
3 94 120 123
3 120 144 123
3 123 144 149
3 144 161 149
3 149 161 168
3 161 171 168
3 168 171 177
3 171 186 177
3 186 156 176
3 176 167 187
3 187 167 178
3 167 148 178
3 178 148 157
3 148 122 157
3 157 122 132
3 122 93 132
3 132 93 95
3 93 75 95
3 95 75 67
3 75 46 67
3 67 46 40
3 46 29 40
3 40 29 20
3 29 18 20
3 20 18 7
3 18 12 7
3 7 12 2
3 12 19 2
3 2 19 8
3 19 30 8
3 8 30 21
3 30 47 21
3 21 47 41
3 47 76 41
3 41 76 68
3 76 94 68
3 68 94 96
3 94 123 96
3 96 123 133
3 123 149 133
3 133 149 158
3 149 168 158
3 158 168 179
3 168 177 179
3 179 177 190
3 177 186 190
3 190 186 196
3 186 176 196
3 196 176 187
3 187 178 192
3 192 178 182
3 178 157 182
3 182 157 162
3 157 132 162
3 162 132 135
3 132 95 135
3 135 95 97
3 95 67 97
3 97 67 62
3 67 40 62
3 62 40 33
3 40 20 33
3 33 20 13
3 20 7 13
3 13 7 3
3 7 2 3
3 3 2 0
3 2 8 0
3 0 8 4
3 8 21 4
3 4 21 14
3 21 41 14
3 14 41 34
3 41 68 34
3 34 68 63
3 68 96 63
3 63 96 98
3 96 133 98
3 98 133 136
3 133 158 136
3 136 158 163
3 158 179 163
3 163 179 183
3 179 190 183
3 183 190 193
3 190 196 193
3 193 196 197
3 196 187 197
3 197 187 192
3 192 182 184
3 182 162 184
3 184 162 164
3 162 135 164
3 164 135 137
3 135 97 137
3 137 97 99
3 97 62 99
3 63 98 100
3 98 136 100
3 100 136 138
3 136 163 138
3 138 163 165
3 163 183 165
3 165 183 185
3 183 193 185
3 185 193 195
3 193 197 195
3 195 197 198
3 197 192 198
3 192 184 194
3 99 62 64
3 62 33 64
3 64 33 36
3 33 13 36
3 36 13 16
3 13 3 16
3 16 3 5
3 3 0 5
3 5 0 1
3 0 4 1
3 1 4 6
3 4 14 6
3 6 14 17
3 14 34 17
3 17 34 37
3 34 63 37
3 37 63 65
3 63 100 65
3 198 192 194
3 194 184 191
3 191 184 174
3 184 164 174
3 174 164 154
3 164 137 154
3 154 137 129
3 137 99 129
3 129 99 101
3 99 64 101
3 101 64 70
3 64 36 70
3 70 36 44
3 36 16 44
3 44 16 24
3 16 5 24
3 24 5 10
3 5 1 10
3 10 1 9
3 1 6 9
3 9 6 11
3 6 17 11
3 11 17 25
3 17 37 25
3 25 37 45
3 37 65 45
3 45 65 71
3 65 100 71
3 71 100 102
3 100 138 102
3 102 138 130
3 138 165 130
3 130 165 155
3 165 185 155
3 155 185 175
3 185 195 175
3 175 195 188
3 195 198 188
3 188 198 189
3 198 194 189
3 189 194 191
3 191 174 180
3 180 174 169
3 174 154 169
3 169 154 150
3 154 129 150
3 150 129 124
3 129 101 124
3 124 101 103
3 101 70 103
3 103 70 77
3 70 44 77
3 77 44 48
3 44 24 48
3 48 24 31
3 24 10 31
3 31 10 22
3 10 9 22
3 22 9 15
3 9 11 15
3 15 11 23
3 11 25 23
3 23 25 32
3 25 45 32
3 32 45 49
3 45 71 49
3 49 71 78
3 71 102 78
3 78 102 104
3 102 130 104
3 104 130 125
3 130 155 125
3 125 155 151
3 155 175 151
3 151 175 170
3 175 188 170
3 170 188 181
3 188 189 181
3 181 189 173
3 189 191 173
3 173 191 180
3 180 169 172
3 172 169 152
3 169 150 152
3 152 150 139
3 150 124 139
3 139 124 116
3 124 103 116
3 116 103 105
3 103 77 105
3 105 77 82
3 77 48 82
3 82 48 60
3 48 31 60
3 60 31 50
3 31 22 50
3 50 22 42
3 22 15 42
3 42 15 35
3 15 23 35
3 35 23 43
3 23 32 43
3 43 32 51
3 32 49 51
3 51 49 61
3 49 78 61
3 61 78 83
3 78 104 83
3 83 104 106
3 104 125 106
3 106 125 117
3 125 151 117
3 117 151 140
3 151 170 140
3 140 170 153
3 170 181 153
3 153 181 159
3 181 173 159
3 173 180 172
3 159 173 147
3 173 172 147
3 172 152 146
3 152 139 146
3 146 139 128
3 139 116 128
3 116 105 128
3 128 105 111
3 105 82 111
3 111 82 87
3 82 60 87
3 60 50 87
3 87 50 59
3 50 42 59
3 42 35 59
3 59 35 53
3 35 43 53
3 53 43 55
3 43 51 55
3 51 61 55
3 55 61 73
3 61 83 73
3 83 106 73
3 73 106 107
3 106 117 107
3 107 117 114
3 117 140 114
3 140 153 114
3 114 153 142
3 153 159 142
3 159 147 142
3 147 172 146
3 134 146 126
3 146 128 126
3 126 128 111
3 111 87 84
3 87 59 84
3 84 59 69
3 59 53 69
3 53 55 69
3 69 55 85
3 55 73 85
3 85 73 89
3 73 107 89
3 107 114 89
3 89 114 118
3 114 142 118
3 118 142 134
3 142 147 134
3 147 146 134
3 134 126 112
3 112 126 109
3 126 111 109
3 111 84 109
3 84 69 109
3 109 69 85
3 89 118 112
3 118 134 112
3 66 110 90
3 108 66 90
3 109 85 112
3 85 89 112
3 311 287 320
3 320 287 309
3 309 287 279
3 287 288 279
3 279 288 251
3 251 288 271
3 271 288 285
3 288 314 285
3 311 320 342
3 342 320 325
3 320 309 325
3 325 309 290
3 290 309 283
3 309 279 283
3 283 279 256
3 279 251 256
3 251 271 252
3 252 271 269
3 271 285 269
3 269 285 291
3 291 285 312
3 285 314 312
3 312 314 338
3 314 311 338
3 338 311 363
3 363 311 342
3 353 342 357
3 342 325 357
3 357 325 340
3 340 325 318
3 325 290 318
3 290 283 277
3 277 283 254
3 283 256 254
3 254 256 237
3 237 256 226
3 256 251 226
3 226 251 225
3 251 252 225
3 225 252 227
3 227 252 238
3 252 269 238
3 238 269 255
3 255 269 278
3 269 291 278
3 291 312 319
3 319 312 341
3 312 338 341
3 341 338 358
3 358 338 368
3 338 363 368
3 363 342 353
3 318 290 292
3 290 277 292
3 278 291 293
3 291 319 293
3 368 363 383
3 363 353 383
3 353 357 373
3 373 357 364
3 357 340 364
3 364 340 345
3 340 318 345
3 345 318 321
3 318 292 321
3 292 277 272
3 277 254 272
3 272 254 245
3 254 237 245
3 245 237 228
3 237 226 228
3 228 226 217
3 226 225 217
3 217 225 211
3 225 227 211
3 211 227 218
3 227 238 218
3 218 238 229
3 238 255 229
3 229 255 246
3 255 278 246
3 246 278 273
3 278 293 273
3 293 319 322
3 319 341 322
3 322 341 346
3 341 358 346
3 346 358 365
3 358 368 365
3 365 368 374
3 368 383 374
3 383 353 373
3 373 364 384
3 384 364 375
3 364 345 375
3 375 345 354
3 345 321 354
3 354 321 329
3 321 292 329
3 329 292 294
3 292 272 294
3 294 272 264
3 272 245 264
3 264 245 239
3 245 228 239
3 239 228 219
3 228 217 219
3 219 217 206
3 217 211 206
3 206 211 201
3 211 218 201
3 201 218 207
3 218 229 207
3 207 229 220
3 229 246 220
3 220 246 240
3 246 273 240
3 240 273 265
3 273 293 265
3 265 293 295
3 293 322 295
3 295 322 330
3 322 346 330
3 330 346 355
3 346 365 355
3 355 365 376
3 365 374 376
3 376 374 387
3 374 383 387
3 387 383 393
3 383 373 393
3 393 373 384
3 384 375 389
3 389 375 379
3 375 354 379
3 379 354 359
3 354 329 359
3 359 329 332
3 329 294 332
3 332 294 296
3 294 264 296
3 296 264 260
3 264 239 260
3 260 239 232
3 239 219 232
3 232 219 212
3 219 206 212
3 212 206 202
3 206 201 202
3 202 201 199
3 201 207 199
3 199 207 203
3 207 220 203
3 203 220 213
3 220 240 213
3 213 240 233
3 240 265 233
3 233 265 261
3 265 295 261
3 261 295 297
3 295 330 297
3 297 330 333
3 330 355 333
3 333 355 360
3 355 376 360
3 360 376 380
3 376 387 380
3 380 387 390
3 387 393 390
3 390 393 394
3 393 384 394
3 394 384 389
3 389 379 381
3 379 359 381
3 381 359 361
3 359 332 361
3 361 332 334
3 332 296 334
3 334 296 298
3 296 260 298
3 261 297 299
3 297 333 299
3 299 333 335
3 333 360 335
3 335 360 362
3 360 380 362
3 362 380 382
3 380 390 382
3 382 390 392
3 390 394 392
3 392 394 395
3 394 389 395
3 389 381 391
3 298 260 262
3 260 232 262
3 262 232 235
3 232 212 235
3 235 212 215
3 212 202 215
3 215 202 204
3 202 199 204
3 204 199 200
3 199 203 200
3 200 203 205
3 203 213 205
3 205 213 216
3 213 233 216
3 216 233 236
3 233 261 236
3 236 261 263
3 261 299 263
3 395 389 391
3 391 381 388
3 388 381 371
3 381 361 371
3 371 361 351
3 361 334 351
3 351 334 327
3 334 298 327
3 327 298 300
3 298 262 300
3 300 262 267
3 262 235 267
3 267 235 243
3 235 215 243
3 243 215 223
3 215 204 223
3 223 204 209
3 204 200 209
3 209 200 208
3 200 205 208
3 208 205 210
3 205 216 210
3 210 216 224
3 216 236 224
3 224 236 244
3 236 263 244
3 244 263 268
3 263 299 268
3 268 299 301
3 299 335 301
3 301 335 328
3 335 362 328
3 328 362 352
3 362 382 352
3 352 382 372
3 382 392 372
3 372 392 385
3 392 395 385
3 385 395 386
3 395 391 386
3 386 391 388
3 388 371 377
3 377 371 366
3 371 351 366
3 366 351 347
3 351 327 347
3 347 327 323
3 327 300 323
3 323 300 302
3 300 267 302
3 302 267 274
3 267 243 274
3 274 243 247
3 243 223 247
3 247 223 230
3 223 209 230
3 230 209 221
3 209 208 221
3 221 208 214
3 208 210 214
3 214 210 222
3 210 224 222
3 222 224 231
3 224 244 231
3 231 244 248
3 244 268 248
3 248 268 275
3 268 301 275
3 275 301 303
3 301 328 303
3 303 328 324
3 328 352 324
3 324 352 348
3 352 372 348
3 348 372 367
3 372 385 367
3 367 385 378
3 385 386 378
3 378 386 370
3 386 388 370
3 370 388 377
3 377 366 369
3 369 366 349
3 366 347 349
3 349 347 336
3 347 323 336
3 336 323 315
3 323 302 315
3 315 302 304
3 302 274 304
3 304 274 280
3 274 247 280
3 280 247 258
3 247 230 258
3 258 230 249
3 230 221 249
3 249 221 241
3 221 214 241
3 241 214 234
3 214 222 234
3 234 222 242
3 222 231 242
3 242 231 250
3 231 248 250
3 250 248 259
3 248 275 259
3 259 275 281
3 275 303 281
3 281 303 305
3 303 324 305
3 305 324 316
3 324 348 316
3 316 348 337
3 348 367 337
3 337 367 350
3 367 378 350
3 350 378 356
3 378 370 356
3 370 377 369
3 356 370 344
3 370 369 344
3 369 349 343
3 349 336 343
3 343 336 326
3 336 315 326
3 315 304 326
3 326 304 306
3 304 280 306
3 306 280 284
3 280 258 284
3 258 249 284
3 284 249 257
3 249 241 257
3 241 234 257
3 257 234 266
3 234 242 266
3 266 242 253
3 242 250 253
3 250 259 253
3 253 259 270
3 259 281 270
3 281 305 270
3 270 305 286
3 305 316 286
3 286 316 313
3 316 337 313
3 337 350 313
3 313 350 339
3 350 356 339
3 356 344 339
3 344 369 343
3 331 343 308
3 343 326 308
3 308 326 310
3 326 306 310
3 306 284 310
3 310 284 282
3 284 257 282
3 282 257 266
3 266 253 276
3 253 270 276
3 276 270 286
3 286 313 317
3 313 339 317
3 317 339 331
3 339 344 331
3 344 343 331
3 308 310 289
3 310 282 289
3 282 266 289
3 266 276 289
3 289 276 307
3 276 286 307
3 286 317 307
3 307 317 331
3 314 288 287
3 311 314 287
3 331 308 307
3 308 289 307
