OFF
8 0 0
0.26592910955928761 0.2160182883365207 -0.21646791550212388
-0.14285643336298892 -0.019629630145058086 -0.24995448345839794
0.22912798244472865 -0.023267352046456358 0.14079509277815233
0.34253248762628896 0.21980307853654113 -0.15743347283637379
-0.044308196410174472 -0.10715186609103614 -0.32504183037329254
0.18704634712732637 -0.13524048980136566 0.27058043845864466
-0.27468893872999289 -0.11711092907846038 -0.093588005581701772
-0.05772468232625183 0.060897787096344469 -0.099548687049738349
