OFF
12 9 0
-0.21373984187363401 -0.26236628003265366 0.013170529771140527
0.28730276185040049 0.15920080828616379 0.18527755678730606
0.078643608692182787 0.29566433534709269 -0.17198705193593242
-0.028898450604916581 0.20858967772278481 -0.11799004282394057
0.21932417942634708 -0.26705109615457012 -0.17218751902396701
-0.13620024728180583 -0.31281078364698478 0.27238648530073151
0.23324740179396963 -0.26181600841786351 -0.26710115609603902
0.062609070682213774 0.12221632984612313 0.18764653364166584
0.060129430985248089 0.2517149035115398 -0.093044713593927353
-0.10463903420504508 0.067217507001115562 0.27197682370799281
0.18408241688471727 0.049019740197288442 -0.016761249953183177
-0.2651712770282843 0.076248491908021632 -0.10556206731060583
2 0 1
2 1 2
2 2 3
2 4 5
2 5 6
2 6 7
2 8 9
2 9 10
2 10 11
