OFF
304 600 0
0.0 0.0 0.0
0.2 0.0 0.0
0.2 0.2 0.0
0.0 0.2 0.0
0.2 0.4 0.0
0.0 0.4 0.0
0.2 0.6 0.0
0.0 0.6 0.0
0.2 0.8 0.0
0.0 0.8 0.0
0.2 1.0 0.0
0.0 1.0 0.0
0.4 0.0 0.0
0.4 0.2 0.0
0.4 0.4 0.0
0.4 0.6 0.0
0.4 0.8 0.0
0.4 1.0 0.0
0.6 0.0 0.0
0.6 0.2 0.0
0.6 0.4 0.0
0.6 0.6 0.0
0.6 0.8 0.0
0.6 1.0 0.0
0.8 0.0 0.0
0.8 0.2 0.0
0.8 0.4 0.0
0.8 0.6 0.0
0.8 0.8 0.0
0.8 1.0 0.0
1.0 0.0 0.0
1.0 0.2 0.0
1.0 0.4 0.0
1.0 0.6 0.0
1.0 0.8 0.0
1.0 1.0 0.0
0.0 0.0 1.0
0.2 0.0 1.0
0.2 0.2 1.0
0.0 0.2 1.0
0.2 0.4 1.0
0.0 0.4 1.0
0.2 0.6 1.0
0.0 0.6 1.0
0.2 0.8 1.0
0.0 0.8 1.0
0.2 1.0 1.0
0.0 1.0 1.0
0.4 0.0 1.0
0.4 0.2 1.0
0.4 0.4 1.0
0.4 0.6 1.0
0.4 0.8 1.0
0.4 1.0 1.0
0.6 0.0 1.0
0.6 0.2 1.0
0.6 0.4 1.0
0.6 0.6 1.0
0.6 0.8 1.0
0.6 1.0 1.0
0.8 0.0 1.0
0.8 0.2 1.0
0.8 0.4 1.0
0.8 0.6 1.0
0.8 0.8 1.0
0.8 1.0 1.0
1.0 0.0 1.0
1.0 0.2 1.0
1.0 0.4 1.0
1.0 0.6 1.0
1.0 0.8 1.0
1.0 1.0 1.0
0.2 0.0 0.2
0.0 0.0 0.2
0.2 0.0 0.4
0.0 0.0 0.4
0.2 0.0 0.6
0.0 0.0 0.6
0.2 0.0 0.8
0.0 0.0 0.8
0.4 0.0 0.2
0.4 0.0 0.4
0.4 0.0 0.6
0.4 0.0 0.8
0.6 0.0 0.2
0.6 0.0 0.4
0.6 0.0 0.6
0.6 0.0 0.8
0.8 0.0 0.2
0.8 0.0 0.4
0.8 0.0 0.6
0.8 0.0 0.8
1.0 0.0 0.2
1.0 0.0 0.4
1.0 0.0 0.6
1.0 0.0 0.8
0.2 1.0 0.2
0.0 1.0 0.2
0.2 1.0 0.4
0.0 1.0 0.4
0.2 1.0 0.6
0.0 1.0 0.6
0.2 1.0 0.8
0.0 1.0 0.8
0.4 1.0 0.2
0.4 1.0 0.4
0.4 1.0 0.6
0.4 1.0 0.8
0.6 1.0 0.2
0.6 1.0 0.4
0.6 1.0 0.6
0.6 1.0 0.8
0.8 1.0 0.2
0.8 1.0 0.4
0.8 1.0 0.6
0.8 1.0 0.8
1.0 1.0 0.2
1.0 1.0 0.4
1.0 1.0 0.6
1.0 1.0 0.8
0.0 0.2 0.2
0.0 0.2 0.4
0.0 0.2 0.6
0.0 0.2 0.8
0.0 0.4 0.2
0.0 0.4 0.4
0.0 0.4 0.6
0.0 0.4 0.8
0.0 0.6 0.2
0.0 0.6 0.4
0.0 0.6 0.6
0.0 0.6 0.8
0.0 0.8 0.2
0.0 0.8 0.4
0.0 0.8 0.6
0.0 0.8 0.8
1.0 0.2 0.2
1.0 0.2 0.4
1.0 0.2 0.6
1.0 0.2 0.8
1.0 0.4 0.2
1.0 0.4 0.4
1.0 0.4 0.6
1.0 0.4 0.8
1.0 0.6 0.2
1.0 0.6 0.4
1.0 0.6 0.6
1.0 0.6 0.8
1.0 0.8 0.2
1.0 0.8 0.4
1.0 0.8 0.6
1.0 0.8 0.8
2.0 0.0 0.0
2.2 0.0 0.0
2.2 0.2 0.0
2.0 0.2 0.0
2.2 0.4 0.0
2.0 0.4 0.0
2.2 0.6 0.0
2.0 0.6 0.0
2.2 0.8 0.0
2.0 0.8 0.0
2.2 1.0 0.0
2.0 1.0 0.0
2.4 0.0 0.0
2.4 0.2 0.0
2.4 0.4 0.0
2.4 0.6 0.0
2.4 0.8 0.0
2.4 1.0 0.0
2.6 0.0 0.0
2.6 0.2 0.0
2.6 0.4 0.0
2.6 0.6 0.0
2.6 0.8 0.0
2.6 1.0 0.0
2.8 0.0 0.0
2.8 0.2 0.0
2.8 0.4 0.0
2.8 0.6 0.0
2.8 0.8 0.0
2.8 1.0 0.0
3.0 0.0 0.0
3.0 0.2 0.0
3.0 0.4 0.0
3.0 0.6 0.0
3.0 0.8 0.0
3.0 1.0 0.0
2.0 0.0 1.0
2.2 0.0 1.0
2.2 0.2 1.0
2.0 0.2 1.0
2.2 0.4 1.0
2.0 0.4 1.0
2.2 0.6 1.0
2.0 0.6 1.0
2.2 0.8 1.0
2.0 0.8 1.0
2.2 1.0 1.0
2.0 1.0 1.0
2.4 0.0 1.0
2.4 0.2 1.0
2.4 0.4 1.0
2.4 0.6 1.0
2.4 0.8 1.0
2.4 1.0 1.0
2.6 0.0 1.0
2.6 0.2 1.0
2.6 0.4 1.0
2.6 0.6 1.0
2.6 0.8 1.0
2.6 1.0 1.0
2.8 0.0 1.0
2.8 0.2 1.0
2.8 0.4 1.0
2.8 0.6 1.0
2.8 0.8 1.0
2.8 1.0 1.0
3.0 0.0 1.0
3.0 0.2 1.0
3.0 0.4 1.0
3.0 0.6 1.0
3.0 0.8 1.0
3.0 1.0 1.0
2.2 0.0 0.2
2.0 0.0 0.2
2.2 0.0 0.4
2.0 0.0 0.4
2.2 0.0 0.6
2.0 0.0 0.6
2.2 0.0 0.8
2.0 0.0 0.8
2.4 0.0 0.2
2.4 0.0 0.4
2.4 0.0 0.6
2.4 0.0 0.8
2.6 0.0 0.2
2.6 0.0 0.4
2.6 0.0 0.6
2.6 0.0 0.8
2.8 0.0 0.2
2.8 0.0 0.4
2.8 0.0 0.6
2.8 0.0 0.8
3.0 0.0 0.2
3.0 0.0 0.4
3.0 0.0 0.6
3.0 0.0 0.8
2.2 1.0 0.2
2.0 1.0 0.2
2.2 1.0 0.4
2.0 1.0 0.4
2.2 1.0 0.6
2.0 1.0 0.6
2.2 1.0 0.8
2.0 1.0 0.8
2.4 1.0 0.2
2.4 1.0 0.4
2.4 1.0 0.6
2.4 1.0 0.8
2.6 1.0 0.2
2.6 1.0 0.4
2.6 1.0 0.6
2.6 1.0 0.8
2.8 1.0 0.2
2.8 1.0 0.4
2.8 1.0 0.6
2.8 1.0 0.8
3.0 1.0 0.2
3.0 1.0 0.4
3.0 1.0 0.6
3.0 1.0 0.8
2.0 0.2 0.2
2.0 0.2 0.4
2.0 0.2 0.6
2.0 0.2 0.8
2.0 0.4 0.2
2.0 0.4 0.4
2.0 0.4 0.6
2.0 0.4 0.8
2.0 0.6 0.2
2.0 0.6 0.4
2.0 0.6 0.6
2.0 0.6 0.8
2.0 0.8 0.2
2.0 0.8 0.4
2.0 0.8 0.6
2.0 0.8 0.8
3.0 0.2 0.2
3.0 0.2 0.4
3.0 0.2 0.6
3.0 0.2 0.8
3.0 0.4 0.2
3.0 0.4 0.4
3.0 0.4 0.6
3.0 0.4 0.8
3.0 0.6 0.2
3.0 0.6 0.4
3.0 0.6 0.6
3.0 0.6 0.8
3.0 0.8 0.2
3.0 0.8 0.4
3.0 0.8 0.6
3.0 0.8 0.8
3 0 1 2
3 0 2 3
3 3 2 4
3 3 4 5
3 5 4 6
3 5 6 7
3 7 6 8
3 7 8 9
3 9 8 10
3 9 10 11
3 1 12 13
3 1 13 2
3 2 13 14
3 2 14 4
3 4 14 15
3 4 15 6
3 6 15 16
3 6 16 8
3 8 16 17
3 8 17 10
3 12 18 19
3 12 19 13
3 13 19 20
3 13 20 14
3 14 20 21
3 14 21 15
3 15 21 22
3 15 22 16
3 16 22 23
3 16 23 17
3 18 24 25
3 18 25 19
3 19 25 26
3 19 26 20
3 20 26 27
3 20 27 21
3 21 27 28
3 21 28 22
3 22 28 29
3 22 29 23
3 24 30 31
3 24 31 25
3 25 31 32
3 25 32 26
3 26 32 33
3 26 33 27
3 27 33 34
3 27 34 28
3 28 34 35
3 28 35 29
3 36 37 38
3 36 38 39
3 39 38 40
3 39 40 41
3 41 40 42
3 41 42 43
3 43 42 44
3 43 44 45
3 45 44 46
3 45 46 47
3 37 48 49
3 37 49 38
3 38 49 50
3 38 50 40
3 40 50 51
3 40 51 42
3 42 51 52
3 42 52 44
3 44 52 53
3 44 53 46
3 48 54 55
3 48 55 49
3 49 55 56
3 49 56 50
3 50 56 57
3 50 57 51
3 51 57 58
3 51 58 52
3 52 58 59
3 52 59 53
3 54 60 61
3 54 61 55
3 55 61 62
3 55 62 56
3 56 62 63
3 56 63 57
3 57 63 64
3 57 64 58
3 58 64 65
3 58 65 59
3 60 66 67
3 60 67 61
3 61 67 68
3 61 68 62
3 62 68 69
3 62 69 63
3 63 69 70
3 63 70 64
3 64 70 71
3 64 71 65
3 0 1 72
3 0 72 73
3 73 72 74
3 73 74 75
3 75 74 76
3 75 76 77
3 77 76 78
3 77 78 79
3 79 78 37
3 79 37 36
3 1 12 80
3 1 80 72
3 72 80 81
3 72 81 74
3 74 81 82
3 74 82 76
3 76 82 83
3 76 83 78
3 78 83 48
3 78 48 37
3 12 18 84
3 12 84 80
3 80 84 85
3 80 85 81
3 81 85 86
3 81 86 82
3 82 86 87
3 82 87 83
3 83 87 54
3 83 54 48
3 18 24 88
3 18 88 84
3 84 88 89
3 84 89 85
3 85 89 90
3 85 90 86
3 86 90 91
3 86 91 87
3 87 91 60
3 87 60 54
3 24 30 92
3 24 92 88
3 88 92 93
3 88 93 89
3 89 93 94
3 89 94 90
3 90 94 95
3 90 95 91
3 91 95 66
3 91 66 60
3 11 10 96
3 11 96 97
3 97 96 98
3 97 98 99
3 99 98 100
3 99 100 101
3 101 100 102
3 101 102 103
3 103 102 46
3 103 46 47
3 10 17 104
3 10 104 96
3 96 104 105
3 96 105 98
3 98 105 106
3 98 106 100
3 100 106 107
3 100 107 102
3 102 107 53
3 102 53 46
3 17 23 108
3 17 108 104
3 104 108 109
3 104 109 105
3 105 109 110
3 105 110 106
3 106 110 111
3 106 111 107
3 107 111 59
3 107 59 53
3 23 29 112
3 23 112 108
3 108 112 113
3 108 113 109
3 109 113 114
3 109 114 110
3 110 114 115
3 110 115 111
3 111 115 65
3 111 65 59
3 29 35 116
3 29 116 112
3 112 116 117
3 112 117 113
3 113 117 118
3 113 118 114
3 114 118 119
3 114 119 115
3 115 119 71
3 115 71 65
3 0 3 120
3 0 120 73
3 73 120 121
3 73 121 75
3 75 121 122
3 75 122 77
3 77 122 123
3 77 123 79
3 79 123 39
3 79 39 36
3 3 5 124
3 3 124 120
3 120 124 125
3 120 125 121
3 121 125 126
3 121 126 122
3 122 126 127
3 122 127 123
3 123 127 41
3 123 41 39
3 5 7 128
3 5 128 124
3 124 128 129
3 124 129 125
3 125 129 130
3 125 130 126
3 126 130 131
3 126 131 127
3 127 131 43
3 127 43 41
3 7 9 132
3 7 132 128
3 128 132 133
3 128 133 129
3 129 133 134
3 129 134 130
3 130 134 135
3 130 135 131
3 131 135 45
3 131 45 43
3 9 11 97
3 9 97 132
3 132 97 99
3 132 99 133
3 133 99 101
3 133 101 134
3 134 101 103
3 134 103 135
3 135 103 47
3 135 47 45
3 30 31 136
3 30 136 92
3 92 136 137
3 92 137 93
3 93 137 138
3 93 138 94
3 94 138 139
3 94 139 95
3 95 139 67
3 95 67 66
3 31 32 140
3 31 140 136
3 136 140 141
3 136 141 137
3 137 141 142
3 137 142 138
3 138 142 143
3 138 143 139
3 139 143 68
3 139 68 67
3 32 33 144
3 32 144 140
3 140 144 145
3 140 145 141
3 141 145 146
3 141 146 142
3 142 146 147
3 142 147 143
3 143 147 69
3 143 69 68
3 33 34 148
3 33 148 144
3 144 148 149
3 144 149 145
3 145 149 150
3 145 150 146
3 146 150 151
3 146 151 147
3 147 151 70
3 147 70 69
3 34 35 116
3 34 116 148
3 148 116 117
3 148 117 149
3 149 117 118
3 149 118 150
3 150 118 119
3 150 119 151
3 151 119 71
3 151 71 70
3 152 153 154
3 152 154 155
3 155 154 156
3 155 156 157
3 157 156 158
3 157 158 159
3 159 158 160
3 159 160 161
3 161 160 162
3 161 162 163
3 153 164 165
3 153 165 154
3 154 165 166
3 154 166 156
3 156 166 167
3 156 167 158
3 158 167 168
3 158 168 160
3 160 168 169
3 160 169 162
3 164 170 171
3 164 171 165
3 165 171 172
3 165 172 166
3 166 172 173
3 166 173 167
3 167 173 174
3 167 174 168
3 168 174 175
3 168 175 169
3 170 176 177
3 170 177 171
3 171 177 178
3 171 178 172
3 172 178 179
3 172 179 173
3 173 179 180
3 173 180 174
3 174 180 181
3 174 181 175
3 176 182 183
3 176 183 177
3 177 183 184
3 177 184 178
3 178 184 185
3 178 185 179
3 179 185 186
3 179 186 180
3 180 186 187
3 180 187 181
3 188 189 190
3 188 190 191
3 191 190 192
3 191 192 193
3 193 192 194
3 193 194 195
3 195 194 196
3 195 196 197
3 197 196 198
3 197 198 199
3 189 200 201
3 189 201 190
3 190 201 202
3 190 202 192
3 192 202 203
3 192 203 194
3 194 203 204
3 194 204 196
3 196 204 205
3 196 205 198
3 200 206 207
3 200 207 201
3 201 207 208
3 201 208 202
3 202 208 209
3 202 209 203
3 203 209 210
3 203 210 204
3 204 210 211
3 204 211 205
3 206 212 213
3 206 213 207
3 207 213 214
3 207 214 208
3 208 214 215
3 208 215 209
3 209 215 216
3 209 216 210
3 210 216 217
3 210 217 211
3 212 218 219
3 212 219 213
3 213 219 220
3 213 220 214
3 214 220 221
3 214 221 215
3 215 221 222
3 215 222 216
3 216 222 223
3 216 223 217
3 152 153 224
3 152 224 225
3 225 224 226
3 225 226 227
3 227 226 228
3 227 228 229
3 229 228 230
3 229 230 231
3 231 230 189
3 231 189 188
3 153 164 232
3 153 232 224
3 224 232 233
3 224 233 226
3 226 233 234
3 226 234 228
3 228 234 235
3 228 235 230
3 230 235 200
3 230 200 189
3 164 170 236
3 164 236 232
3 232 236 237
3 232 237 233
3 233 237 238
3 233 238 234
3 234 238 239
3 234 239 235
3 235 239 206
3 235 206 200
3 170 176 240
3 170 240 236
3 236 240 241
3 236 241 237
3 237 241 242
3 237 242 238
3 238 242 243
3 238 243 239
3 239 243 212
3 239 212 206
3 176 182 244
3 176 244 240
3 240 244 245
3 240 245 241
3 241 245 246
3 241 246 242
3 242 246 247
3 242 247 243
3 243 247 218
3 243 218 212
3 163 162 248
3 163 248 249
3 249 248 250
3 249 250 251
3 251 250 252
3 251 252 253
3 253 252 254
3 253 254 255
3 255 254 198
3 255 198 199
3 162 169 256
3 162 256 248
3 248 256 257
3 248 257 250
3 250 257 258
3 250 258 252
3 252 258 259
3 252 259 254
3 254 259 205
3 254 205 198
3 169 175 260
3 169 260 256
3 256 260 261
3 256 261 257
3 257 261 262
3 257 262 258
3 258 262 263
3 258 263 259
3 259 263 211
3 259 211 205
3 175 181 264
3 175 264 260
3 260 264 265
3 260 265 261
3 261 265 266
3 261 266 262
3 262 266 267
3 262 267 263
3 263 267 217
3 263 217 211
3 181 187 268
3 181 268 264
3 264 268 269
3 264 269 265
3 265 269 270
3 265 270 266
3 266 270 271
3 266 271 267
3 267 271 223
3 267 223 217
3 152 155 272
3 152 272 225
3 225 272 273
3 225 273 227
3 227 273 274
3 227 274 229
3 229 274 275
3 229 275 231
3 231 275 191
3 231 191 188
3 155 157 276
3 155 276 272
3 272 276 277
3 272 277 273
3 273 277 278
3 273 278 274
3 274 278 279
3 274 279 275
3 275 279 193
3 275 193 191
3 157 159 280
3 157 280 276
3 276 280 281
3 276 281 277
3 277 281 282
3 277 282 278
3 278 282 283
3 278 283 279
3 279 283 195
3 279 195 193
3 159 161 284
3 159 284 280
3 280 284 285
3 280 285 281
3 281 285 286
3 281 286 282
3 282 286 287
3 282 287 283
3 283 287 197
3 283 197 195
3 161 163 249
3 161 249 284
3 284 249 251
3 284 251 285
3 285 251 253
3 285 253 286
3 286 253 255
3 286 255 287
3 287 255 199
3 287 199 197
3 182 183 288
3 182 288 244
3 244 288 289
3 244 289 245
3 245 289 290
3 245 290 246
3 246 290 291
3 246 291 247
3 247 291 219
3 247 219 218
3 183 184 292
3 183 292 288
3 288 292 293
3 288 293 289
3 289 293 294
3 289 294 290
3 290 294 295
3 290 295 291
3 291 295 220
3 291 220 219
3 184 185 296
3 184 296 292
3 292 296 297
3 292 297 293
3 293 297 298
3 293 298 294
3 294 298 299
3 294 299 295
3 295 299 221
3 295 221 220
3 185 186 300
3 185 300 296
3 296 300 301
3 296 301 297
3 297 301 302
3 297 302 298
3 298 302 303
3 298 303 299
3 299 303 222
3 299 222 221
3 186 187 268
3 186 268 300
3 300 268 269
3 300 269 301
3 301 269 270
3 301 270 302
3 302 270 271
3 302 271 303
3 303 271 223
3 303 223 222
